<svg width="556" height="556" viewBox="0 0 556 556" fill="none" xmlns="http://www.w3.org/2000/svg">
<path d="M302.431 512.743C434.409 512.743 541.399 451.89 541.399 376.823C541.399 301.757 434.409 240.904 302.431 240.904C170.452 240.904 63.4619 301.757 63.4619 376.823C63.4619 451.89 170.452 512.743 302.431 512.743Z" fill="#F5F5F5"/>
<path d="M454.018 440.074C485.579 440.074 511.164 424.033 511.164 404.245C511.164 384.458 485.579 368.417 454.018 368.417C422.458 368.417 396.873 384.458 396.873 404.245C396.873 424.033 422.458 440.074 454.018 440.074Z" fill="#E6E6E6"/>
<path d="M76.728 300.24C76.0431 291.995 74.1394 283.897 71.079 276.21C66.0417 263.789 56.4006 251.312 45.2918 248.977C34.1829 246.642 29.4902 254.092 31.8254 261.431C33.8493 267.747 42.1003 272.996 48.372 278.512C54.6437 284.027 66.3419 297.415 69.589 310.237L75.8606 310.926L76.728 300.24Z" fill="#106D93"/>
<g opacity="0.15">
<path d="M76.728 300.24C76.0431 291.995 74.1394 283.897 71.079 276.21C66.0417 263.789 56.4006 251.312 45.2918 248.977C34.1829 246.642 29.4902 254.092 31.8254 261.431C33.8493 267.747 42.1003 272.996 48.372 278.512C54.6437 284.027 66.3419 297.415 69.589 310.237L75.8606 310.926L76.728 300.24Z" fill="black"/>
</g>
<path d="M72.4246 306C72.2455 306 72.0734 305.931 71.9448 305.806C71.8161 305.682 71.7409 305.512 71.7351 305.333C70.5675 272.952 38.92 254.848 38.5753 254.648C38.4244 254.552 38.3158 254.403 38.2717 254.229C38.2275 254.056 38.2512 253.873 38.3378 253.717C38.4245 253.56 38.5676 253.443 38.7378 253.389C38.908 253.335 39.0925 253.348 39.2536 253.425C39.5872 253.614 71.9353 272.106 73.1251 305.255C73.1312 305.439 73.0646 305.618 72.9397 305.753C72.8149 305.889 72.6418 305.969 72.4579 305.978L72.4246 306Z" fill="white"/>
<path d="M81.7209 357.241C81.7209 357.241 75.2491 361.333 65.1299 359.587C61.8577 359.152 58.8085 357.688 56.4229 355.406C53.8097 352.715 53.3983 350.002 52.6643 346.399C52.4622 344.893 51.9471 343.446 51.152 342.151C48.928 339.171 44.6579 339.227 41.0551 338.448C35.9399 337.336 31.2361 333.667 29.7571 328.652C28.2782 323.636 30.6801 317.532 35.5284 315.552L29.5792 311.738C27.7298 310.652 26.0195 309.345 24.4863 307.846C22.9558 306.317 22.0414 304.279 21.9175 302.119C21.9175 298.961 24.2639 296.137 27.1551 294.847C30.1167 293.703 33.3303 293.373 36.4625 293.89C39.6353 294.279 42.7539 295.025 45.7588 296.114C46.5777 296.484 47.4627 296.685 48.3609 296.704C49.5298 296.497 50.6254 295.991 51.5412 295.236C58.3467 290.788 69.4333 291.088 73.0807 299.562C73.6144 300.807 73.9369 302.142 74.5151 303.365C76.6279 307.935 82.5771 306.556 86.4247 308.691C87.6322 309.456 88.6566 310.477 89.4253 311.682C90.194 312.887 90.6882 314.246 90.8727 315.663C91.6399 320.178 90.3834 325.327 89.5494 329.786C88.7154 334.245 87.659 338.393 86.4469 342.618C85.4572 346.11 84.3675 349.568 83.211 353.004C82.9663 353.716 82.4326 356.796 81.7209 357.241Z" fill="#106D93"/>
<path d="M85.7908 346.811C82.3993 337.479 76.8295 329.092 69.5445 322.347C69.4687 322.184 69.3333 322.056 69.1664 321.991C67.0674 320.023 64.8663 318.167 62.5722 316.431C61.7054 310.426 62.4737 304.299 64.7962 298.694C64.8744 298.528 64.8831 298.337 64.8206 298.164C64.758 297.991 64.6293 297.849 64.4626 297.771C64.296 297.693 64.1051 297.684 63.9321 297.747C63.759 297.81 63.6178 297.938 63.5397 298.105C61.2365 303.508 60.3523 309.411 60.971 315.252C51.6503 308.53 41.3105 303.349 30.3465 299.906C30.1682 299.862 29.9795 299.887 29.8199 299.979C29.6603 300.07 29.5421 300.219 29.4902 300.396C29.465 300.484 29.4578 300.576 29.4688 300.668C29.4799 300.759 29.5091 300.847 29.5546 300.927C29.6002 301.007 29.6613 301.076 29.7343 301.132C29.8072 301.188 29.8906 301.229 29.9795 301.252C30.2686 301.33 49.9955 306.934 66.3197 321.268C56.3117 319.522 44.3799 324.348 43.835 324.604C43.6819 324.661 43.5542 324.771 43.4748 324.914C43.3954 325.057 43.3694 325.224 43.4015 325.384C43.4335 325.545 43.5216 325.689 43.6499 325.79C43.7782 325.892 43.9384 325.944 44.1019 325.938C44.1901 325.954 44.2806 325.954 44.3688 325.938C44.5022 325.872 58.5246 320.2 68.4325 323.281C75.6284 329.879 81.1416 338.103 84.512 347.266C84.5586 347.403 84.647 347.522 84.7648 347.606C84.8825 347.689 85.0236 347.734 85.1681 347.733H85.4016C85.4894 347.701 85.5695 347.65 85.6372 347.585C85.7048 347.52 85.7585 347.442 85.7949 347.356C85.8313 347.269 85.8497 347.176 85.849 347.083C85.8483 346.989 85.8285 346.896 85.7908 346.811Z" fill="white"/>
<path d="M81.9433 356.274C82.0616 357.901 82.5624 359.477 83.4049 360.874C84.2473 362.271 85.4077 363.45 86.7916 364.313L222.4 442.576C223.899 443.338 225.556 443.735 227.237 443.735C228.918 443.735 230.576 443.338 232.074 442.576L417.589 335.468C419.048 334.694 420.269 333.537 421.12 332.121C421.971 330.706 422.42 329.086 422.42 327.434C422.42 325.782 421.971 324.162 421.12 322.747C420.269 321.331 419.048 320.174 417.589 319.4L282.003 241.115C280.503 240.358 278.846 239.964 277.166 239.964C275.486 239.964 273.829 240.358 272.329 241.115L86.7916 348.245C85.4086 349.107 84.2486 350.284 83.4061 351.679C82.5636 353.074 82.0624 354.648 81.9433 356.274Z" fill="#37474F"/>
<path d="M227.215 433.28V443.744C225.534 443.791 223.869 443.408 222.378 442.632L86.736 364.313C85.3185 363.566 84.1244 362.457 83.2755 361.098C82.4265 359.739 81.953 358.179 81.9033 356.577C81.8536 354.976 82.2293 353.39 82.9924 351.981C83.7554 350.572 84.8783 349.39 86.2467 348.556C84.0783 350.113 84.2451 352.393 86.736 353.827L222.4 432.112C223.88 432.904 225.537 433.306 227.215 433.28Z" fill="#263238"/>
<path d="M77.4063 348.412C76.0595 347.496 74.9471 346.275 74.159 344.85C73.3709 343.424 72.9291 341.833 72.8694 340.205V178.398C72.9606 176.72 73.4462 175.088 74.2867 173.633C75.1271 172.178 76.2988 170.942 77.7066 170.025L263.222 62.917C264.662 62.1526 266.262 61.7381 267.893 61.7072C269.523 61.6763 271.138 62.0298 272.607 62.739C273.954 63.6553 275.066 64.8756 275.854 66.3012C276.642 67.7268 277.084 69.3177 277.144 70.9456V232.753C277.053 234.43 276.567 236.063 275.727 237.518C274.886 238.973 273.714 240.209 272.307 241.126L86.7916 348.245C85.3494 349.005 83.7489 349.416 82.1188 349.445C80.4888 349.474 78.8747 349.12 77.4063 348.412Z" fill="#455A64"/>
<path d="M86.2134 348.534C84.8251 349.157 83.3176 349.468 81.7963 349.447C80.2751 349.426 78.7768 349.073 77.4063 348.412C76.0595 347.496 74.9471 346.275 74.159 344.85C73.3709 343.424 72.9291 341.833 72.8694 340.205V178.398C72.9225 176.715 73.4131 175.075 74.2927 173.639L83.3667 178.865C82.4948 180.305 82.0049 181.943 81.9433 183.625V345.443C81.9433 348.312 83.8115 349.591 86.2134 348.534Z" fill="#263238"/>
<path d="M81.9433 183.647V345.443C81.9433 348.534 84.1673 349.78 86.7916 348.245L272.307 241.126C273.714 240.209 274.886 238.973 275.726 237.518C276.567 236.063 277.053 234.43 277.144 232.753V70.9456C277.144 67.8654 274.975 66.6088 272.307 68.1545L86.7916 175.262C85.3803 176.179 84.2056 177.417 83.363 178.874C82.5205 180.331 82.0341 181.966 81.9433 183.647Z" fill="#37474F"/>
<path d="M86.7916 353.827L222.4 432.112C223.9 432.869 225.557 433.263 227.237 433.263C228.917 433.263 230.574 432.869 232.074 432.112L417.589 325.004C420.269 323.459 420.269 320.957 417.589 319.444L282.003 241.159C280.503 240.403 278.846 240.009 277.166 240.009C275.486 240.009 273.829 240.403 272.329 241.159L86.7916 348.245C84.1117 349.78 84.1117 352.282 86.7916 353.827Z" fill="#455A64"/>
<path d="M89.3937 184.247L268.259 80.9981C269.86 80.0751 271.161 80.8313 271.161 82.6772V222.789C271.106 223.796 270.814 224.775 270.31 225.649C269.806 226.522 269.103 227.264 268.259 227.815L89.3937 331.009C87.7813 331.932 86.4803 331.187 86.4803 329.33V189.218C86.5422 188.219 86.8382 187.249 87.3443 186.385C87.8504 185.522 88.5524 184.789 89.3937 184.247Z" fill="#FAFAFA"/>
<path d="M102.526 349.635L274.731 250.2C275.479 249.817 276.308 249.617 277.149 249.617C277.99 249.617 278.819 249.817 279.568 250.2L288.375 255.282C288.664 255.383 288.915 255.572 289.092 255.822C289.269 256.072 289.364 256.371 289.364 256.677C289.364 256.984 289.269 257.283 289.092 257.533C288.915 257.783 288.664 257.972 288.375 258.073L116.148 357.497C115.4 357.88 114.571 358.08 113.73 358.08C112.889 358.08 112.06 357.88 111.311 357.497L102.526 352.426C102.237 352.325 101.987 352.136 101.81 351.886C101.632 351.636 101.537 351.337 101.537 351.031C101.537 350.724 101.632 350.425 101.81 350.175C101.987 349.925 102.237 349.737 102.526 349.635Z" fill="#37474F"/>
<path d="M125.222 362.745L297.427 263.322C298.177 262.943 299.005 262.746 299.845 262.746C300.685 262.746 301.514 262.943 302.264 263.322L356.441 294.602C356.73 294.704 356.98 294.892 357.157 295.142C357.335 295.392 357.43 295.691 357.43 295.998C357.43 296.304 357.335 296.603 357.157 296.853C356.98 297.103 356.73 297.292 356.441 297.393L184.436 396.673C183.685 397.054 182.855 397.252 182.012 397.252C181.17 397.252 180.339 397.054 179.588 396.673L125.233 365.537C124.939 365.442 124.681 365.256 124.498 365.006C124.315 364.756 124.216 364.455 124.215 364.145C124.214 363.835 124.311 363.533 124.491 363.282C124.672 363.03 124.928 362.843 125.222 362.745Z" fill="#263238"/>
<path d="M279.59 308.024L284.972 304.922C285.206 304.788 285.195 304.566 284.972 304.421L278.734 300.818C278.602 300.75 278.455 300.714 278.306 300.714C278.157 300.714 278.01 300.75 277.878 300.818L272.484 303.932C272.251 304.054 272.262 304.277 272.484 304.421L278.712 308.024C278.847 308.094 278.998 308.131 279.151 308.131C279.304 308.131 279.454 308.094 279.59 308.024ZM268.948 295.659L263.544 298.794C263.311 298.928 263.333 299.15 263.544 299.295L269.771 302.887C269.906 302.955 270.054 302.991 270.205 302.991C270.356 302.991 270.504 302.955 270.639 302.887L276.032 299.773C276.254 299.64 276.243 299.417 276.032 299.273L269.793 295.681C269.663 295.614 269.518 295.58 269.371 295.58C269.224 295.58 269.079 295.614 268.948 295.681V295.659ZM251.523 305.8L242.405 311.06C242.171 311.193 242.183 311.416 242.405 311.56L248.632 315.163C248.767 315.229 248.915 315.263 249.066 315.263C249.216 315.263 249.364 315.229 249.499 315.163L258.618 309.903C258.851 309.77 258.829 309.547 258.618 309.403L252.424 305.8C252.285 305.726 252.131 305.687 251.974 305.687C251.817 305.687 251.662 305.726 251.523 305.8ZM261.064 300.24L255.671 303.354C255.449 303.487 255.46 303.709 255.671 303.854L261.909 307.457C262.043 307.523 262.189 307.557 262.337 307.557C262.486 307.557 262.632 307.523 262.766 307.457L268.159 304.343C268.381 304.21 268.37 303.987 268.159 303.854L261.92 300.24C261.788 300.172 261.641 300.136 261.492 300.136C261.343 300.136 261.197 300.172 261.064 300.24ZM239.936 312.472L234.543 315.574C234.321 315.708 234.332 315.93 234.543 316.075L240.781 319.678C240.914 319.746 241.061 319.782 241.209 319.782C241.358 319.782 241.505 319.746 241.638 319.678L247.031 316.564C247.253 316.442 247.242 316.219 247.031 316.075L240.77 312.472C240.638 312.404 240.491 312.368 240.342 312.368C240.193 312.368 240.046 312.404 239.914 312.472H239.936ZM232.052 317.02L226.67 320.134C226.437 320.256 226.448 320.478 226.67 320.623L232.908 324.226C233.042 324.292 233.188 324.326 233.337 324.326C233.485 324.326 233.632 324.292 233.765 324.226L239.158 321.112C239.391 320.979 239.369 320.756 239.158 320.612L232.931 317.009C232.793 316.933 232.639 316.893 232.482 316.891C232.325 316.889 232.169 316.926 232.03 316.998L232.052 317.02ZM256.583 331.654L261.976 328.54C262.199 328.407 262.187 328.185 261.976 328.04L255.738 324.448C255.605 324.38 255.459 324.344 255.31 324.344C255.161 324.344 255.014 324.38 254.882 324.448L249.488 327.562C249.255 327.695 249.277 327.918 249.488 328.062L255.716 331.654C255.849 331.715 255.994 331.745 256.141 331.741C256.287 331.737 256.431 331.7 256.561 331.632L256.583 331.654ZM248.699 336.202L254.092 333.088C254.326 332.955 254.303 332.733 254.092 332.588L247.865 328.996C247.73 328.928 247.582 328.892 247.431 328.892C247.28 328.892 247.132 328.928 246.997 328.996L241.604 332.11C241.382 332.243 241.393 332.466 241.604 332.61L247.843 336.213C247.975 336.27 248.119 336.297 248.263 336.291C248.408 336.285 248.549 336.247 248.677 336.18L248.699 336.202ZM240.815 340.75L246.208 337.637C246.441 337.503 246.43 337.281 246.208 337.147L239.981 333.544C239.848 333.476 239.702 333.441 239.553 333.441C239.404 333.441 239.257 333.476 239.124 333.544L233.731 336.658C233.498 336.791 233.509 337.014 233.731 337.158L239.97 340.761C240.101 340.817 240.243 340.842 240.385 340.837C240.527 340.831 240.666 340.794 240.792 340.728L240.815 340.75ZM232.942 345.298L238.335 342.185C238.557 342.062 238.546 341.84 238.335 341.695L232.041 338.048C231.909 337.98 231.762 337.944 231.613 337.944C231.464 337.944 231.317 337.98 231.185 338.048L225.792 341.15C225.558 341.284 225.58 341.506 225.792 341.651L232.019 345.254C232.156 345.331 232.309 345.374 232.466 345.378C232.623 345.381 232.779 345.347 232.92 345.276L232.942 345.298ZM271.728 312.628L277.122 309.514C277.344 309.381 277.333 309.158 277.122 309.014L270.883 305.411C270.75 305.345 270.604 305.311 270.455 305.311C270.307 305.311 270.16 305.345 270.027 305.411L264.634 308.524C264.411 308.658 264.423 308.88 264.634 309.014L270.872 312.617C271.003 312.677 271.146 312.707 271.29 312.706C271.435 312.704 271.577 312.669 271.706 312.605L271.728 312.628ZM264.456 327.084L276.488 320.134C276.721 320 276.699 319.778 276.488 319.644L261.32 310.904C261.186 310.836 261.037 310.8 260.886 310.8C260.736 310.8 260.587 310.836 260.453 310.904L254.237 314.496C254.003 314.629 254.014 314.852 254.237 314.996L262.243 319.622C262.499 319.767 262.51 319.989 262.243 320.111L257.272 322.992C257.039 323.125 257.05 323.347 257.272 323.492L263.511 327.084C263.651 327.164 263.81 327.206 263.972 327.206C264.134 327.206 264.293 327.164 264.434 327.084H264.456ZM224.179 321.524L218.786 324.637C218.552 324.771 218.575 324.993 218.786 325.127L225.013 328.729C225.148 328.798 225.296 328.833 225.447 328.833C225.598 328.833 225.746 328.798 225.881 328.729L231.263 325.616C231.496 325.482 231.485 325.26 231.263 325.115L225.024 321.513C224.887 321.45 224.737 321.421 224.587 321.427C224.436 321.432 224.289 321.473 224.157 321.546L224.179 321.524ZM216.295 326.072L210.902 329.185C210.68 329.319 210.691 329.541 210.902 329.686L217.14 333.278C217.273 333.346 217.419 333.381 217.568 333.381C217.717 333.381 217.864 333.346 217.996 333.278L223.39 330.164C223.612 330.03 223.601 329.808 223.39 329.664L217.151 326.072C217.014 326.003 216.863 325.969 216.709 325.973C216.556 325.977 216.406 326.019 216.273 326.094L216.295 326.072ZM176.919 377.09C177.052 377.156 177.199 377.19 177.347 377.19C177.496 377.19 177.642 377.156 177.775 377.09L183.169 373.977C183.402 373.843 183.391 373.621 183.169 373.487L176.941 369.885C176.806 369.819 176.658 369.784 176.508 369.784C176.357 369.784 176.209 369.819 176.074 369.885L170.692 372.998C170.459 373.132 170.47 373.354 170.692 373.499L176.919 377.09ZM153.234 362.512L147.84 365.626C147.618 365.759 147.629 365.981 147.84 366.126L154.079 369.718C154.211 369.786 154.358 369.822 154.507 369.822C154.656 369.822 154.803 369.786 154.935 369.718L160.328 366.604C160.551 366.471 160.539 366.248 160.328 366.104L154.09 362.512C153.957 362.444 153.811 362.408 153.662 362.408C153.513 362.408 153.366 362.444 153.234 362.512ZM165.922 373.187C166.055 373.253 166.201 373.287 166.35 373.287C166.498 373.287 166.645 373.253 166.778 373.187L172.171 370.074C172.393 369.94 172.382 369.718 172.171 369.573L165.933 365.97C165.8 365.902 165.653 365.866 165.505 365.866C165.356 365.866 165.209 365.902 165.076 365.97L159.683 369.084C159.461 369.217 159.472 369.429 159.683 369.573L165.922 373.187ZM190.808 379.859L196.201 376.746C196.435 376.623 196.413 376.401 196.201 376.256L189.974 372.653C189.84 372.585 189.691 372.549 189.54 372.549C189.39 372.549 189.241 372.585 189.107 372.653L183.714 375.756C183.491 375.889 183.502 376.112 183.714 376.256L189.952 379.859C190.083 379.929 190.23 379.967 190.379 379.969C190.528 379.971 190.675 379.937 190.808 379.87V379.859ZM182.068 384.396C182.203 384.462 182.351 384.496 182.501 384.496C182.652 384.496 182.8 384.462 182.935 384.396L188.317 381.283C188.551 381.149 188.54 380.927 188.317 380.782L182.079 377.179C181.947 377.111 181.8 377.075 181.651 377.075C181.502 377.075 181.355 377.111 181.223 377.179L175.807 380.304C175.574 380.426 175.585 380.649 175.807 380.793L182.068 384.396ZM161.118 357.931L155.724 361.044C155.491 361.178 155.502 361.4 155.724 361.533L161.952 365.136C162.084 365.205 162.231 365.24 162.38 365.24C162.529 365.24 162.676 365.205 162.808 365.136L168.201 362.023C168.435 361.889 168.424 361.667 168.201 361.522L161.963 357.919C161.829 357.859 161.684 357.83 161.538 357.833C161.391 357.837 161.248 357.874 161.118 357.942V357.931ZM200.516 335.179L195.123 338.293C194.889 338.426 194.911 338.648 195.123 338.793L201.35 342.385C201.484 342.453 201.633 342.489 201.784 342.489C201.934 342.489 202.083 342.453 202.217 342.385L207.61 339.271C207.833 339.138 207.822 338.915 207.61 338.771L201.372 335.179C201.239 335.113 201.092 335.079 200.943 335.081C200.794 335.083 200.647 335.12 200.516 335.19V335.179ZM169.024 353.394L163.631 356.507C163.408 356.641 163.42 356.863 163.631 356.996L169.869 360.599C170.002 360.668 170.148 360.703 170.297 360.703C170.446 360.703 170.593 360.668 170.725 360.599L176.119 357.486C176.352 357.352 176.33 357.13 176.119 356.985L169.891 353.382C169.755 353.318 169.607 353.286 169.456 353.288C169.306 353.29 169.158 353.326 169.024 353.394ZM208.422 330.642L203.04 333.756C202.807 333.889 202.818 334.112 203.04 334.256L209.278 337.848C209.411 337.916 209.558 337.952 209.707 337.952C209.855 337.952 210.002 337.916 210.135 337.848L215.528 334.734C215.761 334.601 215.75 334.378 215.528 334.234L209.301 330.642C209.161 330.566 209.004 330.526 208.845 330.526C208.686 330.526 208.529 330.566 208.389 330.642H208.422ZM192.665 339.738L187.272 342.852C187.05 342.985 187.061 343.208 187.272 343.352L193.488 346.944C193.621 347.01 193.768 347.044 193.916 347.044C194.065 347.044 194.211 347.01 194.344 346.944L199.737 343.83C199.971 343.697 199.949 343.475 199.737 343.341L193.488 339.76C193.357 339.689 193.212 339.649 193.063 339.645C192.914 339.642 192.766 339.673 192.632 339.738H192.665ZM184.792 344.286L179.399 347.4C179.165 347.533 179.177 347.756 179.399 347.9L185.637 351.503C185.77 351.571 185.916 351.607 186.065 351.607C186.214 351.607 186.361 351.571 186.494 351.503L191.887 348.39C192.12 348.256 192.109 348.034 191.887 347.9L185.648 344.297C185.512 344.225 185.36 344.185 185.205 344.184C185.05 344.182 184.897 344.217 184.759 344.286H184.792ZM176.908 348.846L171.515 351.959C171.281 352.081 171.304 352.304 171.515 352.448L177.742 356.051C177.876 356.12 178.025 356.155 178.176 356.155C178.327 356.155 178.475 356.12 178.609 356.051L184.003 352.949C184.225 352.815 184.214 352.593 184.003 352.448L177.764 348.846C177.628 348.772 177.475 348.733 177.32 348.733C177.164 348.733 177.011 348.772 176.875 348.846H176.908ZM217.185 354.406L222.578 351.292C222.811 351.158 222.8 350.936 222.578 350.792L216.34 347.189C216.206 347.123 216.06 347.089 215.911 347.089C215.763 347.089 215.617 347.123 215.483 347.189L210.09 350.302C209.857 350.436 209.868 350.658 210.09 350.792L216.328 354.394C216.457 354.456 216.599 354.486 216.741 354.484C216.884 354.482 217.024 354.448 217.151 354.383L217.185 354.406ZM286.396 285.651L281.002 288.764C280.78 288.898 280.791 289.12 281.002 289.253L287.241 292.856C287.373 292.925 287.52 292.96 287.669 292.96C287.818 292.96 287.965 292.925 288.097 292.856L293.49 289.743C293.724 289.609 293.701 289.387 293.49 289.242L287.263 285.639C287.124 285.566 286.971 285.527 286.814 285.525C286.657 285.524 286.503 285.559 286.362 285.628L286.396 285.651ZM276.855 291.155L271.473 294.269C271.239 294.402 271.25 294.624 271.473 294.769L277.711 298.361C277.843 298.429 277.99 298.465 278.139 298.465C278.288 298.465 278.435 298.429 278.567 298.361L283.96 295.247C284.194 295.114 284.183 294.891 283.96 294.747L277.733 291.155C277.595 291.076 277.439 291.032 277.28 291.028C277.121 291.024 276.963 291.06 276.821 291.133L276.855 291.155ZM294.28 281.147L288.887 284.261C288.653 284.383 288.675 284.605 288.887 284.75L295.114 288.353C295.249 288.419 295.397 288.453 295.547 288.453C295.698 288.453 295.846 288.419 295.981 288.353L301.374 285.239C301.597 285.106 301.586 284.883 301.374 284.739L295.136 281.136C295.004 281.053 294.854 281.005 294.698 280.995C294.543 280.985 294.387 281.015 294.246 281.08L294.28 281.147ZM253.492 323.203L258.885 320.089C259.107 319.956 259.096 319.733 258.885 319.589L252.646 315.997C252.514 315.929 252.367 315.893 252.218 315.893C252.069 315.893 251.923 315.929 251.79 315.997L246.397 319.111C246.175 319.244 246.186 319.466 246.397 319.611L252.635 323.203C252.768 323.255 252.912 323.277 253.055 323.265C253.197 323.254 253.335 323.21 253.458 323.136L253.492 323.203ZM303.02 276.61C302.886 276.542 302.737 276.506 302.586 276.506C302.436 276.506 302.287 276.542 302.153 276.61L296.771 279.712C296.537 279.846 296.548 280.068 296.771 280.213L303.009 283.816C303.141 283.884 303.288 283.92 303.437 283.92C303.586 283.92 303.733 283.884 303.865 283.816L309.258 280.702C309.492 280.58 309.481 280.357 309.258 280.213L303.02 276.61ZM225.069 349.891L230.462 346.788C230.696 346.655 230.673 346.432 230.462 346.288L224.235 342.685C224.1 342.617 223.952 342.581 223.801 342.581C223.65 342.581 223.502 342.617 223.367 342.685L217.952 345.721C217.73 345.843 217.741 346.066 217.952 346.21L224.19 349.813C224.32 349.881 224.465 349.918 224.612 349.92C224.758 349.922 224.904 349.889 225.035 349.824L225.069 349.891ZM321.702 294.102L327.095 290.988C327.328 290.855 327.306 290.632 327.095 290.499L320.868 286.896C320.733 286.828 320.585 286.792 320.434 286.792C320.283 286.792 320.135 286.828 320 286.896L314.618 290.01C314.385 290.143 314.396 290.365 314.618 290.51L320.857 294.113C320.989 294.16 321.131 294.177 321.271 294.164C321.411 294.15 321.547 294.106 321.668 294.035L321.702 294.102ZM304.922 293.512L310.315 290.399C310.537 290.265 310.526 290.043 310.315 289.898L304.076 286.307C303.944 286.238 303.797 286.203 303.648 286.203C303.499 286.203 303.353 286.238 303.22 286.307L297.827 289.42C297.593 289.554 297.616 289.776 297.827 289.921L304.054 293.512C304.189 293.565 304.334 293.587 304.479 293.575C304.623 293.564 304.763 293.519 304.888 293.446L304.922 293.512ZM311.927 281.759C311.793 281.69 311.644 281.655 311.493 281.655C311.343 281.655 311.194 281.69 311.06 281.759L305.678 284.872C305.444 285.006 305.455 285.228 305.678 285.373L311.916 288.964C312.048 289.033 312.195 289.068 312.344 289.068C312.493 289.068 312.64 289.033 312.772 288.964L318.165 285.851C318.399 285.717 318.388 285.495 318.165 285.35L311.927 281.759ZM313.584 280.791L328.729 289.543C328.863 289.608 329.009 289.642 329.158 289.642C329.306 289.642 329.453 289.608 329.586 289.543L334.979 286.429C335.201 286.296 335.19 286.073 334.979 285.94L319.833 277.188C319.7 277.123 319.554 277.088 319.405 277.088C319.257 277.088 319.11 277.123 318.977 277.188L313.584 280.302C313.295 280.369 313.306 280.591 313.584 280.724V280.791ZM295.303 290.799L289.91 293.913C289.687 294.046 289.698 294.269 289.91 294.413L296.148 298.005C296.28 298.073 296.427 298.109 296.576 298.109C296.725 298.109 296.872 298.073 297.004 298.005L302.397 294.891C302.631 294.758 302.609 294.535 302.397 294.391L296.17 290.799C296.034 290.72 295.881 290.675 295.724 290.67C295.567 290.664 295.411 290.697 295.269 290.766L295.303 290.799ZM235.966 325.004L230.573 328.118C230.34 328.251 230.362 328.474 230.573 328.618L236.8 332.221C236.935 332.289 237.083 332.325 237.234 332.325C237.385 332.325 237.533 332.289 237.668 332.221L243.05 329.108C243.283 328.974 243.272 328.763 243.05 328.618L236.856 325.026C236.72 324.952 236.569 324.911 236.414 324.907C236.259 324.903 236.106 324.936 235.966 325.004ZM312.928 298.572C313.062 298.64 313.211 298.676 313.362 298.676C313.512 298.676 313.661 298.64 313.795 298.572L319.189 295.458C319.411 295.336 319.4 295.114 319.189 294.969L312.917 291.344C312.784 291.278 312.637 291.244 312.489 291.244C312.34 291.244 312.194 291.278 312.061 291.344L306.667 294.458C306.434 294.591 306.456 294.813 306.667 294.958L312.928 298.572ZM243.839 320.456L238.457 323.57C238.224 323.703 238.235 323.926 238.457 324.07L244.696 327.673C244.829 327.739 244.975 327.773 245.124 327.773C245.272 327.773 245.419 327.739 245.552 327.673L250.945 324.559C251.179 324.426 251.167 324.204 250.945 324.07L244.718 320.467C244.583 320.395 244.433 320.357 244.28 320.355C244.127 320.353 243.976 320.388 243.839 320.456ZM184.781 372.52C184.914 372.586 185.061 372.62 185.209 372.62C185.358 372.62 185.504 372.586 185.637 372.52L191.03 369.406C191.253 369.273 191.242 369.051 191.03 368.917L184.792 365.314C184.66 365.246 184.513 365.21 184.364 365.21C184.215 365.21 184.068 365.246 183.936 365.314L178.543 368.428C178.32 368.561 178.331 368.784 178.543 368.928L184.781 372.52ZM172.927 361.4L167.534 364.502C167.3 364.636 167.312 364.858 167.534 365.003L173.761 368.606C173.895 368.674 174.044 368.71 174.195 368.71C174.346 368.71 174.494 368.674 174.628 368.606L180.011 365.492C180.244 365.37 180.233 365.147 180.011 365.003L173.783 361.4C173.651 361.332 173.504 361.296 173.355 361.296C173.206 361.296 173.06 361.332 172.927 361.4ZM193.488 368.072L198.87 364.958C199.104 364.825 199.092 364.603 198.87 364.458L192.632 360.866C192.499 360.798 192.353 360.762 192.204 360.762C192.055 360.762 191.908 360.798 191.776 360.866L186.382 363.98C186.149 364.113 186.16 364.336 186.382 364.48L192.61 368.072C192.745 368.142 192.896 368.179 193.049 368.179C193.202 368.179 193.352 368.142 193.488 368.072ZM201.361 363.524L206.754 360.41C206.988 360.277 206.965 360.054 206.754 359.91L200.527 356.318C200.393 356.25 200.244 356.214 200.093 356.214C199.943 356.214 199.794 356.25 199.66 356.318L194.266 359.432C194.044 359.565 194.055 359.788 194.266 359.932L200.505 363.524C200.645 363.591 200.8 363.622 200.955 363.615C201.111 363.607 201.261 363.56 201.394 363.479L201.361 363.524ZM209.245 358.976L214.638 355.862C214.861 355.729 214.85 355.506 214.638 355.362L208.4 351.759C208.267 351.693 208.12 351.659 207.972 351.659C207.823 351.659 207.677 351.693 207.544 351.759L202.15 354.873C201.917 355.006 201.939 355.228 202.15 355.362L208.378 358.965C208.519 359.034 208.675 359.067 208.832 359.061C208.989 359.055 209.143 359.011 209.278 358.931L209.245 358.976ZM180.767 356.896L175.374 360.01C175.151 360.143 175.162 360.366 175.374 360.51L181.612 364.113C181.745 364.179 181.892 364.213 182.04 364.213C182.188 364.213 182.335 364.179 182.468 364.113L187.861 361C188.095 360.866 188.073 360.644 187.861 360.51L181.634 356.908C181.508 356.838 181.367 356.797 181.223 356.787C181.079 356.778 180.935 356.8 180.8 356.852L180.767 356.896ZM188.651 352.348L183.258 355.462C183.024 355.595 183.046 355.818 183.258 355.962L189.485 359.565C189.62 359.631 189.768 359.665 189.918 359.665C190.069 359.665 190.217 359.631 190.352 359.565L195.745 356.452C195.968 356.318 195.957 356.096 195.745 355.962L189.507 352.359C189.383 352.288 189.245 352.246 189.102 352.236C188.959 352.226 188.816 352.25 188.684 352.304L188.651 352.348ZM220.176 334.112L214.794 337.225C214.56 337.359 214.572 337.581 214.794 337.714L221.032 341.317C221.165 341.386 221.311 341.421 221.46 341.421C221.609 341.421 221.756 341.386 221.888 341.317L227.282 338.204C227.515 338.07 227.504 337.848 227.282 337.703L221.054 334.1C220.917 334.035 220.766 334.001 220.614 334.003C220.462 334.005 220.312 334.042 220.176 334.112ZM212.303 338.66L206.91 341.773C206.676 341.907 206.699 342.129 206.91 342.262L213.137 345.865C213.271 345.934 213.42 345.969 213.571 345.969C213.721 345.969 213.87 345.934 214.004 345.865L219.398 342.752C219.62 342.618 219.609 342.396 219.398 342.251L213.159 338.648C213.028 338.588 212.885 338.558 212.741 338.56C212.597 338.561 212.455 338.596 212.325 338.66H212.303ZM228.06 329.563L222.667 332.677C222.445 332.799 222.456 333.022 222.667 333.166L228.905 336.769C229.038 336.837 229.184 336.873 229.333 336.873C229.482 336.873 229.629 336.837 229.761 336.769L235.155 333.667C235.377 333.533 235.366 333.311 235.155 333.166L228.916 329.563C228.787 329.499 228.644 329.465 228.499 329.465C228.355 329.465 228.212 329.499 228.082 329.563H228.06ZM196.546 347.756L191.153 350.869C190.919 351.003 190.93 351.225 191.153 351.37L197.391 354.962C197.524 355.03 197.67 355.065 197.819 355.065C197.968 355.065 198.115 355.03 198.247 354.962L203.641 351.848C203.874 351.714 203.863 351.492 203.641 351.348L197.402 347.756C197.273 347.691 197.13 347.658 196.985 347.658C196.841 347.658 196.698 347.691 196.568 347.756H196.546ZM204.419 343.208L199.026 346.321C198.803 346.455 198.814 346.677 199.026 346.822L205.264 350.413C205.396 350.482 205.543 350.517 205.692 350.517C205.841 350.517 205.988 350.482 206.12 350.413L211.514 347.3C211.747 347.166 211.725 346.944 211.514 346.799L205.275 343.208C205.146 343.143 205.003 343.109 204.858 343.109C204.713 343.109 204.571 343.143 204.441 343.208H204.419ZM198.67 375.322L204.063 372.209C204.286 372.075 204.274 371.853 204.063 371.719L197.814 368.072C197.681 368.004 197.535 367.968 197.386 367.968C197.237 367.968 197.09 368.004 196.957 368.072L191.564 371.186C191.331 371.319 191.353 371.541 191.564 371.686L197.791 375.289C197.928 375.365 198.081 375.408 198.238 375.414C198.394 375.42 198.55 375.388 198.692 375.322H198.67ZM152.422 370.652L146.195 367.06C146.06 366.992 145.912 366.956 145.761 366.956C145.61 366.956 145.462 366.992 145.327 367.06L139.934 370.174C139.712 370.307 139.723 370.53 139.934 370.674L146.172 374.266C146.305 374.334 146.452 374.37 146.601 374.37C146.75 374.37 146.896 374.334 147.029 374.266L152.422 371.152C152.711 371.019 152.689 370.796 152.444 370.652H152.422ZM164.231 374.121L158.004 370.518C157.869 370.453 157.721 370.418 157.57 370.418C157.42 370.418 157.272 370.453 157.137 370.518L148.841 375.3C148.619 375.433 148.63 375.656 148.841 375.8L155.08 379.403C155.212 379.472 155.359 379.507 155.508 379.507C155.657 379.507 155.803 379.472 155.936 379.403L164.231 374.622C164.576 374.488 164.498 374.266 164.254 374.121H164.231ZM142.859 363.702L136.631 360.099C136.497 360.031 136.349 359.995 136.198 359.995C136.047 359.995 135.898 360.031 135.764 360.099L129.092 363.935C128.87 364.069 128.881 364.291 129.092 364.425L135.33 368.028C135.463 368.096 135.61 368.131 135.759 368.131C135.907 368.131 136.054 368.096 136.187 368.028L142.859 364.191C143.148 364.058 143.126 363.835 142.881 363.702H142.859ZM147.952 360.755C148.084 360.823 148.231 360.859 148.38 360.859C148.529 360.859 148.675 360.823 148.808 360.755L154.201 357.641C154.423 357.508 154.412 357.286 154.201 357.141L147.952 353.616C147.819 353.548 147.672 353.512 147.523 353.512C147.375 353.512 147.228 353.548 147.095 353.616L141.702 356.73C141.48 356.863 141.491 357.085 141.702 357.23L147.952 360.755ZM175.24 378.08L169.024 374.466C168.892 374.398 168.745 374.362 168.596 374.362C168.447 374.362 168.3 374.398 168.168 374.466L157.793 380.449C157.57 380.582 157.582 380.804 157.793 380.949L164.031 384.541C164.164 384.609 164.31 384.645 164.459 384.645C164.608 384.645 164.755 384.609 164.887 384.541L175.251 378.558C175.496 378.436 175.485 378.213 175.24 378.08ZM180.411 385.375L174.173 381.772C174.039 381.706 173.893 381.672 173.744 381.672C173.596 381.672 173.449 381.706 173.316 381.772L166.644 385.597C166.422 385.731 166.433 385.953 166.644 386.098L172.883 389.7C173.016 389.766 173.162 389.8 173.311 389.8C173.459 389.8 173.606 389.766 173.739 389.7L180.411 385.875C180.667 385.731 180.656 385.508 180.411 385.364V385.375ZM206.554 326.928C206.689 326.994 206.837 327.028 206.988 327.028C207.138 327.028 207.286 326.994 207.421 326.928L212.815 323.814C213.037 323.681 213.026 323.459 212.815 323.325L206.576 319.722C206.444 319.654 206.297 319.618 206.148 319.618C205.999 319.618 205.852 319.654 205.72 319.722L200.327 322.836C200.093 322.969 200.116 323.192 200.327 323.336L206.554 326.928ZM190.797 336.024C190.931 336.093 191.08 336.128 191.231 336.128C191.381 336.128 191.53 336.093 191.664 336.024L197.046 332.911C197.28 332.788 197.269 332.566 197.046 332.421L190.808 328.818C190.675 328.753 190.528 328.719 190.38 328.719C190.232 328.719 190.085 328.753 189.952 328.818L184.592 331.932C184.359 332.065 184.37 332.288 184.592 332.432L190.797 336.024ZM155.847 356.196C155.981 356.264 156.13 356.3 156.28 356.3C156.431 356.3 156.58 356.264 156.714 356.196L162.096 353.082C162.33 352.949 162.319 352.726 162.096 352.582L155.858 348.99C155.726 348.922 155.579 348.886 155.43 348.886C155.281 348.886 155.134 348.922 155.002 348.99L149.608 352.104C149.375 352.237 149.397 352.46 149.608 352.604L155.847 356.196ZM198.681 331.476C198.814 331.542 198.961 331.576 199.109 331.576C199.258 331.576 199.404 331.542 199.537 331.476L204.93 328.362C205.164 328.229 205.142 328.007 204.93 327.873L198.703 324.27C198.569 324.202 198.42 324.166 198.27 324.166C198.119 324.166 197.97 324.202 197.836 324.27L192.443 327.384C192.22 327.517 192.231 327.74 192.443 327.884L198.681 331.476ZM182.924 340.572C183.056 340.641 183.203 340.676 183.352 340.676C183.501 340.676 183.648 340.641 183.78 340.572L189.173 337.47C189.396 337.336 189.385 337.114 189.173 336.969L182.935 333.366C182.803 333.298 182.656 333.263 182.507 333.263C182.358 333.263 182.211 333.298 182.079 333.366L176.686 336.48C176.463 336.602 176.474 336.825 176.686 336.969L182.924 340.572ZM184.748 385.942C184.613 385.873 184.465 385.838 184.314 385.838C184.163 385.838 184.015 385.873 183.88 385.942L175.585 390.735C175.362 390.868 175.374 391.09 175.585 391.224L181.823 394.827C181.956 394.895 182.102 394.931 182.251 394.931C182.4 394.931 182.547 394.895 182.679 394.827L190.975 390.034C191.197 389.901 191.186 389.678 190.975 389.534L184.748 385.942ZM171.615 347.1C171.748 347.165 171.895 347.2 172.043 347.2C172.192 347.2 172.338 347.165 172.471 347.1L177.864 343.986C178.087 343.853 178.076 343.63 177.864 343.486L171.626 339.883C171.493 339.817 171.346 339.783 171.198 339.783C171.05 339.783 170.903 339.817 170.77 339.883L165.377 342.996C165.154 343.13 165.165 343.352 165.377 343.486L171.615 347.1ZM163.731 351.648C163.863 351.716 164.01 351.752 164.159 351.752C164.308 351.752 164.455 351.716 164.587 351.648L169.98 348.534C170.214 348.401 170.203 348.178 169.98 348.034L163.753 344.431C163.618 344.365 163.47 344.331 163.319 344.331C163.169 344.331 163.021 344.365 162.886 344.431L157.504 347.544C157.27 347.678 157.281 347.9 157.504 348.034L163.731 351.648ZM330.731 301.608C330.599 301.54 330.452 301.504 330.303 301.504C330.154 301.504 330.007 301.54 329.875 301.608L316.598 309.269C316.375 309.403 316.386 309.625 316.598 309.77L322.836 313.373C322.969 313.438 323.115 313.473 323.264 313.473C323.412 313.473 323.559 313.438 323.692 313.373L336.992 305.8C337.225 305.667 337.214 305.444 336.992 305.311L330.731 301.608ZM313.306 311.616C313.173 311.55 313.026 311.516 312.878 311.516C312.729 311.516 312.583 311.55 312.45 311.616L307.057 314.729C306.834 314.863 306.845 315.085 307.057 315.219L313.295 318.822C313.428 318.887 313.575 318.921 313.723 318.921C313.872 318.921 314.018 318.887 314.151 318.822L319.544 315.708C319.767 315.574 319.756 315.352 319.544 315.208L313.306 311.616ZM206.554 370.674L211.947 367.56C212.181 367.427 212.17 367.205 211.947 367.071L205.72 363.624C205.588 363.556 205.441 363.52 205.292 363.52C205.143 363.52 204.996 363.556 204.864 363.624L199.471 366.738C199.237 366.871 199.248 367.093 199.471 367.238L205.709 370.841C205.847 370.896 205.996 370.919 206.145 370.908C206.293 370.896 206.437 370.85 206.565 370.774L206.554 370.674ZM297.538 320.723C297.405 320.655 297.259 320.619 297.11 320.619C296.961 320.619 296.814 320.655 296.682 320.723L291.288 323.837C291.055 323.97 291.077 324.192 291.288 324.337L297.516 327.929C297.65 327.997 297.799 328.033 297.949 328.033C298.1 328.033 298.249 327.997 298.383 327.929L303.776 324.815C303.999 324.682 303.987 324.459 303.776 324.315L297.538 320.723ZM338.604 297.015C338.47 296.947 338.321 296.911 338.17 296.911C338.02 296.911 337.871 296.947 337.737 297.015L332.343 300.129C332.121 300.262 332.132 300.485 332.343 300.629L338.582 304.221C338.714 304.289 338.861 304.325 339.01 304.325C339.159 304.325 339.306 304.289 339.438 304.221L344.831 301.107C345.065 300.974 345.043 300.752 344.831 300.607L338.604 297.015ZM352.715 296.059L337.57 287.319C337.437 287.25 337.291 287.215 337.142 287.215C336.993 287.215 336.846 287.25 336.714 287.319L331.32 290.432C331.087 290.554 331.109 290.777 331.32 290.921L346.455 299.662C346.589 299.73 346.738 299.766 346.888 299.766C347.039 299.766 347.188 299.73 347.322 299.662L352.715 296.548C352.982 296.526 352.971 296.304 352.726 296.159L352.715 296.059ZM268.092 337.714C267.959 337.649 267.812 337.615 267.664 337.615C267.516 337.615 267.369 337.649 267.236 337.714L260.564 341.54C260.33 341.673 260.353 341.896 260.564 342.04L266.791 345.643C266.926 345.709 267.074 345.743 267.225 345.743C267.375 345.743 267.523 345.709 267.658 345.643L274.33 341.818C274.553 341.684 274.542 341.462 274.33 341.317L268.092 337.714ZM288.008 326.328C287.876 326.259 287.729 326.224 287.58 326.224C287.431 326.224 287.284 326.259 287.152 326.328L278.856 331.12C278.634 331.254 278.645 331.476 278.856 331.621L285.095 335.212C285.227 335.281 285.374 335.316 285.523 335.316C285.672 335.316 285.818 335.281 285.951 335.212L294.246 330.42C294.469 330.286 294.458 330.064 294.246 329.93L288.008 326.328ZM249.855 348.356C249.723 348.288 249.576 348.252 249.427 348.252C249.278 348.252 249.131 348.288 248.999 348.356L204.619 373.932C204.386 374.066 204.408 374.288 204.619 374.433L210.846 378.036C210.981 378.101 211.13 378.136 211.28 378.136C211.43 378.136 211.579 378.101 211.714 378.036L256.082 352.46C256.316 352.326 256.305 352.104 256.082 351.97L249.855 348.356ZM202.996 375.411C202.861 375.343 202.713 375.307 202.562 375.307C202.411 375.307 202.263 375.343 202.128 375.411L195.456 379.236C195.234 379.37 195.245 379.592 195.456 379.737L201.695 383.329C201.827 383.397 201.974 383.433 202.123 383.433C202.272 383.433 202.418 383.397 202.551 383.329L209.223 379.492C209.456 379.37 209.434 379.148 209.223 379.003L202.996 375.411ZM258.985 343.085C258.85 343.017 258.702 342.981 258.551 342.981C258.4 342.981 258.252 343.017 258.117 343.085L251.445 346.911C251.212 347.044 251.223 347.266 251.445 347.411L257.684 351.003C257.816 351.071 257.963 351.107 258.112 351.107C258.261 351.107 258.408 351.071 258.54 351.003L265.212 347.166C265.446 347.044 265.423 346.822 265.212 346.677L258.985 343.085ZM193.866 380.682C193.734 380.614 193.587 380.578 193.438 380.578C193.289 380.578 193.142 380.614 193.01 380.682L186.338 384.518C186.104 384.652 186.127 384.874 186.338 385.019L192.565 388.611C192.699 388.679 192.848 388.715 192.999 388.715C193.149 388.715 193.298 388.679 193.432 388.611L200.104 384.774C200.338 384.641 200.327 384.418 200.104 384.285L193.866 380.682ZM277.266 332.555C277.132 332.486 276.983 332.451 276.832 332.451C276.682 332.451 276.533 332.486 276.399 332.555L269.727 336.391C269.493 336.525 269.504 336.747 269.727 336.88L275.965 340.483C276.098 340.549 276.245 340.583 276.393 340.583C276.542 340.583 276.688 340.549 276.821 340.483L283.493 336.647C283.727 336.513 283.705 336.291 283.493 336.146L277.266 332.555ZM305.466 316.264C305.331 316.198 305.183 316.164 305.033 316.164C304.882 316.164 304.734 316.198 304.599 316.264L299.217 319.378C298.983 319.511 298.995 319.733 299.217 319.867L305.455 323.47C305.588 323.538 305.734 323.574 305.883 323.574C306.032 323.574 306.179 323.538 306.312 323.47L311.705 320.356C311.938 320.223 311.927 320 311.705 319.856L305.466 316.264ZM322.736 303.732L328.118 300.618C328.351 300.485 328.34 300.262 328.118 300.118L321.88 296.526C321.747 296.458 321.6 296.422 321.451 296.422C321.302 296.422 321.156 296.458 321.023 296.526L315.63 299.64C315.397 299.773 315.408 299.995 315.63 300.14L321.857 303.732C321.989 303.796 322.133 303.83 322.28 303.83C322.426 303.83 322.571 303.796 322.702 303.732H322.736ZM287.497 303.498L292.89 300.385C293.123 300.262 293.101 300.04 292.89 299.895L286.663 296.292C286.527 296.227 286.379 296.192 286.229 296.192C286.079 296.192 285.93 296.227 285.795 296.292L280.402 299.406C280.18 299.539 280.191 299.762 280.402 299.906L286.64 303.509C286.769 303.57 286.91 303.601 287.053 303.599C287.196 303.597 287.336 303.563 287.463 303.498H287.497ZM269.704 334.378L285.462 325.282C285.684 325.149 285.673 324.926 285.462 324.782L279.112 321.179C278.979 321.113 278.832 321.079 278.684 321.079C278.535 321.079 278.389 321.113 278.256 321.179L262.488 330.264C262.254 330.397 262.265 330.62 262.488 330.764L268.715 334.356C268.852 334.434 269.005 334.476 269.162 334.48C269.319 334.484 269.475 334.449 269.616 334.378H269.704ZM314.051 308.258C314.183 308.326 314.33 308.361 314.479 308.361C314.628 308.361 314.775 308.326 314.907 308.258L320.301 305.144C320.523 305.01 320.512 304.788 320.301 304.644L314.062 301.052C313.93 300.984 313.783 300.948 313.634 300.948C313.485 300.948 313.338 300.984 313.206 301.052L307.813 304.165C307.59 304.299 307.601 304.521 307.813 304.666L314.051 308.258ZM306 303.142L311.393 300.029C311.616 299.895 311.605 299.673 311.393 299.528L305.155 295.925C305.023 295.857 304.876 295.822 304.727 295.822C304.578 295.822 304.431 295.857 304.299 295.925L298.906 299.039C298.683 299.161 298.694 299.384 298.906 299.528L305.144 303.131C305.264 303.185 305.394 303.214 305.526 303.216C305.658 303.218 305.789 303.193 305.911 303.142H306ZM261.82 338.926L267.214 335.813C267.436 335.679 267.425 335.457 267.214 335.324L260.975 331.721C260.843 331.652 260.696 331.617 260.547 331.617C260.398 331.617 260.251 331.652 260.119 331.721L254.726 334.834C254.503 334.968 254.515 335.19 254.726 335.335L260.964 338.938C261.086 338.988 261.217 339.013 261.349 339.011C261.481 339.009 261.611 338.981 261.731 338.926H261.82ZM296.626 318.321C296.758 318.389 296.905 318.425 297.054 318.425C297.203 318.425 297.35 318.389 297.482 318.321L302.875 315.208C303.109 315.074 303.098 314.852 302.875 314.718L296.637 311.115C296.504 311.05 296.357 311.015 296.209 311.015C296.061 311.015 295.914 311.05 295.781 311.115L290.388 314.229C290.154 314.362 290.165 314.585 290.388 314.729L296.626 318.321ZM222.422 361.689L227.815 358.576C228.038 358.442 228.027 358.22 227.815 358.075L221.577 354.483C221.445 354.415 221.298 354.379 221.149 354.379C221 354.379 220.853 354.415 220.721 354.483L215.328 357.597C215.094 357.73 215.116 357.953 215.328 358.097L221.555 361.689C221.678 361.742 221.811 361.768 221.945 361.766C222.079 361.764 222.212 361.734 222.333 361.678L222.422 361.689ZM230.295 357.141L235.688 354.027C235.922 353.894 235.911 353.672 235.688 353.527L229.461 349.924C229.328 349.858 229.182 349.824 229.033 349.824C228.885 349.824 228.738 349.858 228.605 349.924L223.212 353.038C222.978 353.171 222.989 353.394 223.212 353.527L229.45 357.13C229.566 357.179 229.691 357.205 229.817 357.205C229.943 357.205 230.068 357.179 230.184 357.13L230.295 357.141ZM214.538 366.237L219.931 363.124C220.165 362.99 220.143 362.768 219.931 362.623L213.704 359.031C213.57 358.963 213.421 358.927 213.27 358.927C213.12 358.927 212.971 358.963 212.837 359.031L207.444 362.145C207.221 362.278 207.232 362.501 207.444 362.645L213.682 366.237C213.803 366.29 213.935 366.316 214.067 366.314C214.199 366.312 214.329 366.282 214.449 366.226L214.538 366.237ZM245.974 348.056L251.356 344.954C251.59 344.82 251.579 344.598 251.356 344.453L245.118 340.85C244.986 340.782 244.839 340.746 244.69 340.746C244.541 340.746 244.394 340.782 244.262 340.85L238.869 343.964C238.635 344.086 238.657 344.309 238.869 344.453L245.096 348.056C245.232 348.126 245.382 348.163 245.535 348.163C245.688 348.163 245.839 348.126 245.974 348.056ZM238.09 352.615L243.484 349.502C243.706 349.368 243.695 349.146 243.484 349.001L237.245 345.398C237.112 345.333 236.966 345.298 236.817 345.298C236.669 345.298 236.522 345.333 236.389 345.398L230.996 348.512C230.773 348.645 230.784 348.868 230.996 349.001L237.234 352.604C237.369 352.666 237.516 352.697 237.665 352.693C237.813 352.689 237.959 352.651 238.09 352.582V352.615ZM253.847 343.508L259.241 340.394C259.474 340.261 259.452 340.038 259.241 339.905L253.013 336.302C252.878 336.236 252.73 336.202 252.58 336.202C252.429 336.202 252.281 336.236 252.146 336.302L246.764 339.416C246.53 339.549 246.542 339.772 246.764 339.916L253.002 343.519C253.137 343.576 253.284 343.602 253.43 343.594C253.576 343.586 253.719 343.546 253.847 343.475V343.508ZM289.898 276.21C290.033 276.278 290.181 276.314 290.332 276.314C290.483 276.314 290.631 276.278 290.766 276.21L296.159 273.096C296.381 272.974 296.37 272.751 296.159 272.607L294.502 271.65C294.368 271.582 294.219 271.546 294.068 271.546C293.918 271.546 293.769 271.582 293.635 271.65L288.242 274.764C288.019 274.898 288.03 275.12 288.242 275.264L289.898 276.21ZM251.134 301.23C251.266 301.298 251.413 301.334 251.562 301.334C251.711 301.334 251.858 301.298 251.99 301.23L257.384 298.116C257.606 297.983 257.595 297.76 257.384 297.616L251.145 294.024C251.013 293.956 250.866 293.92 250.717 293.92C250.568 293.92 250.421 293.956 250.289 294.024L244.896 297.138C244.673 297.271 244.684 297.493 244.896 297.638L251.134 301.23ZM266.88 292.1C267.012 292.168 267.159 292.204 267.308 292.204C267.457 292.204 267.604 292.168 267.736 292.1L273.129 288.987C273.363 288.853 273.341 288.631 273.129 288.486L266.902 284.883C266.767 284.817 266.619 284.783 266.469 284.783C266.318 284.783 266.17 284.817 266.035 284.883L260.642 287.997C260.419 288.13 260.43 288.353 260.642 288.486L266.88 292.1ZM241.493 306.756C241.628 306.822 241.776 306.856 241.927 306.856C242.077 306.856 242.225 306.822 242.36 306.756L247.754 303.643C247.976 303.509 247.965 303.287 247.754 303.142L241.515 299.539C241.382 299.474 241.236 299.44 241.087 299.44C240.939 299.44 240.792 299.474 240.659 299.539L235.266 302.653C235.032 302.775 235.055 302.998 235.266 303.142L241.493 306.756ZM258.996 296.648C259.13 296.717 259.279 296.752 259.43 296.752C259.58 296.752 259.729 296.717 259.863 296.648L265.245 293.535C265.479 293.401 265.468 293.179 265.245 293.034L259.007 289.442C258.875 289.374 258.728 289.339 258.579 289.339C258.43 289.339 258.283 289.374 258.151 289.442L252.758 292.556C252.524 292.69 252.535 292.912 252.758 293.056L258.996 296.648ZM225.736 315.808C225.868 315.876 226.015 315.912 226.164 315.912C226.313 315.912 226.46 315.876 226.592 315.808L231.985 312.694C232.219 312.561 232.208 312.339 231.985 312.194L225.736 308.669C225.604 308.601 225.457 308.565 225.308 308.565C225.159 308.565 225.012 308.601 224.88 308.669L219.487 311.783C219.253 311.916 219.264 312.138 219.487 312.283L225.736 315.808ZM233.631 311.36C233.764 311.428 233.91 311.464 234.059 311.464C234.208 311.464 234.355 311.428 234.487 311.36L239.881 308.246C240.114 308.113 240.092 307.891 239.881 307.746L233.642 304.143C233.509 304.077 233.363 304.043 233.214 304.043C233.066 304.043 232.919 304.077 232.786 304.143L227.393 307.257C227.171 307.39 227.182 307.613 227.393 307.746L233.631 311.36ZM274.141 285.328C274.274 285.396 274.421 285.432 274.569 285.432C274.718 285.432 274.865 285.396 274.998 285.328L280.391 282.214C280.624 282.081 280.613 281.859 280.391 281.714L278.734 280.758C278.602 280.689 278.455 280.654 278.306 280.654C278.157 280.654 278.01 280.689 277.878 280.758L272.484 283.871C272.251 284.005 272.273 284.227 272.484 284.372L274.141 285.328ZM297.783 271.684C297.916 271.75 298.062 271.784 298.211 271.784C298.359 271.784 298.506 271.75 298.639 271.684L304.032 268.57C304.265 268.437 304.254 268.214 304.032 268.081L302.375 267.125C302.243 267.056 302.096 267.021 301.947 267.021C301.798 267.021 301.651 267.056 301.519 267.125L296.126 270.238C295.892 270.372 295.914 270.594 296.126 270.739L297.783 271.684ZM310.882 279.245C311.015 279.311 311.161 279.345 311.31 279.345C311.458 279.345 311.605 279.311 311.738 279.245L317.131 276.132C317.365 275.998 317.343 275.776 317.131 275.643L310.893 272.04C310.761 271.971 310.614 271.936 310.465 271.936C310.316 271.936 310.169 271.971 310.037 272.04L304.644 275.153C304.421 275.287 304.432 275.509 304.644 275.654L310.882 279.245ZM330.575 299.261L335.969 296.148C336.202 296.014 336.18 295.792 335.969 295.647L329.741 292.045C329.606 291.979 329.458 291.944 329.308 291.944C329.157 291.944 329.009 291.979 328.874 292.045L323.481 295.158C323.258 295.292 323.27 295.514 323.481 295.647L329.719 299.25C329.857 299.308 330.006 299.333 330.155 299.321C330.304 299.31 330.448 299.262 330.575 299.184V299.261ZM282.025 280.802C282.159 280.868 282.305 280.902 282.454 280.902C282.602 280.902 282.749 280.868 282.882 280.802L288.275 277.689C288.497 277.555 288.486 277.333 288.275 277.188L286.618 276.232C286.486 276.164 286.339 276.128 286.19 276.128C286.041 276.128 285.894 276.164 285.762 276.232L280.369 279.346C280.135 279.479 280.146 279.701 280.369 279.846L282.025 280.802ZM217.863 320.478C217.997 320.547 218.146 320.582 218.297 320.582C218.447 320.582 218.596 320.547 218.73 320.478L224.124 317.365C224.346 317.231 224.335 317.009 224.124 316.864L217.885 313.273C217.753 313.204 217.606 313.169 217.457 313.169C217.308 313.169 217.161 313.204 217.029 313.273L211.636 316.386C211.402 316.52 211.425 316.742 211.636 316.887L217.863 320.478Z" fill="#455A64"/>
<path d="M252.813 367.705L306.022 336.936C306.922 336.481 307.916 336.243 308.925 336.243C309.933 336.243 310.927 336.481 311.827 336.936L342.34 354.55C343.942 355.484 343.942 356.985 342.34 357.886L289.12 388.666C288.222 389.127 287.227 389.367 286.218 389.367C285.208 389.367 284.213 389.127 283.315 388.666L252.802 371.052C251.212 370.129 251.212 368.628 252.813 367.705Z" fill="#263238"/>
<path d="M264.445 96.9886V105.117L143.337 175.04C142.503 175.518 141.825 175.129 141.825 174.161L141.913 171.248C141.191 170.96 140.448 170.729 139.689 170.559L103.416 191.498C102.974 191.788 102.607 192.177 102.342 192.635C102.078 193.092 101.924 193.605 101.893 194.133V197.202C101.867 197.73 101.717 198.244 101.454 198.702C101.191 199.16 100.823 199.549 100.38 199.838L96.1992 202.251V194.133C96.2246 193.605 96.3749 193.091 96.6378 192.633C96.9008 192.175 97.2687 191.786 97.7115 191.498L262.932 96.1102C263.766 95.632 264.445 96.0212 264.445 96.9886Z" fill="#106D93"/>
<path d="M264.456 218.708C264.428 219.235 264.275 219.747 264.01 220.204C263.745 220.66 263.376 221.047 262.932 221.332L97.7115 316.72C96.8775 317.209 96.1992 316.809 96.1992 315.841V202.251L100.38 199.838C101.214 199.359 102.604 191.987 103.416 191.498L139.689 170.559C140.523 170.08 142.503 175.518 143.337 175.007L264.445 105.117V218.708H264.456Z" fill="#EBEBEB"/>
<path d="M103.416 233.387L175.985 191.453C176.819 190.964 177.497 191.364 177.497 192.332V263.655C177.472 264.183 177.322 264.697 177.059 265.155C176.796 265.613 176.428 266.002 175.985 266.291L103.416 308.224C102.582 308.702 101.904 308.313 101.904 307.346V236.022C101.929 235.494 102.079 234.98 102.342 234.522C102.605 234.064 102.973 233.675 103.416 233.387Z" fill="#FAFAFA"/>
<path d="M103.416 214.549L257.239 125.745C258.073 125.256 258.751 125.656 258.751 126.623V137.31C258.724 137.835 258.573 138.347 258.31 138.803C258.047 139.26 257.68 139.647 257.239 139.934L103.416 228.75C102.582 229.228 101.904 228.838 101.904 227.871V217.185C101.929 216.657 102.079 216.143 102.342 215.685C102.605 215.227 102.973 214.837 103.416 214.549Z" fill="#455A64"/>
<path d="M201.717 166.266V169.091C201.717 169.68 202.128 169.914 202.629 169.624L247.342 143.804V138.867L202.629 164.687C202.364 164.861 202.143 165.094 201.985 165.368C201.826 165.642 201.735 165.95 201.717 166.266Z" fill="#FAFAFA"/>
<path d="M252.135 136.098C252.646 135.809 253.047 136.098 253.047 136.62V139.456C253.031 139.773 252.94 140.081 252.781 140.355C252.623 140.63 252.401 140.863 252.135 141.035L247.342 143.804V138.867L252.135 136.098Z" fill="#106D93"/>
<path d="M251.79 139.979L251.245 139.812C251.303 139.586 251.333 139.355 251.334 139.122C251.354 138.911 251.32 138.697 251.234 138.503C251.149 138.308 251.015 138.138 250.845 138.01C250.727 137.94 250.593 137.902 250.456 137.902C250.319 137.902 250.184 137.94 250.067 138.01C249.718 138.266 249.435 138.601 249.242 138.988C249.049 139.375 248.95 139.802 248.955 140.234C248.936 140.446 248.972 140.658 249.057 140.853C249.143 141.047 249.276 141.217 249.444 141.346C249.55 141.404 249.668 141.435 249.789 141.435C249.942 141.431 250.092 141.385 250.222 141.302C250.622 141.032 250.925 140.643 251.09 140.19L251.623 140.357H251.679C251.721 140.358 251.762 140.346 251.796 140.322C251.83 140.298 251.856 140.263 251.868 140.223C251.886 140.18 251.888 140.131 251.873 140.087C251.859 140.042 251.83 140.004 251.79 139.979ZM250.067 141.002C250.009 141.036 249.944 141.054 249.878 141.054C249.811 141.054 249.746 141.036 249.688 141.002C249.58 140.901 249.498 140.775 249.447 140.636C249.397 140.497 249.381 140.348 249.399 140.201C249.395 139.843 249.47 139.488 249.62 139.163C249.77 138.838 249.991 138.55 250.267 138.322C250.341 138.277 250.425 138.251 250.511 138.244C250.554 138.228 250.602 138.228 250.645 138.244C250.834 138.344 250.934 138.644 250.934 139.033C250.958 139.407 250.891 139.781 250.74 140.123C250.589 140.466 250.358 140.767 250.067 141.002Z" fill="#FAFAFA"/>
<path d="M264.445 105.117V115.003L96.1992 212.136V202.251L99.3239 200.449C100.158 199.96 100.436 199.226 100.836 197.814L101.893 194.133C101.954 193.613 102.121 193.111 102.383 192.658C102.645 192.205 102.996 191.81 103.416 191.498L139.689 170.559C139.851 170.415 140.045 170.312 140.255 170.26C140.465 170.208 140.684 170.207 140.894 170.259C141.104 170.31 141.299 170.412 141.461 170.555C141.623 170.699 141.748 170.879 141.825 171.081L143.126 173.439C143.604 174.262 143.837 174.751 144.671 174.262L264.445 105.117Z" fill="#E6E6E6"/>
<path d="M257.328 102.093C258.44 101.481 259.241 101.97 259.241 103.205C259.208 103.872 259.018 104.523 258.686 105.103C258.353 105.683 257.888 106.176 257.328 106.541C256.216 107.152 255.404 106.652 255.404 105.429C255.435 104.759 255.626 104.107 255.96 103.527C256.295 102.946 256.764 102.455 257.328 102.093Z" fill="#455A64"/>
<path d="M250.434 106.063C251.49 105.451 252.346 105.94 252.346 107.175C252.314 107.842 252.124 108.493 251.791 109.073C251.459 109.653 250.994 110.145 250.434 110.511C249.322 111.122 248.521 110.622 248.521 109.399C248.552 108.731 248.742 108.08 249.075 107.5C249.407 106.92 249.873 106.427 250.434 106.063Z" fill="#455A64"/>
<path d="M243.528 110.088C244.584 109.476 245.441 109.966 245.441 111.2C245.408 111.868 245.218 112.518 244.886 113.098C244.553 113.678 244.088 114.171 243.528 114.536C242.416 115.148 241.615 114.647 241.615 113.424C241.647 112.756 241.836 112.105 242.169 111.525C242.502 110.945 242.967 110.452 243.528 110.088Z" fill="#455A64"/>
<path opacity="0.5" d="M103.171 202.973L100.781 204.341L101.692 202.595C101.727 202.53 101.746 202.458 101.746 202.384C101.746 202.31 101.727 202.238 101.692 202.173C101.615 202.084 101.492 202.173 101.414 202.295L100.125 204.786V204.875C100.119 204.919 100.119 204.964 100.125 205.008C100.118 205.041 100.118 205.075 100.125 205.108V205.164L101.414 206.165C101.435 206.176 101.458 206.181 101.481 206.181C101.504 206.181 101.527 206.176 101.548 206.165C101.609 206.113 101.658 206.048 101.692 205.976C101.73 205.914 101.749 205.842 101.749 205.77C101.749 205.698 101.73 205.626 101.692 205.564L100.781 204.875L103.171 203.496C103.231 203.445 103.279 203.382 103.312 203.311C103.344 203.24 103.361 203.163 103.36 203.085C103.416 202.984 103.271 202.907 103.171 202.973Z" fill="#455A64"/>
<path opacity="0.5" d="M105.162 201.817L107.553 200.438L106.641 199.737C106.563 199.682 106.552 199.493 106.641 199.337C106.73 199.181 106.83 199.092 106.908 199.148L108.209 200.149C108.215 200.186 108.215 200.223 108.209 200.26C108.214 200.304 108.214 200.349 108.209 200.394C108.212 200.423 108.212 200.453 108.209 200.482L106.908 202.973C106.879 203.031 106.837 203.08 106.785 203.118C106.764 203.133 106.739 203.142 106.713 203.142C106.687 203.142 106.662 203.133 106.641 203.118C106.606 203.053 106.587 202.98 106.587 202.907C106.587 202.833 106.606 202.76 106.641 202.695L107.553 200.938L105.162 202.384C105.051 202.451 104.973 202.384 104.973 202.206C104.973 202.131 104.99 202.057 105.023 201.99C105.056 201.923 105.103 201.863 105.162 201.817Z" fill="#455A64"/>
<path opacity="0.5" d="M112.99 194.945C112.99 194.8 112.846 194.822 112.79 194.945L112.457 195.745C111.901 195.679 111.222 196.224 110.766 197.191C110.177 198.448 110.177 199.927 110.766 200.527C110.914 200.667 111.107 200.75 111.31 200.762C111.514 200.775 111.715 200.715 111.878 200.594C112.37 200.28 112.757 199.827 112.99 199.293C113.068 199.126 113.068 198.937 112.99 198.87C112.913 198.803 112.79 198.87 112.723 199.026C112.279 199.96 111.611 200.371 111.122 199.949C110.899 199.578 110.78 199.153 110.78 198.72C110.78 198.287 110.899 197.862 111.122 197.491C111.434 196.824 111.889 196.379 112.234 196.379L111.99 196.98C111.923 197.135 111.99 197.291 112.079 197.224L113.057 196.59C113.094 196.557 113.124 196.516 113.143 196.47C113.162 196.424 113.171 196.374 113.168 196.324L112.99 194.945Z" fill="#455A64"/>
<path opacity="0.5" d="M138.633 175.073L139.512 173.227C139.561 173.141 139.588 173.043 139.588 172.944C139.588 172.844 139.561 172.746 139.512 172.66C139.4 172.56 139.234 172.66 139.133 172.872L138.266 174.717L137.399 173.872C137.288 173.783 137.132 173.872 137.021 174.095C136.971 174.181 136.945 174.279 136.945 174.378C136.945 174.478 136.971 174.576 137.021 174.662L137.888 175.507L137.021 177.342C136.97 177.43 136.943 177.529 136.943 177.631C136.943 177.732 136.97 177.832 137.021 177.92C137.048 177.939 137.081 177.949 137.115 177.949C137.149 177.949 137.182 177.939 137.21 177.92C137.291 177.859 137.357 177.779 137.399 177.686L138.266 175.852L139.133 176.686C139.146 176.698 139.161 176.708 139.177 176.715C139.193 176.721 139.21 176.725 139.228 176.725C139.246 176.725 139.263 176.721 139.279 176.715C139.295 176.708 139.31 176.698 139.322 176.686C139.407 176.633 139.473 176.555 139.512 176.463C139.562 176.375 139.589 176.276 139.589 176.174C139.589 176.073 139.562 175.973 139.512 175.885L138.633 175.073Z" fill="#455A64"/>
<path d="M116.16 197.213V194.133C116.185 193.605 116.335 193.091 116.598 192.633C116.861 192.175 117.229 191.786 117.672 191.498L254.381 112.612C255.215 112.134 255.893 112.523 255.893 113.491V116.571C255.868 117.099 255.718 117.613 255.455 118.071C255.192 118.529 254.824 118.918 254.381 119.206L117.672 198.092C116.838 198.57 116.16 198.181 116.16 197.213Z" fill="#FAFAFA"/>
<path d="M253.536 114.247L253.936 115.092C253.954 115.106 253.975 115.113 253.998 115.113C254.02 115.113 254.041 115.106 254.059 115.092L254.959 114.747C255.093 114.747 255.16 114.892 255.048 115.081L254.403 116.293C254.383 116.369 254.383 116.45 254.403 116.526L254.559 117.638C254.559 117.805 254.426 118.039 254.303 118.028L253.503 117.928C253.471 117.926 253.439 117.934 253.412 117.949C253.384 117.965 253.362 117.988 253.347 118.017L252.546 119.04C252.413 119.195 252.268 119.14 252.291 118.94L252.446 117.672C252.461 117.644 252.469 117.614 252.469 117.583C252.469 117.552 252.461 117.521 252.446 117.494L251.79 117.027C251.69 116.949 251.79 116.682 251.89 116.571L252.78 115.893C252.845 115.838 252.892 115.764 252.913 115.681L253.314 114.38C253.247 114.214 253.425 114.113 253.536 114.247Z" stroke="#E0E0E0" stroke-width="0.75" stroke-miterlimit="10"/>
<g opacity="0.5">
<path d="M257.684 112.245C257.591 112.243 257.501 112.217 257.421 112.171C257.342 112.124 257.275 112.058 257.228 111.978C257.16 111.856 257.142 111.711 257.18 111.576C257.217 111.441 257.306 111.326 257.428 111.256L261.698 108.787C261.817 108.739 261.949 108.735 262.071 108.776C262.192 108.817 262.295 108.901 262.36 109.012C262.425 109.123 262.447 109.253 262.424 109.379C262.4 109.505 262.332 109.619 262.232 109.699L257.984 112.167C257.896 112.227 257.79 112.254 257.684 112.245Z" fill="#455A64"/>
<path d="M257.684 114.714C257.591 114.712 257.501 114.686 257.421 114.639C257.342 114.593 257.275 114.527 257.228 114.447C257.194 114.387 257.173 114.321 257.165 114.253C257.157 114.185 257.162 114.116 257.181 114.05C257.199 113.984 257.231 113.922 257.273 113.868C257.315 113.814 257.368 113.769 257.428 113.735L261.698 111.256C261.817 111.207 261.949 111.203 262.071 111.245C262.192 111.286 262.295 111.37 262.36 111.48C262.425 111.591 262.447 111.722 262.424 111.848C262.4 111.974 262.332 112.087 262.232 112.167L257.984 114.647C257.892 114.697 257.788 114.72 257.684 114.714Z" fill="#455A64"/>
<path d="M257.684 117.183C257.568 117.183 257.456 117.144 257.364 117.074C257.273 117.003 257.207 116.904 257.178 116.792C257.149 116.68 257.157 116.562 257.203 116.455C257.248 116.349 257.327 116.261 257.428 116.204L261.698 113.735C261.757 113.698 261.824 113.673 261.893 113.662C261.962 113.652 262.033 113.655 262.1 113.673C262.168 113.691 262.232 113.722 262.287 113.765C262.342 113.809 262.388 113.863 262.421 113.924C262.49 114.046 262.509 114.189 262.474 114.324C262.439 114.46 262.352 114.575 262.232 114.647L257.984 117.116C257.892 117.166 257.788 117.189 257.684 117.183Z" fill="#455A64"/>
</g>
<path d="M136.654 250.2C142.759 243.984 144.326 241.159 144.326 238.669C144.326 236.178 143.281 234.61 140.034 236.445C137.741 237.726 136.023 239.834 135.23 242.338C135.027 242.864 134.708 243.338 134.296 243.723C133.883 244.108 133.389 244.395 132.851 244.562L128.614 245.496C127.602 245.73 126.924 245.085 127.168 244.073C129.025 236.5 133.707 229.506 140.279 225.714C148.174 221.155 152.778 224.602 152.778 232.297C152.778 239.692 148.886 245.863 144.994 250.3C144.269 251.23 143.846 252.359 143.782 253.536V256.049C143.75 256.612 143.587 257.16 143.305 257.649C143.023 258.138 142.63 258.553 142.158 258.862L136.954 261.865C136.053 262.388 135.33 261.965 135.33 260.931V253.347C135.409 252.18 135.875 251.073 136.654 250.2Z" fill="#455A64"/>
<path d="M135.23 272.295C135.219 270.751 135.61 269.231 136.364 267.884C137.119 266.536 138.211 265.409 139.534 264.612C142.325 262.988 143.782 264.422 143.782 267.358C143.804 268.903 143.425 270.426 142.68 271.78C141.935 273.133 140.851 274.269 139.534 275.075C136.676 276.721 135.23 275.231 135.23 272.295Z" fill="#455A64"/>
<path d="M307.657 71.0345L303.576 68.6549C303.18 68.4646 302.741 68.3858 302.304 68.427C301.867 68.4681 301.449 68.6276 301.096 68.8884L199.493 127.535C198.478 128.197 197.632 129.088 197.026 130.137C196.419 131.186 196.068 132.364 196.001 133.573V279.701C195.962 280.126 196.032 280.553 196.206 280.942C196.379 281.332 196.649 281.67 196.991 281.925L201.105 284.305L301.052 223.034C302.066 222.372 302.909 221.48 303.514 220.431C304.118 219.382 304.467 218.205 304.532 216.996L307.657 71.0345Z" fill="#106D93"/>
<path opacity="0.15" d="M201.038 284.305L196.98 281.959C196.637 281.705 196.366 281.367 196.195 280.977C196.023 280.587 195.956 280.159 196.001 279.735V133.573C196.047 132.292 196.431 131.045 197.113 129.959L201.272 132.328C200.586 133.416 200.202 134.667 200.16 135.953V282.092C200.111 282.505 200.166 282.923 200.319 283.31C200.473 283.696 200.72 284.038 201.038 284.305Z" fill="black"/>
<path d="M203.574 129.926L305.177 71.2681C307.101 70.1561 308.658 71.0568 308.658 73.2808V219.409C308.593 220.618 308.244 221.795 307.639 222.844C307.034 223.893 306.191 224.785 305.177 225.447L203.574 284.105C201.65 285.217 200.082 284.316 200.082 282.092V135.953C200.151 134.745 200.503 133.57 201.109 132.523C201.716 131.476 202.56 130.587 203.574 129.926Z" fill="#106D93"/>
<path opacity="0.4" d="M303.576 68.6549L307.557 70.9567C307.171 70.8176 306.758 70.7733 306.351 70.8275C305.945 70.8817 305.558 71.0328 305.222 71.2681L203.618 129.926C202.652 130.523 201.846 131.348 201.272 132.328L197.146 129.959C197.72 128.973 198.525 128.14 199.493 127.535L301.041 68.944C301.394 68.6839 301.812 68.5256 302.249 68.4864C302.687 68.4472 303.126 68.5285 303.52 68.7216L303.576 68.6549Z" fill="white"/>
<path d="M215.105 135.664L296.47 88.682C297.927 87.8369 299.106 88.5263 299.106 90.2054V215.205C299.056 216.121 298.792 217.011 298.334 217.805C297.876 218.599 297.238 219.274 296.47 219.776L215.105 266.669C213.649 267.503 212.459 266.824 212.459 265.145V140.257C212.503 139.336 212.766 138.439 213.226 137.64C213.686 136.841 214.331 136.164 215.105 135.664Z" fill="white"/>
<path d="M279.579 163.186L280.402 162.508C279.044 161.035 277.279 159.998 275.331 159.528L275.064 160.551C276.791 160.977 278.358 161.892 279.579 163.186Z" fill="#37474F"/>
<path d="M281.392 167.334L279.712 165.688C279.315 165.274 279.093 164.722 279.093 164.148C279.093 163.574 279.315 163.022 279.712 162.608C280.127 162.21 280.678 161.988 281.253 161.988C281.827 161.988 282.379 162.21 282.793 162.608L284.461 164.254C284.858 164.668 285.08 165.22 285.08 165.794C285.08 166.368 284.858 166.92 284.461 167.334C284.047 167.728 283.498 167.948 282.926 167.948C282.355 167.948 281.805 167.728 281.392 167.334Z" fill="#106D93"/>
<mask id="mask0_12_107" style="mask-type:luminance" maskUnits="userSpaceOnUse" x="212" y="88" width="88" height="180">
<path d="M215.105 135.664L296.47 88.682C297.927 87.8369 299.106 88.5263 299.106 90.2054V215.205C299.056 216.121 298.792 217.011 298.334 217.805C297.876 218.599 297.238 219.274 296.47 219.776L215.105 266.669C213.649 267.503 212.459 266.824 212.459 265.145V140.257C212.503 139.336 212.766 138.439 213.226 137.64C213.686 136.841 214.331 136.164 215.105 135.664Z" fill="white"/>
</mask>
<g mask="url(#mask0_12_107)">
<path d="M296.192 205.342L299.951 211.769C299.951 211.769 324.571 198.714 325.961 197.002C327.351 195.289 327.262 191.831 327.473 189.963C327.818 186.849 326.672 184.169 326.506 183.046C326.228 181.089 329.041 180.978 330.431 183.702C331.454 185.682 331.543 187.95 332.41 187.972C333.652 187.1 334.81 186.114 335.869 185.026C337.392 183.358 340.15 180.578 342.24 180.956C342.596 181.038 342.918 181.225 343.166 181.493C343.413 181.761 343.575 182.096 343.63 182.457C343.69 183.606 343.954 184.736 344.409 185.793C344.748 186.194 345.025 186.644 345.232 187.127C345.298 187.845 345.298 188.567 345.232 189.285C345.321 190.319 346.344 190.752 346.455 191.764C346.423 192.544 346.337 193.321 346.199 194.088C346.199 194.589 346.355 195.023 346.355 195.523C346.248 196.55 345.802 197.513 345.087 198.258C343.005 200.685 340.536 202.751 337.781 204.374C335.557 205.842 332.577 207.143 329.997 208.522C327.417 209.901 298.439 232.163 294.58 229.539C293.001 228.427 288.842 223.123 284.472 217.185" fill="#FFA8A7"/>
<path d="M283.56 217.952C279.118 211.768 275.034 205.333 271.328 198.681C266.88 186.227 271.918 177.931 271.918 177.931C271.918 177.931 278.312 175.952 283.638 184.358C285.984 188.061 292.123 198.47 296.148 205.342" fill="#FFA8A7"/>
<path d="M260.731 178.12C260.731 178.12 267.781 175.262 272.351 175.563C276.921 175.863 280.302 177.153 283.66 182.546C288.108 189.741 295.547 202.173 295.547 202.173C292.404 208.637 287.385 214.003 281.147 217.574L267.492 196.98L260.731 178.12Z" fill="#455A64"/>
<path d="M238.357 190.575C236.006 192.468 234.272 195.019 233.376 197.903C232.333 201.387 231.823 205.008 231.863 208.645V232.052L231.563 276.354C246.419 281.414 265.301 276.955 281.147 259.341C281.147 259.341 280.269 202.629 280.269 193.366C280.269 192.943 280.269 192.521 280.269 192.087C279.69 178.954 268.359 172.86 257.195 179.177L247.809 184.47L238.391 190.575H238.357Z" fill="#F0F0F0"/>
<path d="M243.528 136.687C243.528 136.687 236.245 136.12 234.632 142.881C233.153 148.908 244.14 172.705 243.895 172.304C243.65 171.904 243.528 136.687 243.528 136.687Z" fill="#263238"/>
<path d="M269.249 123.076C269.249 123.076 266.546 115.804 253.425 120.974C246.753 123.61 244.251 131.872 244.251 131.872L269.249 123.076Z" fill="#106D93"/>
<path opacity="0.4" d="M269.249 123.076C269.249 123.076 266.546 115.804 253.425 120.974C246.753 123.61 244.251 131.872 244.251 131.872L269.249 123.076Z" fill="black"/>
<path d="M248.532 142.392C248.532 152.4 255.538 158.605 264.189 156.28C272.84 153.956 279.846 144.048 279.846 134.04C279.846 124.032 272.385 124.032 263.733 126.368C255.082 128.703 248.532 132.406 248.532 142.392Z" fill="#263238"/>
<path d="M240.359 158.204C240.359 158.204 242.661 170.103 243.584 171.915C243.862 172.44 244.267 172.887 244.762 173.216C245.258 173.544 245.827 173.743 246.419 173.794L246.264 165.032L240.359 158.204Z" fill="#263238"/>
<path d="M243.25 139.5C242.338 139.648 241.469 139.991 240.701 140.505C239.933 141.02 239.286 141.693 238.802 142.481C236.912 145.227 237.968 151.966 240.337 158.204L244.673 157.615L243.25 139.5Z" fill="#263238"/>
<path d="M246.008 157.27C245.129 158.104 243.895 156.503 242.816 155.491C241.738 154.479 238.235 153.645 236.478 158.371C234.721 163.097 238.024 168.034 240.793 168.301C245.552 168.746 246.264 165.032 246.264 165.032L246.419 185.348C254.415 193.822 268.403 183.836 262.11 180.088V174.05C264.294 173.862 266.448 173.414 268.526 172.716C272.029 171.148 274.23 167.378 275.298 162.708C276.999 155.224 277.644 149.364 276.199 135.942C274.62 121.219 259.352 125.156 251.112 133.351C242.872 141.546 246.008 157.27 246.008 157.27Z" fill="#FFA8A7"/>
<path d="M246.008 159.016C245.563 159.149 243.895 156.403 242.816 155.547C241.315 154.368 243.25 139.556 243.25 139.556C241.515 135.731 244.718 129.959 248.065 127.613C250.47 126.069 253.184 125.071 256.016 124.689C258.418 124.259 260.812 123.929 263.199 123.699C266.118 123.546 269.023 123.197 271.895 122.654C274.143 122.12 276.323 121.329 278.389 120.296C280.213 119.462 281.725 121.341 280.113 124.466C278.67 127.308 276.665 129.827 274.219 131.872C267.125 137.199 258.885 138.477 251.712 139.267C250.1 139.445 249.744 141.346 248.877 146.517C248.11 151.01 247.476 158.538 246.008 159.016Z" fill="#263238"/>
<path d="M237.79 139.623L232.519 137.766C233.264 135.82 235.055 134.663 236.5 135.175C237.946 135.686 238.535 137.677 237.79 139.623Z" fill="#263238"/>
<path d="M262.099 174.05C262.099 174.05 254.315 174.328 251.557 173.383C249.909 172.808 248.551 171.611 247.776 170.047C248.152 171.691 248.885 173.232 249.922 174.562C251.924 176.975 262.099 176.419 262.099 176.419V174.05Z" fill="#F28F8F"/>
<path d="M260.208 151.232C260.202 151.716 260.05 152.187 259.772 152.584C259.494 152.98 259.104 153.284 258.651 153.456C257.795 153.678 257.094 153.022 257.094 151.988C257.087 151.493 257.233 151.007 257.512 150.597C257.79 150.187 258.188 149.873 258.651 149.697C259.519 149.508 260.208 150.12 260.208 151.232Z" fill="#263238"/>
<path d="M257.706 144.393L254.37 147.429C254.136 146.861 254.085 146.234 254.225 145.636C254.364 145.038 254.687 144.499 255.149 144.093C255.313 143.899 255.524 143.748 255.761 143.654C255.998 143.561 256.255 143.528 256.508 143.557C256.761 143.587 257.003 143.679 257.212 143.825C257.421 143.971 257.591 144.166 257.706 144.393Z" fill="#263238"/>
<path d="M261.398 163.386L264.967 163.976C264.865 164.543 264.566 165.056 264.122 165.424C263.679 165.792 263.12 165.992 262.543 165.988C261.554 165.833 261.042 164.665 261.398 163.386Z" fill="#F28F8F"/>
<path d="M274.586 141.458L271.528 139.556C272.162 138.444 273.341 137.855 274.186 138.377C274.615 138.755 274.891 139.276 274.965 139.842C275.039 140.409 274.904 140.983 274.586 141.458Z" fill="#263238"/>
<path d="M273.252 147.195C273.26 147.694 273.114 148.183 272.834 148.595C272.553 149.008 272.151 149.323 271.684 149.497C270.817 149.72 270.116 149.064 270.116 148.029C270.108 147.532 270.255 147.045 270.536 146.635C270.816 146.224 271.218 145.911 271.684 145.739C272.551 145.505 273.252 146.161 273.252 147.195Z" fill="#263238"/>
<path d="M265.512 147.818L265.69 158.738L271.306 155.802L265.512 147.818Z" fill="#F28F8F"/>
<path d="M214.827 256.872C219.209 211.836 226.292 195.834 237.39 191.353C241.115 194.266 241.715 207.555 237.501 217.529C237.501 217.529 228.227 247.398 227.493 257.561C227.025 267.067 227.378 276.595 228.549 286.04C228.609 286.607 228.787 287.156 229.073 287.65C229.358 288.145 229.744 288.573 230.206 288.909C232.575 290.532 232.364 292.801 234.032 294.991C235.344 296.704 236.589 297.037 236.256 297.66C235.978 298.283 235.496 298.793 234.889 299.104C234.282 299.415 233.588 299.51 232.92 299.373C231.856 299.004 230.871 298.438 230.017 297.705C230.644 300.102 231.634 302.39 232.953 304.488C235.955 309.347 235.733 312.561 228.371 313.462C223.757 314.029 220.476 311.093 218.441 299.517C217.863 296.181 216.44 290.176 215.895 285.862C214.316 273.552 214.116 264.122 214.827 256.872Z" fill="#FFA8A7"/>
<path d="M240.57 189.218C240.57 189.218 232.497 191.82 228.338 198.281C224.179 204.741 220.02 215.194 216.862 233.865C216.862 233.865 221.755 240.915 235.11 235.477C235.11 235.477 241.437 211.725 242.183 202.284C242.95 191.987 240.57 189.218 240.57 189.218Z" fill="#455A64"/>
<path d="M248.076 123.432C240.526 128.158 237.267 133.896 237.078 140.813C237.012 145.564 237.202 150.315 237.646 155.046C236.223 156.07 235.051 157.402 234.215 158.942C233.38 160.483 232.903 162.192 232.819 163.942C232.819 168.624 236.611 171.404 241.293 170.147C243.642 169.452 245.718 168.046 247.236 166.122C248.753 164.198 249.637 161.852 249.766 159.405C249.862 157.886 249.387 156.387 248.435 155.2C247.483 154.013 246.121 153.224 244.618 152.989C243.672 146.383 243.691 139.674 244.673 133.073C246.353 123.065 265.056 117.294 269.249 123.065C267.992 118.083 258.573 116.816 248.076 123.432Z" fill="#106D93"/>
<path opacity="0.15" d="M248.076 123.432C240.526 128.158 237.267 133.896 237.078 140.813C237.012 145.564 237.202 150.315 237.646 155.046C236.223 156.07 235.051 157.402 234.215 158.942C233.38 160.483 232.903 162.192 232.819 163.942C232.819 168.624 236.611 171.404 241.293 170.147C243.642 169.452 245.718 168.046 247.236 166.122C248.753 164.198 249.637 161.852 249.766 159.405C249.862 157.886 249.387 156.387 248.435 155.2C247.483 154.013 246.121 153.224 244.618 152.989C243.672 146.383 243.691 139.674 244.673 133.073C246.353 123.065 265.056 117.294 269.249 123.065C267.992 118.083 258.573 116.816 248.076 123.432Z" fill="black"/>
<path d="M245.352 160.584C245.375 160.086 245.275 159.59 245.061 159.141C244.846 158.691 244.523 158.302 244.121 158.008C243.719 157.714 243.25 157.524 242.756 157.455C242.263 157.387 241.76 157.441 241.293 157.615C240.167 157.949 239.173 158.623 238.446 159.545C237.719 160.467 237.296 161.591 237.234 162.763C237.217 163.259 237.323 163.751 237.541 164.195C237.76 164.64 238.085 165.024 238.487 165.314C238.89 165.603 239.357 165.788 239.849 165.854C240.34 165.919 240.84 165.862 241.304 165.688C242.421 165.356 243.41 164.688 244.134 163.775C244.858 162.862 245.283 161.748 245.352 160.584Z" fill="#106D93"/>
</g>
<path d="M181.323 232.03C181.14 232.208 180.972 232.402 180.822 232.608C180.555 232.937 180.355 233.315 180.233 233.72C180.152 233.954 180.152 234.209 180.233 234.443C180.263 234.609 180.344 234.761 180.466 234.877C180.525 234.944 180.592 235.004 180.667 235.055L176.586 232.697C176.422 232.606 176.287 232.471 176.196 232.308C176.132 232.153 176.098 231.987 176.098 231.819C176.098 231.651 176.132 231.484 176.196 231.329C176.285 231.053 176.413 230.791 176.574 230.551C176.785 230.234 177.023 229.937 177.286 229.661L181.323 232.03Z" fill="#106D93"/>
<path d="M181.356 231.985C179.232 234.209 179.977 235.711 183.024 235.321L200.082 233.353V212.525L181.356 231.985Z" fill="#106D93"/>
<path d="M181.356 231.985C180.011 233.387 179.822 234.499 180.622 235.043L176.541 232.686C175.685 232.152 175.874 231.018 177.231 229.595L195.968 210.168L200.093 212.559L181.356 231.985Z" fill="#106D93"/>
<path opacity="0.15" d="M181.323 232.03C181.14 232.208 180.972 232.402 180.822 232.608C180.564 232.943 180.365 233.319 180.233 233.72C180.168 233.957 180.168 234.206 180.233 234.443C180.265 234.608 180.347 234.759 180.466 234.877C180.525 234.944 180.592 235.004 180.667 235.055L176.586 232.697C176.422 232.606 176.287 232.471 176.196 232.308C176.132 232.153 176.098 231.987 176.098 231.819C176.098 231.651 176.132 231.484 176.196 231.329C176.29 231.055 176.417 230.794 176.574 230.551C176.785 230.234 177.023 229.937 177.286 229.661L181.323 232.03Z" fill="black"/>
<path opacity="0.4" d="M200.093 212.525L181.356 231.985L177.219 229.595L195.968 210.168L200.093 212.525Z" fill="white"/>
<path d="M296.192 205.342L299.951 211.769C299.951 211.769 324.571 198.714 325.961 197.002C327.351 195.289 327.262 191.831 327.473 189.963C327.818 186.849 326.672 184.169 326.505 183.046C326.172 180.656 329.608 181.212 330.698 182.157C331.413 182.919 332.01 183.785 332.466 184.725C333 185.615 334 188.517 335.023 188.695C335.824 188.84 337.414 187.706 338.07 187.216C340.772 185.17 342.44 182.335 344.52 179.744C344.89 179.186 345.405 178.74 346.01 178.454C346.541 178.348 347.089 178.364 347.613 178.501C348.137 178.638 348.623 178.892 349.035 179.243C349.911 179.733 350.67 180.409 351.259 181.223C351.618 181.832 351.873 182.498 352.015 183.191C353.127 187.906 350.703 191.887 347.845 195.423C344.977 198.901 341.576 201.903 337.77 204.319C335.546 205.787 332.566 207.088 329.986 208.467C327.406 209.846 299.762 233.008 295.892 230.384C291.266 226.785 287.121 222.607 283.56 217.952" fill="#FFA8A7"/>
<path d="M477.804 165.165C486.7 165.165 491.371 167.834 495.062 176.052C498.599 183.914 509.574 206.721 509.029 212.247C508.484 217.774 485.944 241.304 485.944 241.304L479.506 233.52L493.472 210.057L479.717 190.152L477.804 165.165Z" fill="#FFA8A7"/>
<path d="M456.209 407.17C456.209 407.17 457.21 410.206 457.755 412.874C458.188 414.987 458.8 418.512 458.055 420.102C457.31 421.693 454.43 422.716 449.96 422.682C447.057 422.682 442.543 424.628 439.451 426.363C436.36 428.098 429.61 428.854 426.23 428.454C422.249 427.987 418.123 425.674 417.478 424.006C416.833 422.338 416.288 420.102 427.075 416.644C427.164 416.644 440.118 412.396 444.655 407.381L456.209 407.17Z" fill="#263238"/>
<path d="M456.209 407.47L454.152 407.214L444.655 407.403C440.118 412.419 427.164 416.644 427.075 416.666L425.351 417.245C423.472 418.757 425.062 421.326 429.51 421.693C433.958 422.06 447.825 417.423 450.894 415.944C452.504 415.196 453.863 413.998 454.806 412.494C455.749 410.99 456.237 409.245 456.209 407.47Z" fill="#FFA8A7"/>
<path d="M456.209 403.389C456.209 403.389 456.209 405.98 456.209 407.47C456.209 408.96 454.474 411.162 449.937 410.995C446.757 410.884 444.533 410.028 444.655 407.403V403.656L456.209 403.389Z" fill="#FFA8A7"/>
<path d="M486.656 390.123C487.468 390.457 487.634 392.036 487.668 395.16C487.668 397.518 488.101 401.654 485.31 402.411C482.519 403.167 478.483 402.622 476.77 400.353C474.635 397.518 473.201 395.027 470.098 391.546C467.44 388.533 464.538 385.708 463.559 381.538C462.659 377.78 463.559 376.19 466.106 375.167C468.652 374.143 470.999 374.989 474.557 377.958C475.55 378.63 476.612 379.193 477.726 379.637C480.095 380.382 485.833 389.789 486.656 390.123Z" fill="#263238"/>
<path d="M486.734 387.232L486.622 391.068C486.622 391.068 484.065 396.083 476.937 391.068C476.781 390.69 476.136 383.284 476.136 383.284L486.734 387.232Z" fill="#FFA8A7"/>
<path d="M477.76 379.659C476.646 379.215 475.583 378.652 474.591 377.98C471.722 377.057 465.695 378.124 468.397 382.306C470.661 385.743 473.559 388.717 476.937 391.068C480.162 392.658 481.285 390.69 481.285 390.69L480.173 381.694C479.531 380.843 478.707 380.148 477.76 379.659Z" fill="#FFA8A7"/>
<path d="M491.938 334.212C490.514 321.635 487.79 314.374 487.79 314.374C487.79 314.374 490.203 297.449 492.093 281.225C496.541 243.117 493.583 242.505 488.201 229.25C488.201 229.25 439.351 222.967 437.305 243.283C434.759 268.581 435.915 317.643 436.338 326.617C436.76 335.59 437.45 339.649 440.163 358.442C442.187 372.754 444.111 404.034 444.111 404.034C450.516 407.726 456.676 403.389 456.676 403.389C456.676 403.389 462.803 364.925 462.659 354.572C462.534 346.909 461.413 339.295 459.323 331.921C459.323 331.921 463.482 290.688 464.538 284.105C464.538 284.105 465.717 297.26 466.15 306.234C466.584 315.208 469.008 323.826 471.154 340.539C473.011 354.995 476.103 385.275 476.103 385.275C482.508 388.966 486.978 387.298 486.978 387.298C486.978 387.298 493.35 346.777 491.938 334.212Z" fill="#106D93"/>
<path d="M457.132 156.937L458.922 175.93L475.602 174.873L474.268 153.812L457.132 156.937Z" fill="#FFA8A7"/>
<path d="M490.592 173.227C488.891 168.201 485.444 165.254 477.804 165.165L474.991 165.254C474.457 168.057 466.239 170.325 458.122 167.478C457.01 167.779 453.841 168.357 452.073 168.59L448.181 169.157C442.276 171.092 439.663 181.389 439.096 197.636C438.528 213.882 436.093 248.721 436.093 248.721C436.093 248.721 448.803 255.526 468.864 252.891C486.823 250.534 493.806 239.914 493.183 241.271C491.078 232.259 487.967 223.512 483.909 215.194C493.361 191.942 493.105 180.689 490.592 173.227Z" fill="#455A64"/>
<path d="M458.922 253.469C462.246 253.504 465.568 253.304 468.864 252.869C485.232 250.723 492.483 241.749 493.161 241.159C491.058 232.178 487.954 223.462 483.909 215.172C488.691 203.429 490.981 194.756 491.76 188.073C490.981 192.943 483.787 211.803 474.368 217.463C474.368 217.463 479.684 218.286 484.232 224.535C488.78 230.784 485.043 252.124 458.922 253.469Z" fill="#37474F"/>
<path d="M452.073 168.568C444.233 169.558 437.483 170.959 434.625 178.654C430.855 189.133 425.072 198.774 417.601 207.032C412.73 212.247 392.736 222.233 388.233 221.488C383.729 220.743 379.67 214.327 377.357 215.661C375.044 216.996 380.115 221.577 379.837 222.711C379.559 223.846 371.441 221.488 367.605 218.764C363.769 216.039 361.489 223.857 366.493 229.706C371.497 235.555 380.86 236.011 391.046 233.976C401.232 231.941 419.847 225.892 427.242 218.997C436.938 209.934 438.706 205.008 442.91 197.202C456.298 186.816 452.073 168.568 452.073 168.568Z" fill="#FFA8A7"/>
<path d="M448.403 133.351C448.403 133.351 442.109 125.845 447.046 118.528C452.873 109.899 463.126 106.986 475.803 110.744C482.074 112.601 491.293 121.275 491.76 133.44C492.116 142.814 465.828 149.008 466.251 155.435L448.403 133.351Z" fill="#263238"/>
<path d="M444.8 136.098C444.8 136.098 441.108 141.658 441.586 142.28C442.453 142.848 443.413 143.259 444.422 143.492L444.8 136.098Z" fill="#F28F8F"/>
<path d="M456.042 118.406C452.451 120.263 446.246 123.688 444.644 136.921C443.01 150.498 446.034 155.213 447.88 156.992C449.137 158.193 455.586 158.627 459 157.582C463.215 156.28 472.344 151.777 476.603 144.771C481.629 136.52 482.664 125.534 476.859 121.219C468.641 115.159 459.078 116.838 456.042 118.406Z" fill="#FFA8A7"/>
<path d="M454.986 118.984C454.986 118.984 451.85 131.372 455.598 139.2C455.598 139.2 457.822 134.363 461.947 135.753C466.073 137.143 465.75 142.725 462.459 145.572C461.619 146.391 460.564 146.955 459.417 147.199C458.269 147.444 457.076 147.357 455.976 146.951C455.976 146.951 456.087 153.812 461.947 156.525C461.947 156.525 474.179 162.385 485.299 150.554C495.307 139.812 494.051 120.53 479.25 115.648C464.449 110.766 454.986 118.984 454.986 118.984Z" fill="#263238"/>
<path d="M504.781 171.248C502.448 171.248 500.138 170.787 497.983 169.892C495.828 168.997 493.871 167.686 492.224 166.033C490.577 164.38 489.273 162.418 488.386 160.26C487.499 158.101 487.047 155.789 487.056 153.456V130.727C491.754 130.727 496.26 132.593 499.582 135.915C502.904 139.237 504.77 143.743 504.77 148.441L504.781 171.248Z" fill="#263238"/>
<path d="M445.445 113.424C439.941 118.984 439.629 135.23 455.598 139.211L466.062 110.533C459.968 106.563 450.36 108.398 445.445 113.424Z" fill="#263238"/>
<path d="M453.996 143.626C453.596 143.493 453.227 143.281 452.91 143.003C452.593 142.725 452.334 142.387 452.15 142.007C451.966 141.628 451.86 141.215 451.838 140.794C451.816 140.373 451.879 139.952 452.022 139.555C452.165 139.159 452.386 138.795 452.673 138.485C452.959 138.176 453.304 137.927 453.688 137.752C454.072 137.578 454.487 137.483 454.909 137.472C455.33 137.461 455.75 137.534 456.142 137.688L453.996 143.626Z" fill="#263238"/>
<path opacity="0.1" d="M464.56 284.127L467.218 267.125C472.571 266.484 477.722 264.693 482.319 261.876C482.319 261.876 478.983 266.891 470.198 268.982L467.485 288.675L466.373 309.303L464.56 284.127Z" fill="black"/>
</svg>
