<svg width="732" height="485" viewBox="0 0 732 485" fill="none" xmlns="http://www.w3.org/2000/svg">
<path d="M179.32 384.877C189.91 377.534 193.472 368.484 194.683 355.709C195.244 349.297 194.415 342.841 192.251 336.775C190.088 330.709 186.64 325.175 182.141 320.546C174.616 312.903 164.261 307.878 158.649 298.741C152.676 289.041 152.881 275.742 144.585 267.866C138.885 262.463 130.55 261.017 123.62 257.273C117.969 254.218 113.323 249.659 108.151 245.856C102.978 242.054 96.8387 238.901 90.4264 239.377C80.7542 240.104 73.2195 249.542 72.7608 259.174C72.3021 268.806 77.7091 278.021 85.1072 284.259C90.4752 288.788 97.0827 292.251 100.596 298.314C107.194 309.692 100.304 325.474 107.428 336.59C112.601 344.69 124.342 348.56 125.972 358.017C126.568 361.5 125.572 365.04 125.601 368.571C125.689 379.6 136.064 388.495 146.995 390.444C157.927 392.394 169.063 388.999 179.36 384.877" fill="#F5F5F5"/>
<path d="M111.391 278.148C111.73 278.618 112.119 279.051 112.552 279.438L116.066 282.949C117.618 284.443 119.492 286.296 121.522 288.585C123.552 290.874 126.041 293.309 128.442 296.345C129.681 297.819 130.979 299.361 132.346 300.972C133.712 302.582 134.952 304.367 136.328 306.151C139.139 309.692 141.784 313.737 144.653 317.927C150.625 327.179 155.931 336.838 160.532 346.833C164.999 356.904 168.743 367.277 171.737 377.873C172.986 382.791 174.275 387.437 175.075 391.88C175.504 394.092 176.051 396.206 176.334 398.282C176.617 400.358 176.949 402.327 177.232 404.228C177.896 408.011 178.12 411.474 178.462 414.51C178.803 417.546 178.979 420.156 179.076 422.27C179.174 424.385 179.301 425.946 179.379 427.207C179.385 427.789 179.454 428.367 179.584 428.934C179.661 428.362 179.684 427.784 179.652 427.207C179.652 425.937 179.652 424.297 179.594 422.251C179.535 420.204 179.496 417.459 179.203 414.413C178.911 411.367 178.774 407.885 178.169 404.073C177.902 402.133 177.625 400.135 177.339 398.078C177.046 396.003 176.558 393.859 176.148 391.638C175.397 387.156 174.196 382.481 172.918 377.524C169.967 366.851 166.222 356.411 161.713 346.29C157.082 336.213 151.712 326.486 145.648 317.19C142.72 313 140.046 308.955 137.177 305.424C135.771 303.639 134.483 301.864 133.117 300.264L129.154 295.666C126.695 292.688 124.176 290.253 122.059 288.032C119.941 285.811 118.037 283.987 116.427 282.542L112.738 279.205C112.321 278.814 111.87 278.46 111.391 278.148Z" fill="#E0E0E0"/>
<path d="M653.978 196.153C653.978 196.153 644.667 190.033 633.317 212.168C621.966 234.304 617.701 247.088 617.701 247.088C617.701 247.088 614.694 251.725 611.493 248.689C608.292 245.653 603.9 237.049 598.454 238.61C592.803 240.211 590.939 246.477 592.012 255.692C593.086 264.907 594.706 285.161 594.852 286.994C594.999 288.827 593.945 291.446 591.436 289.729C588.928 288.012 574.444 271.988 567.202 279.273C559.96 286.557 567.202 311.719 567.944 314.484C568.686 317.248 568.139 318.432 566.812 319.12C565.485 319.809 561.141 313.96 556.837 309.566C552.533 305.172 546.765 300.836 542.939 305.385C539.113 309.934 537.893 328.82 555.978 359.492L565.289 373.159L581.95 372.238C617.476 368.115 631.901 355.747 633.258 350.005C634.615 344.263 627.646 342.245 621.546 341.498C615.446 340.751 608.116 340.78 607.882 339.325C607.648 337.87 608.253 336.716 610.917 335.639C613.582 334.563 638.167 325.154 639.651 315.027C641.134 304.9 619.555 303.057 616.666 302.097C613.777 301.137 615.27 298.712 616.803 297.742C618.335 296.772 635.6 285.82 643.652 281.135C651.704 276.45 655.608 271.193 653.5 265.741C651.46 260.484 641.905 262.181 637.543 261.464C633.18 260.746 635.093 255.576 635.093 255.576C635.093 255.576 642.706 244.44 653.647 222.13C664.588 199.82 653.783 196.047 653.783 196.047" fill="#EBEBEB"/>
<path d="M643.779 215.961C643.779 215.961 643.721 216.126 643.574 216.436C643.428 216.747 643.204 217.222 642.93 217.823C642.335 219.055 641.476 220.83 640.383 223.119C638.158 227.727 634.908 234.362 630.857 242.519C622.747 258.893 611.337 281.416 598.717 306.248C586.098 331.08 574.62 353.584 566.441 369.919L556.769 389.261C555.627 391.531 554.749 393.306 554.134 394.528C553.831 395.11 553.607 395.556 553.441 395.886L553.187 396.342C553.187 396.342 553.246 396.177 553.392 395.867L554.036 394.48C554.631 393.248 555.49 391.463 556.584 389.174C558.799 384.576 562.059 377.941 566.109 369.774C574.22 353.4 585.629 330.877 598.259 306.035C610.888 281.193 622.337 258.709 630.525 242.384L640.197 223.032L642.833 217.775C643.135 217.193 643.36 216.737 643.526 216.417C643.691 216.097 643.779 215.961 643.779 215.961Z" fill="#E0E0E0"/>
<path d="M604.076 250.861C604.257 251.22 604.398 251.597 604.495 251.987C604.739 252.714 605.052 253.781 605.471 255.1C606.223 257.739 607.17 261.405 608.136 265.479C609.102 269.553 609.932 273.123 610.576 275.907L611.337 279.059C611.464 279.439 611.542 279.834 611.571 280.233C611.39 279.875 611.249 279.497 611.152 279.108C610.908 278.38 610.595 277.313 610.224 275.994C609.502 273.346 608.604 269.66 607.638 265.596C606.672 261.531 605.784 257.962 605.12 255.188C604.808 253.936 604.544 252.889 604.339 252.035C604.205 251.656 604.117 251.262 604.076 250.861Z" fill="#E0E0E0"/>
<path d="M613.065 280.524C613.065 280.388 620.551 278.118 629.881 275.451C639.212 272.783 646.795 270.737 646.834 270.872C646.873 271.008 639.348 273.278 630.018 275.946C620.687 278.613 613.104 280.66 613.065 280.524Z" fill="#E0E0E0"/>
<path d="M591.895 317.791C592.303 317.735 592.714 317.716 593.125 317.733H596.453C599.274 317.733 603.158 317.733 607.443 317.559C611.728 317.384 615.602 317.132 618.413 316.909L621.732 316.647C622.14 316.606 622.552 316.606 622.961 316.647C622.571 316.77 622.169 316.851 621.761 316.889C620.98 317.006 619.809 317.151 618.442 317.306C615.641 317.626 611.767 317.956 607.462 318.111C603.158 318.267 599.264 318.228 596.453 318.111C595.038 318.053 593.906 317.995 593.115 317.937C592.704 317.935 592.295 317.887 591.895 317.791Z" fill="#E0E0E0"/>
<path d="M577.792 292.746C578.045 293.025 578.261 293.335 578.436 293.667L580.047 296.286C581.384 298.498 583.199 301.583 585.18 305.016C587.162 308.45 588.928 311.554 590.187 313.814L591.651 316.511C591.851 316.829 592.008 317.171 592.12 317.529C591.871 317.247 591.655 316.938 591.476 316.608L589.865 313.999C588.528 311.777 586.713 308.693 584.731 305.269C582.75 301.845 580.984 298.741 579.734 296.471C579.158 295.413 578.661 294.531 578.27 293.774C578.068 293.453 577.908 293.107 577.792 292.746Z" fill="#E0E0E0"/>
<path d="M554.944 323.291C555.254 323.663 555.529 324.062 555.764 324.484L557.833 327.821C559.56 330.654 561.922 334.611 564.499 338.947C567.076 343.283 569.379 347.27 571.038 350.141C571.819 351.528 572.463 352.682 572.99 353.565C573.248 353.976 573.464 354.411 573.634 354.865C573.327 354.491 573.053 354.092 572.814 353.672L570.745 350.325C569.018 347.493 566.656 343.535 564.079 339.209C561.503 334.883 559.199 330.886 557.54 328.006L555.588 324.581C555.331 324.173 555.116 323.741 554.944 323.291Z" fill="#E0E0E0"/>
<path d="M573.38 353.982C573.893 353.896 574.413 353.861 574.932 353.875L579.158 353.73C582.73 353.614 587.659 353.429 593.086 353.08C598.512 352.731 603.431 352.285 606.984 351.935L611.2 351.528C611.714 351.453 612.233 351.424 612.752 351.441C612.251 351.582 611.738 351.679 611.22 351.732C610.244 351.887 608.799 352.081 607.033 352.304C603.48 352.741 598.571 353.274 593.125 353.584C587.679 353.895 582.74 354.069 579.168 354.098C577.382 354.098 575.938 354.098 574.932 354.098C574.412 354.109 573.893 354.07 573.38 353.982Z" fill="#E0E0E0"/>
<path d="M453.323 84.7877H520.325C521.726 84.7877 523.069 85.3406 524.059 86.3247C525.049 87.3089 525.605 88.6436 525.605 90.0354V134.161C525.605 135.552 525.049 136.887 524.059 137.871C523.069 138.856 521.726 139.408 520.325 139.408H485.072L468.295 156.083V139.408H453.323C452.287 139.408 451.294 139 450.562 138.272C449.83 137.544 449.419 136.557 449.419 135.528V88.6774C449.417 88.1671 449.517 87.6615 449.713 87.1896C449.909 86.7178 450.196 86.2889 450.559 85.9276C450.921 85.5662 451.352 85.2796 451.826 85.084C452.301 84.8884 452.809 84.7877 453.323 84.7877Z" fill="#E0E0E0"/>
<path d="M475.556 113.024C475.556 113.792 475.327 114.542 474.898 115.18C474.469 115.818 473.859 116.315 473.146 116.609C472.433 116.903 471.648 116.98 470.89 116.83C470.133 116.68 469.437 116.311 468.891 115.768C468.346 115.225 467.974 114.534 467.823 113.781C467.672 113.029 467.75 112.249 468.045 111.54C468.341 110.831 468.841 110.225 469.483 109.798C470.125 109.372 470.88 109.144 471.652 109.144C472.687 109.144 473.68 109.553 474.413 110.281C475.145 111.008 475.556 111.995 475.556 113.024Z" fill="#FAFAFA"/>
<path d="M491.152 113.024C491.152 113.792 490.924 114.542 490.495 115.18C490.066 115.818 489.456 116.315 488.742 116.609C488.029 116.903 487.244 116.98 486.487 116.83C485.73 116.68 485.034 116.311 484.488 115.768C483.942 115.225 483.57 114.534 483.419 113.781C483.269 113.029 483.346 112.249 483.642 111.54C483.937 110.831 484.438 110.225 485.08 109.798C485.722 109.372 486.476 109.144 487.248 109.144C488.284 109.144 489.277 109.553 490.009 110.281C490.741 111.008 491.152 111.995 491.152 113.024Z" fill="#FAFAFA"/>
<path d="M506.739 113.024C506.739 113.792 506.51 114.542 506.081 115.18C505.652 115.818 505.042 116.315 504.329 116.609C503.616 116.903 502.831 116.98 502.074 116.83C501.316 116.68 500.621 116.311 500.075 115.768C499.529 115.225 499.157 114.534 499.006 113.781C498.856 113.029 498.933 112.249 499.228 111.54C499.524 110.831 500.024 110.225 500.666 109.798C501.308 109.372 502.063 109.144 502.835 109.144C503.871 109.144 504.864 109.553 505.596 110.281C506.328 111.008 506.739 111.995 506.739 113.024Z" fill="#FAFAFA"/>
<path d="M562.176 417.954C545.408 401.745 545.116 376.67 549.488 354.904C550.21 351.266 550.464 347.347 552.719 344.418C554.973 341.489 559.443 339.956 562.479 342.032C565.007 343.758 565.68 347.114 566.783 349.976C568.256 353.792 570.783 357.117 574.074 359.569C576.221 361.15 578.954 362.363 581.52 361.509C584.975 360.277 586.069 355.98 586.644 352.343C587.705 345.553 588.772 338.763 589.846 331.973C590.422 328.335 591.027 324.61 592.725 321.303C594.423 317.995 597.478 315.24 601.119 314.833C604.759 314.426 608.741 317.122 608.927 320.798C608.995 322.331 608.439 323.825 608.292 325.348C608.146 326.871 608.575 328.665 609.951 329.315C611.327 329.965 612.977 329.189 614.246 328.297C618.628 325.231 621.966 320.915 625.138 316.598C628.31 312.282 631.423 307.868 635.503 304.386C639.583 300.904 644.853 298.566 650.143 299.08C655.433 299.594 660.498 303.755 660.986 309.09C661.474 314.425 657.609 319.149 653.647 322.768C647.779 328.143 641.158 332.646 633.99 336.134C632.702 336.765 631.306 337.444 630.643 338.714C629.452 341.013 631.375 343.797 633.649 344.98C636.235 346.329 639.241 346.523 642.042 347.328C644.843 348.133 647.723 349.869 648.367 352.731C649.255 356.688 645.488 360.083 641.984 362.14C634.979 366.255 627.312 369.139 619.321 370.666C616.471 371.209 613.465 371.636 611.015 373.14C608.565 374.643 606.682 377.728 607.58 380.502C608.478 383.276 611.698 384.644 614.607 384.586C617.515 384.527 620.287 383.402 623.137 382.83C628.486 381.763 634.927 383.16 637.435 388C639.095 391.182 638.626 395.168 636.996 398.389C635.366 401.609 632.721 404.16 629.979 406.479C620.375 414.578 608.809 420.476 596.473 422.6C584.136 424.724 573.146 424.074 562.244 417.983" fill="#106D93"/>
<path d="M559.248 434.153C561.939 424.154 565.59 414.435 570.15 405.13C575.767 393.787 582.036 382.776 588.928 372.15L594.296 363.75C596.063 360.995 597.82 358.269 599.703 355.709C603.321 350.79 607.212 346.075 611.357 341.585C615.261 337.269 619.165 333.321 622.834 329.654C626.504 325.988 629.989 322.651 633.297 319.731C638.484 315.099 644.032 310.883 649.889 307.121C651.968 305.792 653.608 304.813 654.769 304.211L656.048 303.474C656.191 303.387 656.341 303.313 656.497 303.251C656.366 303.356 656.229 303.454 656.087 303.542L654.837 304.328C653.744 305.007 652.124 306.025 650.075 307.383C644.279 311.209 638.778 315.46 633.619 320.1C630.34 323.01 626.885 326.395 623.244 330.072C619.604 333.748 615.739 337.705 611.835 342.022C607.714 346.496 603.843 351.191 600.24 356.087C598.376 358.638 596.639 361.354 594.862 364.109C593.086 366.864 591.319 369.667 589.504 372.48C582.631 383.092 576.359 394.077 570.716 405.382C566.148 414.644 562.465 424.313 559.717 434.259" fill="#263238"/>
<path d="M599.908 355.699C599.815 355.168 599.779 354.628 599.801 354.089C599.801 353.051 599.801 351.557 599.801 349.695C599.869 345.989 600.152 340.877 600.484 335.242C600.816 329.606 601.031 324.494 601.05 320.798C601.05 318.946 601.05 317.452 601.05 316.414C601.007 315.877 601.027 315.337 601.109 314.804C601.237 315.328 601.306 315.865 601.314 316.404C601.412 317.433 601.49 318.936 601.539 320.789C601.646 324.494 601.539 329.625 601.177 335.271C600.816 340.916 600.523 345.873 600.289 349.714C600.191 351.45 600.113 352.915 600.055 354.099C600.062 354.636 600.013 355.172 599.908 355.699Z" fill="#263238"/>
<path d="M648.415 354.583C647.763 354.615 647.11 354.586 646.463 354.496C645.234 354.409 643.457 354.273 641.271 354.176C636.879 353.934 630.808 353.827 624.103 353.992C617.398 354.157 611.337 354.583 606.955 355.01C604.769 355.204 603.051 355.418 601.782 355.553C601.138 355.663 600.484 355.712 599.83 355.699C600.44 355.5 601.067 355.361 601.704 355.282C602.914 355.068 604.632 354.787 606.867 354.525C611.249 353.972 617.32 353.478 624.054 353.303C629.793 353.141 635.536 353.271 641.261 353.691C643.457 353.856 645.234 354.06 646.454 354.234C647.118 354.282 647.775 354.4 648.415 354.583Z" fill="#263238"/>
<path d="M570.882 404.364C570.882 404.364 570.775 404.16 570.648 403.743C570.521 403.326 570.335 402.647 570.121 401.92C569.672 400.338 569.076 398.04 568.383 395.13C566.988 389.407 565.319 381.433 563.591 372.616C561.864 363.799 560.273 355.815 559.004 350.063C558.379 347.27 557.862 344.971 557.472 343.273C557.315 342.526 557.179 341.915 557.072 341.421C557.011 341.206 556.978 340.984 556.974 340.761C556.974 340.761 557.081 340.965 557.208 341.382C557.335 341.799 557.52 342.478 557.735 343.205C558.184 344.787 558.779 347.085 559.472 349.995C560.858 355.718 562.537 363.692 564.265 372.519C565.992 381.346 567.583 389.309 568.852 395.062L570.374 401.852C570.54 402.589 570.677 403.21 570.784 403.704C570.846 403.919 570.879 404.141 570.882 404.364Z" fill="#263238"/>
<path d="M636.713 394.46C636.499 394.539 636.276 394.591 636.05 394.615L634.098 394.926L627.041 395.993C621.088 396.905 612.879 398.253 603.812 399.747C594.745 401.241 586.576 402.55 580.574 403.307C577.587 403.704 575.167 403.995 573.488 404.16L571.536 404.345C571.313 404.381 571.086 404.381 570.863 404.345C571.076 404.264 571.299 404.212 571.526 404.189L573.478 403.879L580.525 402.812C586.479 401.9 594.696 400.552 603.763 399.058C612.831 397.564 621.058 396.284 627.041 395.498C630.028 395.1 632.448 394.809 634.127 394.645L636.079 394.46C636.289 394.434 636.503 394.434 636.713 394.46Z" fill="#263238"/>
<path d="M111.869 341.44C117.149 340.033 122.927 341.362 127.573 344.214C132.153 347.238 135.973 351.267 138.738 355.99C144.35 364.904 146.273 376.845 146.459 387.36C134.747 386.817 124.752 377.592 119.99 372.596C112.465 364.701 103.671 345.892 111.869 341.479" fill="#106D93"/>
<path d="M165.305 394.441C160.503 390.697 158.385 384.101 159.449 378.125C160.057 375.143 161.256 372.311 162.977 369.795C164.698 367.278 166.906 365.128 169.473 363.469C171.805 361.888 174.704 360.646 177.407 361.461C178.655 361.917 179.756 362.698 180.595 363.722C181.435 364.746 181.982 365.975 182.18 367.281C182.553 369.908 182.216 372.586 181.204 375.041C178.188 383.528 173.708 391.191 165.305 394.518" fill="#106D93"/>
<path d="M175.963 427.702C175.486 427.132 175.092 426.499 174.792 425.82C174.118 424.579 173.162 422.755 172.059 420.476C169.058 414.536 166.871 408.223 165.559 401.706C164.173 393.946 165.188 386.71 167.14 381.967C167.862 380.073 168.827 378.28 170.009 376.632C170.4 375.998 170.891 375.432 171.464 374.953C171.669 375.08 169.58 377.524 167.921 382.258C165.904 388.471 165.495 395.09 166.73 401.502C168.038 407.921 170.082 414.17 172.82 420.126C174.841 424.763 176.119 427.624 175.963 427.702Z" fill="#263238"/>
<path d="M119.833 355.175C120.759 355.971 121.611 356.848 122.381 357.794C123.962 359.531 126.207 362.082 128.949 365.263C134.424 371.617 141.852 380.531 149.816 390.571C157.78 400.61 164.739 409.874 169.678 416.664C172.147 420.059 174.118 422.823 175.446 424.763C176.184 425.727 176.837 426.753 177.398 427.828C176.546 426.958 175.765 426.02 175.065 425.025L168.994 417.158C163.89 410.504 156.814 401.328 148.869 391.298C140.925 381.268 133.605 372.286 128.295 365.797L122 358.085C121.199 357.176 120.474 356.202 119.833 355.175Z" fill="#263238"/>
<path d="M157.38 407.4C152.302 403.435 146.347 400.73 140.008 399.509C133.668 398.288 127.127 398.585 120.927 400.377C117.794 401.347 114.309 403.219 113.997 406.459C113.685 409.699 116.739 412.279 119.687 413.705C125.881 416.627 132.806 417.66 139.591 416.677C146.375 415.693 152.714 412.735 157.81 408.176" fill="#106D93"/>
<path d="M128.725 406.314C129.371 406.013 130.058 405.807 130.764 405.702C131.573 405.498 132.395 405.349 133.224 405.256C134.313 405.082 135.411 404.968 136.513 404.917C139.391 404.753 142.279 404.88 145.131 405.295C152.151 406.312 158.834 408.943 164.651 412.977C167.014 414.617 169.205 416.489 171.19 418.565C171.966 419.348 172.693 420.177 173.367 421.048C173.909 421.678 174.405 422.345 174.85 423.046C175.291 423.6 175.649 424.214 175.914 424.87C175.729 425.005 174.05 422.493 170.595 419.147C168.569 417.199 166.375 415.433 164.036 413.87C161.15 411.99 158.087 410.392 154.891 409.097C151.674 407.866 148.343 406.953 144.946 406.372C142.162 405.916 139.343 405.708 136.523 405.751C131.76 405.848 128.773 406.537 128.725 406.314Z" fill="#263238"/>
<path d="M289.277 91.3449L281.088 98.1349L277.106 96.3695L276.286 93.0133C276.286 93.0133 285.07 86.5628 284.748 86.2233C283.927 85.44 282.865 84.9547 281.732 84.8459C279.622 84.5749 277.489 85.1432 275.798 86.427L274.256 87.5813C272.842 88.6129 271.745 90.0142 271.085 91.6291C270.425 93.244 270.229 95.0093 270.518 96.7284C270.532 96.8296 270.552 96.93 270.577 97.0291L246.304 117.079C244.667 116.539 242.898 116.553 241.27 117.118C239.643 117.682 238.249 118.767 237.306 120.201C236.364 121.636 235.925 123.34 236.06 125.048C236.194 126.756 236.893 128.372 238.048 129.644C239.203 130.916 240.749 131.772 242.445 132.078C244.141 132.385 245.892 132.126 247.424 131.34C248.956 130.555 250.183 129.287 250.915 127.736C251.646 126.184 251.84 124.436 251.467 122.763L275.466 102.742C276.42 103.567 277.648 104.01 278.912 103.984C280.118 104.007 281.317 103.787 282.436 103.336C283.555 102.886 284.571 102.216 285.422 101.365L287.452 99.425C288.459 98.366 289.161 97.0564 289.482 95.6343C289.803 94.2122 289.732 92.7303 289.277 91.3449ZM242.429 127.691C241.781 127.404 241.233 126.933 240.855 126.337C240.477 125.741 240.285 125.047 240.304 124.343C240.323 123.639 240.552 122.956 240.962 122.381C241.372 121.806 241.944 121.365 242.606 121.113C243.268 120.861 243.991 120.811 244.682 120.968C245.373 121.124 246.002 121.482 246.489 121.994C246.976 122.506 247.299 123.15 247.417 123.845C247.535 124.54 247.443 125.254 247.153 125.896C246.961 126.327 246.684 126.715 246.34 127.039C245.996 127.362 245.591 127.615 245.148 127.782C244.705 127.949 244.233 128.026 243.76 128.011C243.286 127.995 242.821 127.886 242.39 127.691H242.429Z" fill="#106D93"/>
<path d="M325.984 137.614L299.847 139.787L299.935 139.738C295.476 145.042 289.924 149.332 283.654 152.319C277.383 155.306 270.541 156.92 263.588 157.053C257.829 157.132 252.098 156.229 246.645 154.385C240.748 152.377 235.299 149.251 230.6 145.18C225.458 140.744 221.307 135.287 218.414 129.161C215.522 123.035 213.951 116.375 213.803 109.61C213.734 108.725 213.734 107.837 213.803 106.952C213.803 106.07 213.9 105.177 213.939 104.285C213.995 103.392 214.109 102.505 214.281 101.627L214.72 98.94C214.906 98.0573 215.159 97.1843 215.374 96.3113C215.589 95.4383 215.794 94.5362 216.096 93.6826C216.399 92.829 216.721 91.9754 217.072 91.1218L217.541 89.8317C217.697 89.4049 217.931 88.9975 218.117 88.5804C221.031 82.2209 225.272 76.5502 230.561 71.9449C235.512 67.5988 241.308 64.3088 247.59 62.2783C253.872 60.2477 260.506 59.52 267.083 60.14C275.512 60.9186 283.594 63.8596 290.537 68.675C297.48 73.4904 303.045 80.0151 306.689 87.6104C307.25 88.6732 307.733 89.7755 308.133 90.9084C308.533 92.0239 308.953 93.1103 309.324 94.2064C309.955 96.3456 310.447 98.5229 310.798 100.725C310.944 101.792 311.149 102.83 311.237 103.868C311.325 104.906 311.334 105.934 311.383 106.933C311.383 107.437 311.383 107.903 311.461 108.427C311.539 108.95 311.412 109.397 311.393 109.891C311.393 110.861 311.305 111.831 311.256 112.724V112.636C320.519 128.273 325.506 136.683 326.043 137.604L311.012 112.792C311.051 111.873 311.09 110.932 311.129 109.969C311.129 109.484 311.178 108.999 311.188 108.514C311.198 108.029 311.139 107.544 311.11 107.03C311.061 106.06 311.003 105.022 310.954 103.984C310.905 102.946 310.641 101.928 310.495 100.861C310.144 98.6779 309.652 96.52 309.021 94.4004C308.65 93.314 308.231 92.2373 307.821 91.1315C307.42 90.0099 306.941 88.9176 306.386 87.8626C303.187 81.1502 298.465 75.2672 292.59 70.677C286.715 66.0868 279.848 62.9145 272.53 61.41C265.212 59.9056 257.642 60.1099 250.417 62.007C243.192 63.9041 236.508 67.4422 230.892 72.3426C225.666 76.9129 221.474 82.5333 218.595 88.8326C218.4 89.2497 218.175 89.6377 218.019 90.0645L217.551 91.3449L216.575 93.8766C216.272 94.7302 216.106 95.6129 215.862 96.4762C215.618 97.3395 215.394 98.2028 215.208 99.0758C215.023 99.9488 214.945 100.841 214.808 101.714C214.644 102.586 214.533 103.467 214.476 104.353C214.427 105.235 214.379 106.108 214.339 106.991C214.276 107.866 214.276 108.745 214.339 109.62C214.561 119.432 217.795 128.943 223.607 136.877C229.419 144.812 237.532 150.792 246.86 154.017C252.263 155.847 257.939 156.749 263.647 156.684C270.543 156.564 277.334 154.979 283.563 152.034C289.792 149.089 295.314 144.854 299.759 139.612H299.818L325.984 137.614Z" fill="#263238"/>
<path d="M553.597 177.015H183.8C175.947 177.015 169.58 183.343 169.58 191.148V424.618C169.58 432.423 175.947 438.75 183.8 438.75H553.597C561.451 438.75 567.817 432.423 567.817 424.618V191.148C567.817 183.343 561.451 177.015 553.597 177.015Z" fill="#455A64"/>
<path d="M153.486 419.389H584.946V425.025C584.946 429.604 583.116 433.996 579.858 437.234C576.6 440.472 572.181 442.291 567.573 442.291H170.859C168.577 442.291 166.318 441.844 164.21 440.977C162.103 440.109 160.187 438.837 158.574 437.234C156.961 435.631 155.681 433.727 154.808 431.632C153.935 429.538 153.486 427.292 153.486 425.025V419.389Z" fill="#455A64"/>
<path d="M556.574 187.414H180.833V408.438H556.574V187.414Z" fill="#F5F5F5"/>
<path d="M329.995 419.389H331.674H336.554L354.757 419.312L415.63 419.186H416.079L415.854 419.574C415.093 420.873 414.263 422.27 413.443 423.686C412.624 425.103 411.706 426.596 410.886 428.032L410.808 428.158H410.662L335.324 428.022H335.256V427.964L331.352 421.591L330.376 419.971L330.054 419.438L330.435 420C330.679 420.388 331.03 420.922 331.489 421.62C332.406 423.046 333.763 425.132 335.51 427.848L335.412 427.789L410.75 427.654L410.525 427.78L413.082 423.424C413.912 422.018 414.732 420.611 415.503 419.312L415.717 419.7L355.098 419.564L336.72 419.447H331.733H330.435L329.995 419.389Z" fill="#263238"/>
<path fill-rule="evenodd" clip-rule="evenodd" d="M318.323 228.532C319.008 227.625 319.812 226.812 320.714 226.117L320.148 223.022L324.959 220.976L326.814 223.527C327.944 223.376 329.09 223.376 330.22 223.527L332.016 220.947L336.896 222.887L336.398 225.991C337.309 226.674 338.126 227.473 338.828 228.367L341.942 227.805L344.001 232.587L341.434 234.43C341.586 235.553 341.586 236.692 341.434 237.815L344.03 239.609L342.078 244.459L338.965 243.965C338.277 244.873 337.473 245.688 336.574 246.39L337.14 249.474L332.328 251.521L330.474 248.97C329.34 249.12 328.191 249.12 327.058 248.97L325.262 251.56L320.382 249.62L320.88 246.516C319.964 245.835 319.143 245.036 318.44 244.139L315.336 244.702L313.296 239.881L315.863 238.038C315.707 236.915 315.707 235.776 315.863 234.653L313.296 232.858L315.248 228.008L318.371 228.503L318.323 228.532ZM323.534 233.906C323.114 234.926 323.008 236.048 323.229 237.128C323.45 238.209 323.988 239.2 324.775 239.977C325.563 240.754 326.564 241.281 327.653 241.492C328.742 241.703 329.87 241.589 330.893 241.164C331.917 240.738 332.791 240.021 333.404 239.102C334.018 238.184 334.344 237.105 334.34 236.002C334.337 234.9 334.005 233.823 333.387 232.907C332.768 231.992 331.89 231.28 330.864 230.86C330.182 230.581 329.451 230.438 328.713 230.44C327.975 230.442 327.244 230.589 326.564 230.872C325.883 231.155 325.265 231.569 324.745 232.089C324.225 232.61 323.814 233.227 323.534 233.906Z" fill="#E0E0E0"/>
<path fill-rule="evenodd" clip-rule="evenodd" d="M298.812 328.83C300.799 326.197 303.125 323.836 305.732 321.807L304.083 312.844L318.03 306.937L323.408 314.319C326.683 313.843 330.008 313.804 333.294 314.202L338.496 306.714L352.57 312.34L351.116 321.322C353.768 323.294 356.144 325.606 358.182 328.2L367.201 326.57L373.144 340.47L365.717 345.805C366.197 349.061 366.233 352.366 365.824 355.631L373.369 360.811L367.708 374.789L358.67 373.343C356.687 375.978 354.36 378.34 351.751 380.366L353.39 389.329L339.443 395.246L334.075 387.864C330.799 388.337 327.474 388.372 324.188 387.971L318.986 395.459L304.912 389.843L306.367 380.851C303.713 378.883 301.336 376.57 299.3 373.974L290.282 375.613L284.328 361.752L291.756 356.407C291.281 353.154 291.244 349.853 291.648 346.591L284.114 341.44L289.765 327.453L298.812 328.898V328.83ZM313.901 344.408C312.701 347.376 312.413 350.63 313.073 353.761C313.734 356.891 315.314 359.756 317.613 361.994C319.913 364.231 322.828 365.741 325.991 366.332C329.154 366.923 332.422 366.568 335.382 365.313C338.342 364.058 340.86 361.959 342.62 359.281C344.379 356.603 345.3 353.466 345.266 350.268C345.231 347.07 344.244 343.954 342.427 341.313C340.611 338.673 338.047 336.628 335.061 335.436C333.078 334.645 330.957 334.25 328.82 334.274C326.683 334.298 324.572 334.74 322.607 335.575C320.642 336.41 318.862 337.622 317.368 339.141C315.874 340.66 314.696 342.456 313.901 344.428V344.408Z" fill="#F5F5F5"/>
<path d="M236.68 356.135C236.897 355.44 237.226 354.785 237.656 354.195C238.829 352.511 240.554 351.284 242.536 350.723C244.016 350.296 245.58 350.25 247.083 350.589C248.585 350.929 249.976 351.642 251.125 352.663C251.799 353.243 252.378 353.924 252.843 354.68C253.335 355.463 253.701 356.317 253.926 357.212C254.426 359.106 254.299 361.11 253.565 362.927C252.83 364.743 251.526 366.277 249.846 367.3C248.296 368.262 246.49 368.738 244.664 368.668C243.011 368.609 241.406 368.106 240.018 367.213C238.551 366.267 237.389 364.922 236.671 363.338C235.953 361.754 235.709 359.998 235.968 358.279C236.069 357.544 236.29 356.83 236.622 356.165C236.431 356.871 236.278 357.586 236.163 358.308C235.934 360.285 236.373 362.282 237.412 363.983C238.172 365.232 239.235 366.272 240.503 367.007C241.772 367.743 243.206 368.15 244.674 368.193C246.396 368.242 248.094 367.783 249.554 366.873C251.146 365.909 252.385 364.462 253.088 362.746C253.79 361.029 253.92 359.134 253.458 357.338C253.036 355.66 252.122 354.144 250.832 352.983C249.663 351.943 248.239 351.227 246.704 350.907C245.362 350.635 243.975 350.678 242.653 351.033C240.707 351.54 238.989 352.68 237.773 354.273C237.002 355.408 236.739 356.165 236.68 356.135Z" fill="#263238"/>
<path d="M228.384 347.522H228.072L227.096 347.396L223.348 346.843L223.436 346.785L220.352 354.545L220.303 354.39L224.49 357.232L224.558 357.29V357.377C224.346 359.17 224.373 360.984 224.636 362.77V362.867L224.548 362.935L220.449 365.894L220.508 365.68L223.826 373.334L223.602 373.217L228.589 372.305H228.716L228.794 372.412C229.92 373.831 231.234 375.094 232.698 376.166L232.815 376.244V376.379C232.571 377.922 232.298 379.619 232.025 381.355L231.878 381.103L239.686 384.207L239.403 384.295L242.282 380.143L242.36 380.027H242.507C244.304 380.241 246.122 380.218 247.914 379.959H248.06L248.148 380.075L251.125 384.159L250.822 384.081L258.542 380.803L258.386 381.084C258.094 379.512 257.791 377.825 257.479 376.127V375.972L257.596 375.875C259.021 374.771 260.292 373.483 261.373 372.043L261.47 371.917H261.627L266.634 372.722L266.35 372.878C267.405 370.291 268.449 367.704 269.483 365.118L269.571 365.418L265.404 362.508L265.277 362.421V362.276C265.496 360.49 265.477 358.683 265.218 356.902V356.756L265.345 356.669L269.454 353.759L269.366 354.05L266.087 346.377L266.35 346.523L261.353 347.415H261.217L261.129 347.299C260.002 345.877 258.689 344.612 257.225 343.535L257.118 343.458V343.322C257.401 341.615 257.664 339.966 257.928 338.346L258.064 338.578L250.256 335.455L250.49 335.387L247.562 339.519L247.494 339.616H247.387C245.586 339.377 243.761 339.377 241.96 339.616H241.863L241.804 339.539C240.73 338.055 239.754 336.716 238.876 335.445L239.052 335.494L231.312 338.782L231.38 338.656C231.732 340.596 232.025 342.264 232.259 343.622V343.671C231.175 344.508 230.172 345.443 229.262 346.465L228.609 347.241L228.384 347.493C228.438 347.394 228.5 347.3 228.57 347.212C228.706 347.027 228.911 346.756 229.194 346.406C230.069 345.356 231.051 344.397 232.122 343.545V343.622C231.859 342.274 231.556 340.645 231.146 338.666V338.578H231.234L238.935 335.271H239.052L239.12 335.368L242.107 339.442L241.941 339.374C243.767 339.104 245.622 339.078 247.455 339.296L247.289 339.374C248.197 338.055 249.144 336.677 250.159 335.222L250.246 335.096L250.393 335.154L258.201 338.249L258.367 338.307V338.472C258.103 340.092 257.84 341.741 257.566 343.448L257.479 343.235C258.965 344.349 260.298 345.654 261.441 347.115L261.217 347.037L266.204 346.125H266.39L266.468 346.3C267.528 348.796 268.628 351.35 269.766 353.963L269.845 354.147L269.679 354.263L265.579 357.173L265.677 356.941C265.946 358.763 265.965 360.613 265.736 362.44L265.628 362.208L269.806 365.069L269.971 365.186L269.893 365.37L266.77 373.13L266.692 373.314H266.487L261.48 372.519L261.734 372.412C260.611 373.885 259.298 375.206 257.83 376.341L257.918 376.088C258.23 377.796 258.543 379.483 258.835 381.045V381.249L258.64 381.21L250.92 384.479L250.734 384.557L250.617 384.401L247.689 380.308L247.924 380.415C246.089 380.673 244.228 380.689 242.39 380.463L242.624 380.366L239.696 384.508L239.589 384.663L239.413 384.595L231.605 381.472L231.429 381.404V381.22C231.712 379.493 231.995 377.796 232.239 376.253L232.327 376.467C230.859 375.35 229.546 374.046 228.423 372.587L228.628 372.664L223.641 373.557H223.485L223.416 373.411C222.265 370.715 221.175 368.154 220.147 365.729L220.088 365.603L220.205 365.515L224.324 362.605L224.256 362.77C223.996 360.954 223.98 359.111 224.207 357.29L224.275 357.435L220.117 354.525L220.03 354.467V354.37C221.328 351.227 222.391 348.628 223.202 346.61V346.552H223.26L226.969 347.182L227.945 347.357L228.384 347.522Z" fill="#263238"/>
<path fill-rule="evenodd" clip-rule="evenodd" d="M209.274 245.158C210.863 240.896 213.023 236.866 215.696 233.178L209.967 221.975L226.061 208.705L236.085 216.368C240.225 214.46 244.604 213.112 249.105 212.362L253.009 200.421L273.827 202.361L275.466 214.816C279.74 216.391 283.784 218.524 287.491 221.16L298.764 215.476L312.105 231.471L304.405 241.423C306.31 245.535 307.659 249.88 308.416 254.344L320.421 258.224L318.469 278.914L305.937 280.534C304.385 284.796 302.265 288.831 299.632 292.533L305.352 303.736L289.257 317.006L279.234 309.352C275.085 311.246 270.7 312.577 266.194 313.31L262.29 325.251L241.472 323.311L239.833 310.866C235.545 309.313 231.485 307.199 227.76 304.58L216.497 310.264L203.145 294.269L210.816 284.317C208.903 280.2 207.547 275.848 206.785 271.377L194.781 267.497L196.733 246.807L209.255 245.177L209.274 245.158ZM235.382 259.844C234.966 264.239 235.872 268.658 237.984 272.542C240.096 276.425 243.32 279.599 247.248 281.661C251.176 283.722 255.631 284.579 260.049 284.124C264.467 283.668 268.65 281.919 272.068 279.1C275.486 276.28 277.986 272.516 279.251 268.284C280.515 264.052 280.488 259.543 279.173 255.326C277.857 251.109 275.313 247.375 271.861 244.597C268.409 241.818 264.206 240.119 259.782 239.716C253.862 239.176 247.969 240.992 243.395 244.766C238.82 248.539 235.939 253.962 235.382 259.844Z" fill="#E0E0E0"/>
<path d="M567.817 419.389C567.817 419.525 478.66 419.632 368.713 419.632C258.767 419.632 169.609 419.525 169.609 419.389C169.609 419.253 258.747 419.156 368.713 419.156C478.679 419.156 567.817 419.263 567.817 419.389Z" fill="#263238"/>
<path d="M353.624 122.016C347.485 124.694 343.913 131.28 342.576 137.808C341.239 144.336 341.668 151.087 341.093 157.732C340.517 164.376 338.682 171.312 333.802 175.88C329.254 180.148 322.568 181.885 318.693 186.764C317.248 188.58 316.29 190.732 315.91 193.017C315.53 195.302 315.74 197.645 316.521 199.828C317.301 202.01 318.626 203.959 320.372 205.493C322.118 207.028 324.227 208.096 326.501 208.599C323.437 213.449 324.969 220.151 328.893 224.313C332.816 228.474 338.565 230.462 344.235 231.316C354.21 232.829 364.848 231.161 373.271 225.641C381.694 220.122 387.589 210.539 387.57 200.518" fill="#263238"/>
<path d="M327.028 220.549C326.556 219.889 326.19 219.159 325.945 218.386C325.256 216.275 325.122 214.025 325.555 211.848C325.839 210.344 326.311 208.881 326.96 207.493C327.741 205.924 328.687 204.441 329.781 203.07C332.384 200.04 335.205 197.204 338.223 194.582C341.153 191.893 343.895 189.008 346.431 185.949C348.507 183.456 350.273 180.723 351.692 177.811C352.636 175.845 353.35 173.779 353.82 171.651C354.005 170.904 354.054 170.303 354.142 169.905C354.162 169.697 354.208 169.492 354.278 169.294C354.3 169.501 354.3 169.709 354.278 169.915C354.22 170.322 354.2 170.933 354.044 171.69C353.642 173.855 352.967 175.96 352.034 177.956C350.651 180.917 348.9 183.693 346.822 186.221C344.295 189.321 341.549 192.239 338.604 194.951C335.595 197.554 332.777 200.368 330.171 203.37C329.082 204.703 328.142 206.151 327.37 207.687C326.712 209.033 326.23 210.458 325.935 211.926C325.478 214.056 325.558 216.265 326.17 218.357C326.412 219.104 326.699 219.836 327.028 220.549Z" fill="#455A64"/>
<path d="M427.039 143.929C427.039 152.891 431.197 161.107 434.935 164.134C440.235 168.402 448.004 170.468 453.118 171.894C460.575 173.96 466.782 180.449 467.758 188.093C468.734 195.736 463.659 203.894 456.163 205.815C460.877 210.597 459.472 218.822 455.597 224.245C448.248 234.614 433.578 238.601 421.437 234.759C409.295 230.918 399.965 220.209 396.315 208.055" fill="#263238"/>
<path d="M445.583 232.218C446.614 231.996 447.59 231.571 448.452 230.967C449.447 230.244 450.267 229.309 450.853 228.231C451.65 226.817 452.092 225.234 452.142 223.614C452.131 221.653 451.61 219.728 450.629 218.027C449.501 216.067 448.015 214.333 446.247 212.915C442.548 209.821 437.521 207.89 432.661 205.155C430.266 203.816 428.093 202.118 426.219 200.121C425.329 199.157 424.571 198.081 423.965 196.92C423.389 195.806 422.962 194.622 422.696 193.399C422.262 191.136 422.156 188.823 422.383 186.531C422.549 184.387 422.823 182.418 423.008 180.604C423.429 177.771 423.383 174.887 422.871 172.068C422.745 171.583 422.627 171.157 422.52 170.769C422.413 170.381 422.257 170.099 422.169 169.847C422.06 169.597 421.965 169.341 421.886 169.081C422.034 169.31 422.158 169.554 422.257 169.808C422.364 170.06 422.53 170.351 422.657 170.72L423.057 172.03C423.65 174.863 423.749 177.776 423.35 180.643C423.184 182.457 422.93 184.436 422.784 186.56C422.574 188.829 422.693 191.115 423.135 193.35C423.672 195.784 424.858 198.029 426.571 199.849C428.415 201.808 430.551 203.473 432.905 204.786C437.716 207.532 442.772 209.491 446.569 212.663C448.372 214.122 449.882 215.905 451.019 217.92C452.028 219.695 452.546 221.702 452.522 223.74C452.457 225.411 451.978 227.041 451.127 228.484C450.5 229.577 449.637 230.518 448.599 231.238C447.939 231.678 447.21 232.006 446.442 232.208C446.157 232.24 445.869 232.243 445.583 232.218Z" fill="#455A64"/>
<path d="M463.151 202.313C463.691 201.586 464.009 200.721 464.069 199.82C464.101 198.768 463.859 197.725 463.366 196.794C462.741 195.55 461.786 194.5 460.604 193.758C459.116 192.927 457.483 192.384 455.792 192.157C453.977 191.837 451.996 191.721 449.936 191.4C445.416 190.682 441.109 188.991 437.317 186.444C433.515 183.901 430.328 180.552 427.986 176.637C426.1 173.438 424.805 169.929 424.16 166.277C423.707 163.825 423.572 161.324 423.76 158.838C423.803 158.165 423.882 157.495 423.994 156.83C424.012 156.595 424.057 156.364 424.131 156.141C424.18 156.141 424.014 157.111 423.945 158.857C423.683 165.011 425.219 171.108 428.367 176.414C430.697 180.252 433.841 183.539 437.58 186.046C441.321 188.548 445.557 190.225 450.005 190.964C452.054 191.294 454.045 191.43 455.861 191.759C457.583 192.013 459.241 192.596 460.741 193.476C461.968 194.257 462.949 195.367 463.571 196.677C464.063 197.653 464.285 198.741 464.215 199.83C464.157 200.518 463.937 201.183 463.571 201.77C463.444 201.954 463.317 202.09 463.239 202.187L463.151 202.313Z" fill="#455A64"/>
<path d="M358.007 249.009C359.295 235.613 360.398 221.49 360.398 221.49C360.398 221.49 343.327 216.931 341.961 194.068C340.653 172.272 349.115 123.054 349.115 123.054C375.106 115.372 404.035 124.994 419.875 146.615L407.636 255.256C406.221 267.866 394.177 276.692 380.601 275.073C366.898 273.433 356.787 261.774 358.007 249.009Z" fill="#B78876"/>
<path d="M351.711 162.397C351.633 163.147 351.851 163.898 352.319 164.492C352.787 165.085 353.468 165.475 354.22 165.579C354.586 165.645 354.963 165.638 355.326 165.557C355.69 165.476 356.033 165.324 356.336 165.109C356.64 164.893 356.896 164.62 357.091 164.304C357.286 163.988 357.414 163.637 357.47 163.27C357.548 162.52 357.33 161.77 356.862 161.176C356.394 160.583 355.713 160.193 354.961 160.089C354.595 160.022 354.219 160.03 353.855 160.111C353.491 160.191 353.148 160.344 352.845 160.559C352.542 160.775 352.285 161.048 352.09 161.364C351.896 161.68 351.767 162.031 351.711 162.397Z" fill="#263238"/>
<path d="M347.32 158.702C347.642 159.119 350.004 157.732 353.127 158.023C356.25 158.314 358.387 160.118 358.768 159.769C358.953 159.614 358.651 158.905 357.724 158.081C356.463 157.016 354.901 156.366 353.254 156.219C351.635 156.051 350.004 156.39 348.588 157.189C347.554 157.868 347.163 158.517 347.32 158.702Z" fill="#263238"/>
<path d="M383.646 166.074C383.568 166.825 383.788 167.577 384.258 168.171C384.727 168.765 385.411 169.154 386.164 169.255C386.531 169.322 386.907 169.314 387.271 169.234C387.634 169.153 387.978 169 388.281 168.785C388.584 168.569 388.841 168.296 389.036 167.98C389.23 167.664 389.359 167.313 389.414 166.947C389.493 166.197 389.275 165.446 388.807 164.852C388.339 164.259 387.658 163.869 386.906 163.765C386.539 163.699 386.162 163.706 385.798 163.787C385.434 163.867 385.089 164.02 384.785 164.235C384.482 164.45 384.224 164.724 384.029 165.04C383.833 165.355 383.703 165.707 383.646 166.074Z" fill="#263238"/>
<path d="M379.82 163.018C380.142 163.435 382.504 162.048 385.627 162.349C388.751 162.65 390.888 164.434 391.269 164.085C391.444 163.94 391.152 163.222 390.224 162.397C388.963 161.335 387.402 160.684 385.754 160.535C384.136 160.367 382.504 160.706 381.089 161.505C380.055 162.184 379.664 162.834 379.82 163.018Z" fill="#263238"/>
<path d="M366.195 184.95C366.195 184.775 364.321 184.252 361.208 183.543C360.417 183.379 359.685 183.146 359.597 182.573C359.616 181.747 359.884 180.946 360.368 180.275L363.296 174.455C367.425 166.18 370.499 159.342 370.128 159.177C369.758 159.012 366.176 165.598 362.047 173.873C361.071 175.919 360.095 177.859 359.178 179.693C358.585 180.6 358.33 181.684 358.456 182.758C358.539 183.051 358.692 183.321 358.9 183.546C359.109 183.77 359.368 183.942 359.656 184.048C360.086 184.211 360.535 184.319 360.993 184.368C364.204 184.921 366.166 185.125 366.195 184.95Z" fill="#263238"/>
<path d="M360.398 221.49C371.045 222.699 381.821 220.942 391.522 216.417C391.522 216.417 382.592 231.161 360.144 226.835L360.398 221.49Z" fill="#AA6550"/>
<path d="M366.781 192.564C367.449 191.878 368.281 191.372 369.199 191.094C370.118 190.816 371.093 190.774 372.032 190.974C372.715 191.106 373.364 191.372 373.943 191.757C374.521 192.142 375.016 192.637 375.399 193.214C375.766 193.775 375.95 194.433 375.928 195.101C375.905 195.769 375.676 196.414 375.272 196.949C374.716 197.458 374.018 197.79 373.27 197.9C372.522 198.011 371.757 197.896 371.075 197.57C369.651 196.909 368.374 195.972 367.318 194.815C366.994 194.543 366.722 194.214 366.517 193.845C366.419 193.663 366.378 193.456 366.399 193.25C366.419 193.044 366.502 192.849 366.635 192.691" fill="#AA6550"/>
<path d="M375.184 187.996C374.677 187.918 374.335 191.284 371.192 193.399C368.05 195.513 364.478 194.786 364.409 195.251C364.341 195.455 365.151 195.988 366.674 196.221C368.656 196.445 370.655 195.964 372.315 194.863C373.914 193.811 375.035 192.178 375.438 190.314C375.76 188.869 375.419 187.996 375.184 187.996Z" fill="#263238"/>
<path d="M409.1 170.633C411.577 170.354 414.083 170.76 416.342 171.806C417.469 172.332 418.481 173.074 419.318 173.99C420.156 174.905 420.803 175.976 421.222 177.141C421.936 179.535 421.706 182.108 420.578 184.339C419.445 186.549 417.832 188.481 415.854 189.994C414.51 191.171 412.905 192.016 411.169 192.458C410.3 192.673 409.391 192.67 408.524 192.448C407.656 192.226 406.858 191.793 406.202 191.187" fill="#B78876"/>
<path d="M408.993 185.357C408.71 185.415 409.618 186.977 411.921 186.599C413.136 186.304 414.187 185.548 414.849 184.494C415.636 183.318 416.183 181.999 416.459 180.614C416.775 179.143 416.561 177.608 415.854 176.278C415.552 175.714 415.125 175.225 414.607 174.847C414.088 174.469 413.49 174.213 412.858 174.096C410.584 173.824 409.715 175.327 409.93 175.395C410.145 175.463 411.062 174.872 412.516 175.395C413.971 175.919 415.132 177.888 414.585 180.245C414.039 182.602 412.887 184.863 411.501 185.299C410.115 185.736 409.169 185.173 408.993 185.357Z" fill="#AA6550"/>
<path d="M360.066 132.677C358.36 136.53 355.788 139.943 352.548 142.655C349.308 145.368 345.486 147.306 341.376 148.323C340.897 142.765 340.566 137.139 341.483 131.629C342.4 126.119 344.645 120.697 348.686 116.827C352.726 112.957 358.709 110.871 364.136 112.307" fill="#263238"/>
<path d="M361.628 122.472C360.213 126.012 359.741 129.855 360.258 133.629C360.774 137.403 362.262 140.981 364.577 144.016C366.892 147.051 369.956 149.442 373.473 150.956C376.99 152.47 380.84 153.056 384.651 152.659C386.135 152.503 387.697 152.212 389.082 152.746C390.468 153.279 391.552 154.686 392.44 156.025C396.051 161.389 399.867 166.966 405.557 170.07C411.247 173.174 419.387 172.864 423.194 167.635C425.038 165.094 425.585 161.864 426.014 158.76C427.459 148.313 428.054 137.09 423.037 127.798C419.319 120.881 412.78 115.75 405.548 112.636C398.315 109.523 390.39 108.281 382.514 107.786C377.946 107.505 373.213 107.495 368.967 109.222C364.721 110.949 361.061 114.77 360.817 119.32" fill="#263238"/>
<path d="M425.009 161.709C424.9 161.46 424.809 161.204 424.736 160.942C424.58 160.438 424.316 159.691 423.975 158.75C422.96 156.079 421.668 153.521 420.119 151.116C417.816 147.565 414.96 144.399 411.657 141.736C407.524 138.581 402.959 136.027 398.101 134.151C392.987 132.017 387.98 130.271 383.597 128.224C379.682 126.479 376.006 124.246 372.656 121.58C370.411 119.767 368.456 117.624 366.859 115.226C366.429 114.572 366.041 113.892 365.698 113.189C365.558 112.956 365.444 112.709 365.356 112.452C365.513 112.676 365.656 112.909 365.785 113.151C366.162 113.818 366.572 114.465 367.015 115.091C368.654 117.428 370.627 119.516 372.871 121.289C376.218 123.9 379.88 126.083 383.773 127.788C388.136 129.796 393.143 131.542 398.276 133.676C403.177 135.574 407.779 138.161 411.94 141.358C415.266 144.066 418.128 147.293 420.412 150.913C421.943 153.354 423.196 155.957 424.15 158.673C424.472 159.643 424.707 160.39 424.824 160.913C424.908 161.173 424.97 161.439 425.009 161.709Z" fill="#455A64"/>
<path d="M417.972 160.477C417.824 160.277 417.696 160.062 417.591 159.837C417.338 159.42 416.967 158.799 416.42 158.052C414.859 155.964 412.963 154.145 410.808 152.668C407.573 150.518 404.119 148.713 400.502 147.285C398.481 146.422 396.344 145.529 394.177 144.501C392.011 143.473 389.795 142.328 387.609 141.028C383.467 138.605 379.65 135.672 376.248 132.298C373.473 129.54 371.084 126.425 369.143 123.035C367.844 120.748 366.797 118.328 366.02 115.818C365.766 114.926 365.58 114.227 365.493 113.752C365.423 113.511 365.377 113.264 365.356 113.015C365.454 113.243 365.53 113.48 365.58 113.723C365.707 114.198 365.922 114.877 366.205 115.76C367.042 118.229 368.127 120.608 369.445 122.86C371.406 126.199 373.798 129.267 376.56 131.988C379.957 135.325 383.752 138.234 387.863 140.65C390.029 141.94 392.225 143.085 394.382 144.123C396.539 145.161 398.657 146.063 400.677 146.916C404.313 148.369 407.776 150.216 411.003 152.426C413.17 153.945 415.055 155.826 416.576 157.984C416.983 158.573 417.348 159.189 417.67 159.827C417.786 160.036 417.888 160.253 417.972 160.477Z" fill="#455A64"/>
<path d="M341.454 157.256C341.368 157.088 341.296 156.913 341.239 156.733C341.112 156.393 340.917 155.879 340.702 155.21C340.158 153.312 339.83 151.36 339.726 149.39C339.429 142.77 341.504 136.26 345.582 131.018C346.729 129.533 348.039 128.18 349.486 126.983C350.901 125.838 352.356 124.868 353.742 123.956C356.257 122.454 358.617 120.709 360.788 118.747C362.229 117.407 363.402 115.807 364.243 114.033C364.81 112.763 364.936 111.987 364.985 111.996C364.983 112.187 364.953 112.376 364.897 112.559C364.777 113.084 364.617 113.6 364.419 114.101C363.622 115.923 362.471 117.571 361.032 118.951C358.877 120.964 356.519 122.752 353.995 124.286C352.543 125.224 351.139 126.234 349.789 127.313C348.367 128.49 347.078 129.817 345.943 131.27C343.744 134.085 342.114 137.297 341.141 140.728C340.332 143.525 339.966 146.431 340.058 149.341C340.134 151.304 340.409 153.253 340.878 155.161C341.054 155.808 341.2 156.322 341.317 156.704C341.386 156.881 341.431 157.067 341.454 157.256Z" fill="#455A64"/>
<path d="M397.388 202.138C392.067 202.195 386.908 200.315 382.885 196.852L383.51 196.163C386.952 199.246 391.341 201.082 395.965 201.374C400.59 201.666 405.177 200.397 408.985 197.772C412.792 195.148 415.595 191.321 416.94 186.914C418.284 182.507 418.091 177.778 416.391 173.494L417.26 173.155C418.9 177.647 419.032 182.547 417.635 187.12C416.238 191.693 413.387 195.693 409.51 198.52C405.931 200.918 401.704 202.179 397.388 202.138Z" fill="#106D93"/>
<path d="M385.344 202.662C387.829 202.662 389.844 200.66 389.844 198.19C389.844 195.721 387.829 193.719 385.344 193.719C382.859 193.719 380.845 195.721 380.845 198.19C380.845 200.66 382.859 202.662 385.344 202.662Z" fill="#106D93"/>
<path d="M434.739 177.855C436.065 169.695 430.483 162.012 422.272 160.694C414.061 159.377 406.33 164.924 405.005 173.085C403.679 181.245 409.261 188.929 417.472 190.246C425.683 191.563 433.414 186.016 434.739 177.855Z" fill="#106D93"/>
<path d="M417.445 173.388C417.339 172.124 417.365 170.853 417.523 169.595L417.699 165.162C417.699 163.435 417.777 161.466 417.699 159.293C417.699 158.207 417.621 157.072 417.562 155.898C417.504 154.725 417.377 153.493 417.26 152.222C417.143 150.951 416.918 149.661 416.752 148.342C416.625 147.682 416.498 147.004 416.372 146.325C416.245 145.646 416.108 144.947 415.923 144.258C414.623 138.226 411.923 132.579 408.036 127.768C404.003 123.077 398.839 119.479 393.026 117.312C388.259 115.522 383.301 114.285 378.249 113.626C373.916 113.024 370.373 112.84 367.933 112.656C366.657 112.681 365.381 112.577 364.126 112.345C365.387 112.138 366.665 112.057 367.942 112.103C371.427 112.073 374.91 112.238 378.376 112.598C383.547 113.126 388.632 114.292 393.514 116.07C399.57 118.253 404.952 121.963 409.13 126.837C413.159 131.824 415.926 137.698 417.201 143.967C417.377 144.676 417.513 145.384 417.631 146.092C417.748 146.8 417.865 147.479 417.982 148.158C418.138 149.535 418.353 150.854 418.431 152.145C418.509 153.435 418.636 154.686 418.646 155.879C418.655 157.072 418.724 158.226 418.646 159.323C418.646 161.524 418.519 163.503 418.421 165.24C418.324 166.976 418.148 168.46 418.001 169.682C417.936 170.932 417.75 172.173 417.445 173.388Z" fill="#106D93"/>
<g opacity="0.4">
<path d="M424.282 185.003C429.564 182.811 432.059 176.778 429.853 171.528C427.648 166.278 421.578 163.799 416.295 165.99C411.012 168.182 408.518 174.215 410.723 179.465C412.929 184.716 418.999 187.195 424.282 185.003Z" fill="black"/>
</g>
<path d="M416.879 165.87C417.025 165.775 417.183 165.697 417.347 165.637C417.809 165.444 418.29 165.301 418.782 165.21C420.627 164.897 422.524 165.219 424.16 166.122C425.3 166.742 426.254 167.652 426.922 168.761C427.675 170.039 428.057 171.499 428.025 172.98C428 174.271 427.653 175.535 427.013 176.658C426.373 177.781 425.461 178.728 424.361 179.413C423.26 180.098 422.004 180.499 420.708 180.58C419.412 180.661 418.116 180.419 416.937 179.877C415.446 179.152 414.233 177.963 413.482 176.492C412.785 175.178 412.478 173.694 412.594 172.214C412.728 170.934 413.166 169.704 413.873 168.625C414.836 167.024 416.368 165.84 418.167 165.307C418.653 165.174 419.157 165.115 419.66 165.133C419.835 165.138 420.009 165.164 420.178 165.21C419.518 165.212 418.861 165.303 418.226 165.482C416.516 166.07 415.078 167.251 414.175 168.809C413.45 169.913 413.04 171.191 412.989 172.508C412.937 173.825 413.246 175.132 413.883 176.288C414.599 177.663 415.742 178.771 417.142 179.45C418.673 180.121 420.383 180.271 422.008 179.879C423.633 179.486 425.082 178.572 426.131 177.277C427.059 176.028 427.571 174.523 427.595 172.97C427.648 171.571 427.31 170.185 426.619 168.964C426.001 167.903 425.108 167.025 424.033 166.423C422.471 165.52 420.651 165.158 418.86 165.395C418.19 165.511 417.529 165.67 416.879 165.87Z" fill="#263238"/>
<path d="M420.197 185.619C419.843 184.858 419.682 184.022 419.729 183.185C419.618 182.357 419.708 181.516 419.992 180.73C420.179 181.528 420.252 182.348 420.207 183.165C420.323 183.979 420.32 184.806 420.197 185.619Z" fill="#263238"/>
<path d="M425.917 183.621C425.057 182.303 424.479 180.824 424.219 179.275C425.079 180.593 425.657 182.072 425.917 183.621Z" fill="#263238"/>
<path d="M429.773 179.14C429.685 179.237 428.972 178.742 428.181 178.034C427.391 177.326 426.834 176.666 426.922 176.569C427.01 176.472 427.722 176.967 428.513 177.675C429.304 178.383 429.861 179.043 429.773 179.14Z" fill="#263238"/>
<path d="M430.046 172.883C429.997 173.009 429.489 172.941 428.894 172.728C428.298 172.515 427.859 172.243 427.918 172.117C427.976 171.991 428.474 172.059 429.07 172.272C429.665 172.485 430.095 172.757 430.046 172.883Z" fill="#263238"/>
<path d="M413.434 183.33C413.703 181.672 414.492 180.141 415.689 178.955C415.438 179.74 415.087 180.49 414.644 181.186C414.332 181.948 413.925 182.668 413.434 183.33Z" fill="#263238"/>
<path d="M410.34 178.063C410.242 177.966 410.838 177.238 411.658 176.443C412.478 175.648 413.22 175.066 413.317 175.163C413.415 175.26 412.82 175.987 412 176.783C411.179 177.578 410.437 178.16 410.34 178.063Z" fill="#263238"/>
<path d="M412.761 170.924C412.761 171.05 412.37 171.273 411.785 171.418C411.199 171.564 410.75 171.583 410.72 171.418C410.691 171.254 411.101 171.06 411.697 170.914C412.292 170.769 412.722 170.798 412.761 170.924Z" fill="#263238"/>
<path d="M491.533 252.811C490.557 247.331 488.4 244.353 486.79 242.791C485.363 241.254 483.761 239.887 482.017 238.717C479.831 237.388 476.854 235.749 474.951 235.332C472.599 234.827 472.023 231.791 473.975 230.918C475.927 230.045 482.466 231.297 488.742 235.875C495.018 240.453 491.836 228.852 490.762 224.604C489.689 220.355 487.024 207.066 488 205.727C489.552 203.787 492.002 205.107 492.988 209.375C493.973 213.643 497.809 226.253 500.044 225.632C502.279 225.011 496.462 203.458 496.462 203.458C496.462 203.458 494.51 199.034 497.038 198.239C501.664 196.794 506.115 220.132 506.486 222.363C506.739 223.905 509.199 223.333 508.838 221.674C508.477 220.015 502.552 200.286 507.247 198.772C510.848 197.618 511.092 217.94 514.606 221.412C518.12 224.885 512.83 205.98 516.324 205.01C517.622 204.651 518.647 204.563 520.101 215.815C520.891 221.858 520.384 230.191 522.756 241.724" fill="#B78876"/>
<path d="M479.831 296.19L501.166 326.618L490.928 248.145L521.428 236.185C521.428 236.185 559.922 382.849 508.301 384.906C508.301 384.906 472.57 383.936 445.905 322.477L479.831 296.19Z" fill="#B78876"/>
<path d="M514.05 235.613C514.108 235.691 513.386 236.166 512.439 237.214C511.202 238.591 510.342 240.261 509.941 242.064L509.823 242.636L509.404 242.209C508.913 241.714 508.384 241.256 507.823 240.841C505.919 239.46 503.685 238.598 501.342 238.339C499.536 238.145 498.414 238.339 498.414 238.232C499.369 237.886 500.391 237.766 501.401 237.883C504.631 238.031 507.676 239.422 509.892 241.763L509.345 241.908C509.775 239.989 510.759 238.236 512.176 236.864C512.691 236.305 513.334 235.876 514.05 235.613Z" fill="#AA6550"/>
<path d="M464.508 359.628L438.693 327.084L431.978 360.374C429.262 373.856 430.662 387.837 435.999 400.523L439.327 408.448H319.787L322.773 397.865C324.462 384.906 322.207 371.384 322.597 352.818L319.279 331.895L301.194 408.448H248.031C248.031 408.448 277.184 289.632 295.494 266.12C318.537 236.486 358.807 240.395 358.807 240.395L383.471 278.827L407.568 244.168C407.568 244.168 448.97 235.438 481.295 290.728L498.59 320.187L490.557 259.533L528.016 250.958C528.016 250.958 541.534 310.546 540.646 342.459C539.855 370.957 527.645 385.905 510.731 387.379C484.096 389.688 464.508 359.628 464.508 359.628Z" fill="#106D93"/>
<path d="M358.807 240.395L359.227 235.603C359.227 235.603 377.497 239.639 383.627 271.348C383.627 271.348 389.776 242.083 409.452 239.144L412.77 247.573L400.687 278.836L379.469 285.005L358.817 278.836L349.408 260.3L358.807 240.395Z" fill="#106D93"/>
<path d="M307.879 253.005C307.934 253.274 307.967 253.546 307.977 253.82C307.977 254.402 308.075 255.188 308.153 256.187C308.279 258.233 308.494 261.192 308.787 264.859C309.382 272.172 310.388 282.27 311.978 293.357C313.569 304.444 315.463 314.426 316.956 321.613C317.708 325.212 318.332 328.112 318.791 330.12C318.996 331.09 319.162 331.866 319.289 332.429C319.358 332.696 319.404 332.968 319.425 333.244C319.328 332.988 319.249 332.725 319.191 332.458C319.041 331.895 318.846 331.129 318.606 330.159C318.098 328.17 317.415 325.309 316.654 321.691C315.072 314.513 313.14 304.532 311.53 293.425C309.919 282.319 308.982 272.211 308.484 264.878C308.231 261.211 308.065 258.243 307.987 256.196C307.987 255.226 307.928 254.412 307.909 253.83C307.889 253.248 307.87 253.005 307.879 253.005Z" fill="#263238"/>
<path d="M412.321 243.043C412.249 243.204 412.161 243.357 412.058 243.499L411.238 244.76L408.193 249.377C405.635 253.257 402.19 258.738 398.598 264.897C398.462 265.14 398.315 265.373 398.189 265.605L397.954 266.003L397.759 265.586C397.136 264.045 396.247 262.624 395.134 261.386C394.624 260.832 393.99 260.405 393.282 260.142C392.575 259.879 391.814 259.787 391.064 259.873C389.71 260.165 388.514 260.946 387.706 262.065C386.963 263.023 386.394 264.103 386.028 265.256C385.344 267.39 384.944 269.185 384.427 270.349C384.246 270.799 384.034 271.237 383.793 271.658C383.617 271.943 383.519 272.079 383.5 272.066C383.5 272.066 383.832 271.455 384.261 270.281C384.69 269.107 385.052 267.371 385.715 265.159C386.065 263.954 386.634 262.823 387.394 261.822C388.246 260.603 389.534 259.753 390.995 259.446C391.814 259.34 392.647 259.431 393.423 259.712C394.199 259.992 394.896 260.453 395.456 261.056C396.623 262.323 397.552 263.789 398.198 265.382H397.769L398.179 264.674C401.77 258.505 405.274 253.034 407.939 249.212C409.256 247.272 410.35 245.73 411.111 244.673C411.482 244.188 411.774 243.78 412.009 243.46C412.098 243.311 412.203 243.171 412.321 243.043Z" fill="#263238"/>
<path d="M394.919 260.998C394.919 260.998 394.87 261.143 394.724 261.405L394.08 262.531L391.63 266.624L387.941 272.648L385.745 276.208C385.354 276.819 384.964 277.449 384.564 278.089C384.442 278.272 384.286 278.43 384.105 278.555C383.996 278.625 383.873 278.67 383.745 278.687C383.617 278.704 383.486 278.692 383.363 278.652C382.94 278.487 382.593 278.172 382.387 277.769C378.961 272.648 376.404 267.691 374.403 264.189C373.427 262.434 372.598 261.027 372.032 260.057C371.712 259.569 371.425 259.06 371.173 258.534C371.173 258.534 371.29 258.651 371.456 258.893C371.622 259.136 371.885 259.485 372.188 259.96C372.813 260.93 373.671 262.288 374.696 264.024C376.775 267.468 379.381 272.395 382.797 277.488C383.002 277.818 383.197 278.099 383.461 278.177C383.724 278.254 383.929 278.08 384.134 277.798L385.305 275.936L387.521 272.395L391.298 266.42L393.875 262.414C394.167 261.987 394.402 261.628 394.607 261.337C394.696 261.212 394.801 261.097 394.919 260.998Z" fill="#263238"/>
<path d="M461.111 263.84C461.031 264.056 460.937 264.267 460.828 264.471C460.614 264.917 460.321 265.508 459.95 266.246C459.169 267.778 458.076 270.009 456.768 272.783C455.46 275.558 453.977 278.904 452.415 282.648C450.854 286.393 449.263 290.564 447.721 294.987C446.179 299.41 444.89 303.717 443.817 307.597C442.743 311.477 441.865 315.046 441.152 318.034C440.44 321.022 439.942 323.456 439.61 325.134C439.444 325.939 439.307 326.58 439.21 327.074C439.174 327.303 439.115 327.527 439.034 327.744C439.036 327.512 439.062 327.281 439.112 327.055C439.19 326.56 439.298 325.91 439.425 325.115C439.698 323.417 440.176 320.973 440.82 317.966C441.464 314.959 442.323 311.409 443.387 307.48C444.451 303.552 445.778 299.294 447.291 294.87C448.804 290.447 450.463 286.276 452.025 282.522C453.586 278.768 455.138 275.441 456.495 272.677C457.851 269.912 458.984 267.701 459.813 266.197L460.789 264.471C460.873 264.249 460.981 264.038 461.111 263.84Z" fill="#263238"/>
<path d="M406.426 384.353C406.179 384.366 405.931 384.366 405.684 384.353L403.547 384.188C402.571 384.11 401.487 384.013 400.18 383.848C398.872 383.684 397.369 383.538 395.729 383.286C392.43 382.84 388.526 382.161 384.222 381.278C379.918 380.395 375.223 379.212 370.353 377.786C365.483 376.36 360.925 374.74 356.816 373.178C352.707 371.617 349.086 370.026 346.08 368.61C344.557 367.931 343.22 367.242 342.039 366.67C340.858 366.097 339.843 365.564 339.033 365.118L337.15 364.099C336.929 363.989 336.717 363.863 336.515 363.721C336.752 363.795 336.981 363.893 337.198 364.012L339.15 364.982C339.98 365.399 340.995 365.952 342.186 366.456C343.376 366.961 344.723 367.679 346.246 368.328C349.271 369.706 352.912 371.238 356.982 372.79C361.052 374.342 365.639 375.904 370.49 377.349C375.34 378.795 380.035 379.93 384.31 380.871C388.585 381.811 392.489 382.49 395.778 382.975C397.408 383.257 398.901 383.431 400.209 383.606C401.517 383.781 402.639 383.926 403.566 384.023L405.694 384.285C405.94 384.286 406.184 384.309 406.426 384.353Z" fill="#263238"/>
<path d="M401.136 386.429C400.976 386.49 400.809 386.533 400.638 386.555L399.213 386.826C397.974 387.049 396.168 387.331 393.933 387.641C382.291 389.2 370.521 389.606 358.797 388.854C356.543 388.698 354.727 388.543 353.478 388.398L352.034 388.233C351.866 388.216 351.699 388.187 351.536 388.145C351.704 388.122 351.875 388.122 352.043 388.145L353.488 388.223C354.747 388.31 356.562 388.417 358.817 388.524C363.306 388.737 369.553 388.883 376.385 388.65C383.217 388.417 389.444 387.835 393.953 387.311C396.188 387.049 397.993 386.817 399.243 386.652L400.687 386.467C400.834 386.434 400.985 386.421 401.136 386.429Z" fill="#263238"/>
<path d="M443.446 333.079C443.467 332.842 443.513 332.608 443.582 332.38L444.08 330.44L445.935 323.175C447.506 317.045 449.585 308.557 452.152 299.245C453.44 294.589 454.758 290.176 456.056 286.189C457.354 282.202 458.603 278.652 459.755 275.703C460.301 274.209 460.867 272.89 461.336 271.726C461.804 270.562 462.244 269.573 462.614 268.768L463.464 266.915C463.556 266.692 463.667 266.478 463.795 266.275C463.733 266.507 463.651 266.734 463.551 266.954C463.366 267.419 463.112 268.05 462.79 268.836C462.468 269.621 462.039 270.659 461.59 271.833C461.141 273.007 460.614 274.326 460.077 275.82C458.964 278.778 457.754 282.348 456.485 286.325C455.216 290.302 453.918 294.725 452.63 299.371C450.073 308.673 447.945 317.151 446.286 323.262C445.466 326.318 444.783 328.791 444.285 330.489L443.7 332.429C443.639 332.654 443.554 332.872 443.446 333.079Z" fill="#263238"/>
<path d="M318.654 331.488C318.472 331.305 318.303 331.111 318.147 330.906C317.834 330.498 317.337 329.936 316.79 329.15C315.182 326.946 313.756 324.617 312.525 322.186C310.695 318.576 309.196 314.81 308.045 310.934C306.65 306.19 305.612 301.349 304.941 296.451C303.517 286.034 303.282 276.508 302.853 269.66C302.658 266.226 302.472 263.452 302.336 261.531C302.267 260.61 302.209 259.873 302.17 259.33C302.15 259.071 302.15 258.812 302.17 258.554C302.234 258.805 302.276 259.061 302.297 259.32C302.355 259.815 302.453 260.561 302.55 261.522C302.755 263.462 302.989 266.207 303.224 269.631C303.741 276.489 304.024 286.005 305.449 296.384C306.114 301.259 307.135 306.08 308.504 310.807C309.614 314.669 311.061 318.428 312.828 322.04C314.028 324.472 315.401 326.815 316.937 329.053C317.464 329.858 317.913 330.431 318.225 330.857C318.388 331.053 318.532 331.265 318.654 331.488Z" fill="#263238"/>
<path d="M314.116 310.128C314.116 310.274 312.73 310.575 311.188 311.467C309.646 312.359 308.719 313.407 308.611 313.31C309.196 312.381 309.999 311.606 310.951 311.052C311.903 310.498 312.975 310.181 314.077 310.128H314.116Z" fill="#263238"/>
<path d="M313.208 297.674C311.96 298.015 310.74 298.449 309.558 298.973C308.456 299.646 307.406 300.398 306.415 301.224C307.139 300.087 308.152 299.16 309.351 298.537C310.551 297.913 311.895 297.616 313.247 297.674H313.208Z" fill="#263238"/>
<path d="M310.466 286.286C309.471 286.551 308.493 286.875 307.538 287.256C306.663 287.772 305.819 288.339 305.01 288.953C305.553 288.033 306.355 287.29 307.318 286.816C308.28 286.342 309.36 286.158 310.427 286.286H310.466Z" fill="#263238"/>
<path d="M309.129 274.51C309.129 274.646 307.909 274.888 306.503 275.48C305.098 276.072 304.063 276.799 303.975 276.693C304.568 275.92 305.381 275.342 306.308 275.034C307.175 274.586 308.157 274.404 309.129 274.51Z" fill="#263238"/>
<path d="M308.358 265.023C308.358 265.159 307.128 265.392 305.722 266.052C304.317 266.711 303.341 267.516 303.253 267.41C303.796 266.586 304.589 265.958 305.518 265.615C306.378 265.125 307.372 264.918 308.358 265.023Z" fill="#263238"/>
<path d="M445.954 318.548C445.837 318.635 445.203 317.782 444.002 317.326C443.271 317.112 442.524 316.959 441.767 316.87C442.139 316.678 442.553 316.577 442.972 316.577C443.392 316.577 443.805 316.678 444.178 316.87C445.544 317.413 446.081 318.509 445.954 318.548Z" fill="#263238"/>
<path d="M449.585 308.838C449.083 307.888 448.344 307.083 447.437 306.5C446.531 305.918 445.489 305.577 444.412 305.511C444.412 305.453 444.773 305.327 445.388 305.346C446.208 305.392 447.002 305.65 447.691 306.093C448.384 306.535 448.946 307.15 449.321 307.878C449.604 308.46 449.643 308.819 449.585 308.838Z" fill="#263238"/>
<path d="M452.308 298.159C451.628 297.407 450.783 296.823 449.838 296.451C448.893 296.079 447.875 295.93 446.862 296.015C446.862 295.966 447.174 295.792 447.76 295.714C448.527 295.62 449.306 295.72 450.024 296.005C450.741 296.288 451.375 296.745 451.869 297.334C452.24 297.79 452.357 298.139 452.308 298.159Z" fill="#263238"/>
<path d="M455.519 287.906C455.392 287.974 454.884 287.013 453.752 286.441C453.042 286.154 452.302 285.946 451.546 285.82C451.546 285.762 451.8 285.646 452.259 285.617C452.857 285.606 453.449 285.746 453.978 286.025C454.507 286.303 454.956 286.71 455.284 287.207C455.519 287.595 455.568 287.877 455.519 287.906Z" fill="#263238"/>
<path d="M459.267 278.487C458.732 277.81 458.069 277.243 457.315 276.819C456.494 276.517 455.623 276.372 454.748 276.392C454.748 276.343 455.002 276.159 455.519 276.072C456.2 275.99 456.89 276.098 457.512 276.384C458.135 276.67 458.664 277.123 459.042 277.692C459.276 278.138 459.315 278.468 459.267 278.487Z" fill="#263238"/>
<path d="M397.915 265.023C397.863 265.18 397.791 265.33 397.701 265.47L397.017 266.711C396.412 267.778 395.514 269.321 394.382 271.212C393.25 273.104 391.884 275.335 390.322 277.789C389.532 279.011 388.702 280.291 387.804 281.601C386.906 282.972 385.928 284.29 384.876 285.549C384.599 285.894 384.27 286.195 383.9 286.441C383.771 286.517 383.62 286.548 383.471 286.528C383.342 286.507 383.217 286.468 383.1 286.412C382.904 286.302 382.718 286.175 382.543 286.034C381.922 285.493 381.351 284.899 380.835 284.259C379.859 283.036 378.883 281.795 378.073 280.611C376.395 278.225 374.97 276.023 373.789 274.161C372.608 272.298 371.69 270.785 371.066 269.718L370.363 268.486C370.268 268.35 370.195 268.199 370.148 268.04C370.257 268.164 370.355 268.297 370.441 268.438L371.222 269.621C371.934 270.708 372.901 272.182 374.072 273.986C375.243 275.79 376.746 277.992 378.434 280.349C379.284 281.533 380.191 282.755 381.197 283.958C381.698 284.571 382.25 285.142 382.846 285.665C383.139 285.898 383.51 286.15 383.695 286.005C384.013 285.786 384.299 285.525 384.544 285.229C385.591 283.989 386.568 282.694 387.472 281.349C388.37 280.049 389.209 278.778 390 277.556C391.581 275.121 392.977 272.91 394.148 271.037C395.319 269.165 396.227 267.73 396.91 266.624L397.681 265.431C397.798 265.15 397.896 265.014 397.915 265.023Z" fill="#263238"/>
<path d="M377.117 278.826C377.058 278.826 376.951 278.497 376.99 277.934C377.064 277.204 377.349 276.51 377.81 275.936C378.263 275.353 378.877 274.915 379.577 274.675C380.114 274.51 380.465 274.539 380.475 274.597C379.61 274.985 378.833 275.543 378.191 276.237C377.655 277.016 377.29 277.898 377.117 278.826Z" fill="#263238"/>
<path d="M383.568 286.47C382.963 283.96 382.943 281.346 383.51 278.827C383.631 280.097 383.654 281.375 383.578 282.648C383.672 283.921 383.669 285.198 383.568 286.47Z" fill="#263238"/>
<path d="M390.811 276.731C390.674 276.731 390.372 275.693 389.356 274.869C388.705 274.421 388 274.056 387.257 273.782C387.257 273.724 387.55 273.656 388.019 273.734C388.626 273.843 389.195 274.107 389.669 274.5C390.145 274.891 390.508 275.4 390.723 275.975C390.879 276.45 390.87 276.712 390.811 276.731Z" fill="#263238"/>
<path d="M395.564 268.826C395.249 268.11 394.846 267.435 394.363 266.818C393.768 266.3 393.112 265.853 392.411 265.489C392.411 265.431 392.713 265.402 393.162 265.489C393.749 265.675 394.277 266.01 394.695 266.459C395.117 266.902 395.413 267.447 395.554 268.04C395.671 268.525 395.623 268.816 395.564 268.826Z" fill="#263238"/>
<path d="M372.266 271.6C372.208 271.6 372.051 271.241 372.032 270.63C372.016 269.778 372.221 268.936 372.627 268.186C373.032 267.433 373.619 266.793 374.336 266.323C374.892 265.984 375.312 265.906 375.312 265.955C374.361 266.569 373.582 267.412 373.048 268.406C372.514 269.4 372.241 270.512 372.256 271.639L372.266 271.6Z" fill="#263238"/>
<g opacity="0.4">
<path d="M358.553 240.318C360.642 248.291 364.136 261.279 367.913 271.435C368.053 271.914 368.3 272.355 368.635 272.725C369.611 273.627 371.241 273.074 372.149 272.114C372.918 271.126 373.607 270.078 374.208 268.981C374.516 268.436 374.947 267.969 375.467 267.618C375.987 267.266 376.582 267.039 377.205 266.954C377.717 266.966 378.221 267.091 378.68 267.319C379.139 267.547 379.541 267.873 379.859 268.273C380.489 269.079 381.035 269.947 381.489 270.863C381.593 271.116 381.749 271.344 381.947 271.533C382.146 271.722 382.382 271.867 382.641 271.959C382.771 271.998 382.909 271.999 383.04 271.96C383.17 271.922 383.286 271.846 383.373 271.743C383.46 271.64 383.515 271.513 383.531 271.379C383.546 271.245 383.522 271.109 383.461 270.989L380.123 262.375C380.123 262.375 378.591 256.061 373.291 257.04C367.357 258.136 370.051 267.836 370.051 267.836C370.051 267.836 358.465 239.978 358.553 240.318Z" fill="black"/>
</g>
<path d="M383.627 271.348C383.507 271.174 383.412 270.985 383.344 270.785C383.168 270.407 382.924 269.815 382.621 269.127C382.026 267.613 381.187 265.518 380.162 262.948C379.898 262.298 379.615 261.619 379.313 260.92C379.027 260.206 378.614 259.548 378.093 258.98C377.494 258.377 376.77 257.91 375.971 257.614C375.171 257.317 374.317 257.197 373.466 257.263C372.562 257.376 371.712 257.754 371.026 258.35C370.393 259.072 369.941 259.933 369.709 260.862C369.439 261.808 369.369 262.798 369.504 263.772C369.624 264.811 369.81 265.841 370.06 266.857C370.148 267.235 370.246 267.613 370.333 267.963L369.865 268.098C368.499 264.218 366.937 260.571 365.492 257.302C364.048 254.033 362.73 251.085 361.696 248.572C360.661 246.06 359.9 244.033 359.441 242.597C359.197 241.889 359.051 241.326 358.944 240.938C358.874 240.751 358.828 240.555 358.807 240.356C358.897 240.534 358.972 240.719 359.031 240.909C359.168 241.288 359.344 241.879 359.617 242.539C360.124 243.945 360.935 245.973 362.008 248.436C363.082 250.9 364.419 253.83 365.912 257.099C367.405 260.367 368.967 263.995 370.343 267.924L369.884 268.069C369.797 267.71 369.699 267.332 369.601 266.954C369.349 265.916 369.163 264.863 369.045 263.801C368.898 262.749 368.978 261.678 369.279 260.658C369.538 259.658 370.034 258.734 370.724 257.962C371.485 257.298 372.431 256.882 373.437 256.769C374.354 256.696 375.275 256.828 376.134 257.153C376.994 257.479 377.769 257.99 378.405 258.651C378.949 259.265 379.379 259.972 379.674 260.736C379.976 261.444 380.24 262.133 380.503 262.783C381.479 265.373 382.25 267.487 382.816 269.02C383.08 269.718 383.285 270.281 383.451 270.708C383.53 270.915 383.588 271.129 383.627 271.348Z" fill="#263238"/>
<g opacity="0.4">
<path d="M384.095 271.115C383.9 271.251 384.046 271.61 384.281 271.658C384.403 271.67 384.527 271.656 384.643 271.615C384.759 271.575 384.866 271.51 384.954 271.425C386.083 270.347 387.032 269.096 387.765 267.72C388.643 266.42 389.922 265.179 391.493 265.179C393.065 265.179 394.509 266.556 395.329 268.001C396.149 269.447 396.715 271.076 397.906 272.24C403.893 263.517 408.658 254.024 412.067 244.023C410.115 245.371 408.817 247.476 407.597 249.503C404.429 254.761 401.26 260.015 398.091 265.266C397.498 263.697 396.584 262.266 395.407 261.066C394.816 260.468 394.089 260.022 393.286 259.765C392.484 259.508 391.631 259.449 390.8 259.591C388.956 260.028 387.667 261.687 386.769 263.355C385.439 265.791 384.575 268.452 384.222 271.202" fill="black"/>
</g>
<path d="M508.74 348.822C508.491 348.493 508.278 348.138 508.106 347.764C507.725 347.066 507.198 346.038 506.583 344.767C504.984 341.429 503.554 338.014 502.298 334.534C501.045 331.056 499.97 327.517 499.078 323.932C498.736 322.554 498.492 321.439 498.336 320.653C498.238 320.255 498.176 319.849 498.15 319.44C498.315 319.818 498.439 320.211 498.521 320.614C498.756 321.468 499.058 322.554 499.409 323.844C500.171 326.57 501.293 330.314 502.757 334.378C504.221 338.443 505.744 342.041 506.895 344.622C507.452 345.844 507.871 346.872 508.272 347.677C508.467 348.042 508.624 348.425 508.74 348.822Z" fill="#263238"/>
<path d="M499.459 346.998C499.293 346.66 499.163 346.305 499.069 345.941C498.844 345.242 498.561 344.234 498.249 342.973C496.651 336.373 496.111 329.564 496.648 322.797C496.755 321.507 496.872 320.459 496.989 319.741C497.014 319.364 497.09 318.992 497.214 318.635C497.255 319.009 497.255 319.387 497.214 319.761C497.155 320.478 497.097 321.526 497.028 322.816C496.69 329.549 497.225 336.297 498.62 342.895C498.893 344.166 499.118 345.184 499.293 345.892C499.396 346.252 499.452 346.624 499.459 346.998Z" fill="#263238"/>
<path d="M529.285 262.084C529.542 262.15 529.791 262.244 530.027 262.366L530.173 262.434L530.027 262.492C523.95 264.516 517.732 266.098 511.424 267.225C505.978 268.195 500.991 268.797 497.379 269.088C495.574 269.233 494.11 269.321 493.095 269.35C492.569 269.396 492.04 269.396 491.514 269.35C492.029 269.249 492.551 269.184 493.075 269.156L497.35 268.739C500.942 268.36 505.91 267.769 511.336 266.74C520.393 265.101 527.84 262.919 530.017 262.356V262.472C529.758 262.373 529.512 262.243 529.285 262.084Z" fill="#263238"/>
<path d="M520.882 257.875C520.882 257.875 520.97 257.719 521.273 257.632C521.49 257.587 521.716 257.589 521.933 257.637C522.15 257.686 522.354 257.78 522.532 257.913C522.816 258.096 523.043 258.355 523.184 258.661C523.326 258.967 523.377 259.306 523.332 259.64C523.293 259.844 523.209 260.037 523.085 260.204C522.962 260.372 522.803 260.511 522.62 260.61C522.241 260.824 521.801 260.906 521.37 260.843C520.94 260.787 520.538 260.601 520.218 260.309C520.07 260.164 519.953 259.99 519.874 259.798C519.795 259.606 519.756 259.401 519.759 259.194C519.781 258.862 519.889 258.541 520.072 258.263C520.255 257.984 520.507 257.757 520.804 257.603C521.184 257.384 521.633 257.312 522.063 257.399C522.366 257.477 522.483 257.613 522.473 257.632C521.96 257.524 521.425 257.618 520.98 257.894C520.755 258.032 520.567 258.223 520.432 258.449C520.298 258.676 520.221 258.931 520.208 259.194C520.23 259.504 520.367 259.794 520.593 260.01C520.818 260.225 521.116 260.349 521.429 260.358C521.731 260.431 522.051 260.388 522.322 260.237C522.594 260.086 522.798 259.838 522.893 259.543C522.91 259.325 522.883 259.105 522.811 258.898C522.74 258.691 522.627 258.501 522.479 258.339C522.33 258.178 522.15 258.048 521.95 257.958C521.749 257.868 521.532 257.82 521.312 257.816C521.038 257.836 520.901 257.923 520.882 257.875Z" fill="#263238"/>
<path d="M375.848 278.39C375.679 278.557 375.5 278.712 375.311 278.856C374.94 279.127 374.433 279.593 373.701 280.078C371.669 281.52 369.494 282.752 367.21 283.754C363.817 285.247 360.229 286.259 356.552 286.761C354.382 287.052 352.192 287.169 350.003 287.11C347.653 287.028 345.314 286.739 343.015 286.247C338.291 285.19 334.036 283.463 330.025 282.367C328.144 281.831 326.221 281.454 324.276 281.242C322.571 281.074 320.853 281.093 319.152 281.3C316.692 281.551 314.327 282.379 312.252 283.715C311.517 284.245 310.81 284.812 310.134 285.413C310.711 284.702 311.388 284.078 312.144 283.56C314.218 282.139 316.611 281.247 319.113 280.961C320.828 280.738 322.563 280.702 324.286 280.854C326.266 281.048 328.226 281.415 330.142 281.95C334.192 282.998 338.448 284.714 343.113 285.762C345.387 286.245 347.699 286.534 350.023 286.625C352.185 286.683 354.348 286.576 356.494 286.305C360.138 285.824 363.699 284.845 367.074 283.395C369.356 282.436 371.539 281.261 373.593 279.884C374.345 279.428 374.862 278.991 375.253 278.739C375.437 278.601 375.637 278.484 375.848 278.39Z" fill="#FAFAFA"/>
<path d="M437.863 318.296C437.76 318.262 437.662 318.216 437.57 318.16L436.721 317.723C436.35 317.539 435.872 317.345 435.316 317.093C434.759 316.841 434.096 316.618 433.364 316.424C429.02 315.306 424.484 315.144 420.071 315.948C417.016 316.444 413.994 317.125 411.023 317.985C407.802 318.858 404.367 319.877 400.677 320.624C396.805 321.469 392.825 321.711 388.878 321.342C384.665 320.837 380.523 319.861 376.531 318.432C372.403 317.054 368.46 315.522 364.585 314.231C360.888 312.939 357.073 312.007 353.195 311.448C346.601 310.582 339.902 310.943 333.441 312.515C330.965 313.136 328.533 313.917 326.16 314.852C325.135 315.298 324.159 315.696 323.29 316.113C322.422 316.53 321.631 316.909 320.938 317.297L319.094 318.315L317.776 319.13L316.966 319.615C316.878 319.683 316.779 319.735 316.673 319.77L316.937 319.576L317.727 319.043C318.069 318.82 318.498 318.519 319.015 318.199L320.841 317.132C321.534 316.734 322.334 316.356 323.193 315.91C324.052 315.463 325.028 315.066 326.062 314.6C328.436 313.635 330.872 312.828 333.353 312.185C339.853 310.554 346.605 310.155 353.254 311.011C357.165 311.561 361.012 312.49 364.741 313.785C368.645 315.066 372.549 316.598 376.678 317.976C380.639 319.396 384.747 320.372 388.926 320.886C392.826 321.267 396.761 321.037 400.59 320.207C404.259 319.479 407.685 318.48 410.916 317.617C413.907 316.769 416.948 316.105 420.022 315.628C424.452 314.842 429.002 315.044 433.344 316.22C434.115 316.433 434.769 316.724 435.345 316.938C435.921 317.151 436.37 317.403 436.741 317.607L437.56 318.092C437.775 318.228 437.873 318.286 437.863 318.296Z" fill="#FAFAFA"/>
<path d="M388.682 277.663C389.504 277.892 390.338 278.073 391.181 278.206C393.488 278.464 395.824 278.28 398.062 277.663C401.363 276.658 404.6 275.453 407.753 274.054C409.664 273.283 411.644 272.699 413.668 272.308C415.848 271.922 418.066 271.795 420.275 271.93C424.538 272.206 428.725 273.189 432.661 274.84C435.86 276.182 438.948 277.775 441.894 279.603C444.422 281.135 446.403 282.513 447.75 283.395C448.404 283.841 448.921 284.2 449.311 284.482C449.499 284.598 449.675 284.731 449.839 284.879C449.635 284.794 449.442 284.687 449.263 284.559L447.652 283.589C446.247 282.716 444.246 281.426 441.699 279.932C438.742 278.164 435.659 276.611 432.475 275.286C428.58 273.659 424.442 272.676 420.227 272.376C418.053 272.249 415.872 272.37 413.727 272.735C411.725 273.119 409.764 273.691 407.871 274.442C404.24 275.839 401.039 277.352 398.111 277.963C395.832 278.566 393.455 278.701 391.122 278.361C390.279 278.249 389.457 278.014 388.682 277.663Z" fill="#FAFAFA"/>
<path d="M445.73 253.335C445.279 253.509 444.816 253.649 444.344 253.752C443.885 253.878 443.368 254.014 442.684 254.14C442.001 254.266 441.298 254.441 440.469 254.557C438.531 254.88 436.576 255.091 434.613 255.188C432.239 255.307 429.859 255.281 427.488 255.11C425.099 254.896 422.726 254.533 420.383 254.024C418.47 253.601 416.583 253.07 414.732 252.433C413.941 252.181 413.248 251.88 412.624 251.647C411.999 251.414 411.482 251.181 411.062 250.987C410.611 250.808 410.177 250.591 409.764 250.338C410.232 250.457 410.689 250.616 411.13 250.813C411.57 250.988 412.106 251.191 412.721 251.395C413.336 251.599 414.049 251.88 414.839 252.113C416.42 252.617 418.333 253.131 420.471 253.597C425.129 254.581 429.893 254.982 434.652 254.79C436.838 254.693 438.81 254.509 440.449 254.276C441.279 254.179 442.011 254.033 442.665 253.927C443.319 253.82 443.875 253.713 444.324 253.616C444.782 253.476 445.253 253.382 445.73 253.335Z" fill="#FAFAFA"/>
<path d="M308.28 259.562C308.408 259.427 308.548 259.304 308.699 259.194C308.992 258.961 309.421 258.612 309.988 258.224C311.11 257.37 312.75 256.167 314.868 254.771C320.305 251.043 326.259 248.121 332.543 246.099C338.867 244.1 345.58 243.634 352.121 244.741C354.09 245.1 356.019 245.649 357.88 246.38C358.544 246.623 359.032 246.884 359.373 247.03C359.548 247.099 359.715 247.187 359.871 247.292C359.871 247.292 359.139 247.03 357.821 246.555C355.951 245.891 354.023 245.397 352.063 245.08C345.574 244.084 338.941 244.588 332.68 246.555C326.462 248.58 320.551 251.439 315.112 255.052C312.994 256.41 311.315 257.574 310.163 258.379L308.826 259.349C308.655 259.445 308.471 259.517 308.28 259.562Z" fill="#FAFAFA"/>
<path d="M431.119 361.286C431.033 361.326 430.94 361.353 430.846 361.364L430.026 361.538C429.582 361.638 429.132 361.707 428.679 361.742L427.82 361.839H426.844C424.043 361.956 420.012 361.238 415.259 359.725C412.877 358.987 410.301 358.076 407.5 357.251C404.523 356.372 401.466 355.784 398.374 355.495C391.825 354.875 384.583 355.66 377.127 357.009C369.67 358.357 362.584 360.035 356.025 360.811C350.22 361.621 344.331 361.657 338.516 360.918C334.595 360.407 330.784 359.264 327.233 357.532L325.594 356.679L324.423 355.99L323.72 355.534L323.495 355.369C323.586 355.398 323.672 355.44 323.749 355.495L324.471 355.903L325.643 356.591L327.292 357.406C330.851 359.056 334.648 360.143 338.545 360.627C344.331 361.306 350.181 361.234 355.947 360.413C362.477 359.608 369.524 357.92 377.019 356.533C384.515 355.146 391.786 354.399 398.394 355.059C401.511 355.36 404.591 355.967 407.587 356.873C410.398 357.717 412.975 358.638 415.337 359.395C419.021 360.751 422.899 361.514 426.824 361.655H427.8L428.659 361.577C429.112 361.56 429.562 361.508 430.006 361.422L430.826 361.296L431.119 361.286Z" fill="#FAFAFA"/>
<g opacity="0.3">
<path d="M345.133 367.969C349.555 378.94 358.114 386.729 369.894 388.339C381.675 389.95 393.592 387.272 405.03 384.168C384.173 381.258 365.717 378.397 345.104 367.969" fill="black"/>
</g>
<path d="M434.105 398.136L433.822 398.03L432.993 397.681L429.84 396.284C427.088 395.091 423.155 393.248 418.245 391.133C415.575 389.973 412.809 389.042 409.979 388.349C406.732 387.578 403.367 387.424 400.063 387.893C398.277 388.155 396.515 388.554 394.792 389.086C393 389.644 391.238 390.291 389.512 391.026C385.989 392.559 382.485 394.46 378.874 396.381C375.38 398.308 371.753 399.987 368.02 401.405C364.529 402.739 360.838 403.483 357.099 403.607C353.704 403.647 350.337 402.987 347.212 401.667C344.526 400.518 341.917 399.196 339.404 397.71C337.071 396.381 334.973 395.178 333.07 394.256C331.446 393.444 329.758 392.763 328.024 392.219C327.384 392.011 326.732 391.839 326.072 391.705C325.604 391.583 325.128 391.492 324.647 391.434L323.759 391.288C323.656 391.282 323.554 391.262 323.456 391.23C323.557 391.214 323.659 391.214 323.759 391.23L324.657 391.327C325.143 391.37 325.626 391.448 326.101 391.56C326.761 391.676 327.413 391.831 328.053 392.025C329.805 392.534 331.512 393.182 333.158 393.965C335.11 394.868 337.208 396.061 339.541 397.36C342.056 398.821 344.664 400.117 347.349 401.24C350.44 402.517 353.762 403.147 357.109 403.093C360.786 402.949 364.413 402.202 367.845 400.882C371.537 399.464 375.124 397.792 378.581 395.876C382.182 393.936 385.696 392.055 389.248 390.522C390.991 389.763 392.773 389.096 394.587 388.524C396.338 387.998 398.126 387.602 399.936 387.34C403.292 386.875 406.706 387.047 409.998 387.845C412.851 388.569 415.634 389.543 418.314 390.755C423.194 392.918 427.098 394.8 429.85 396.051L432.963 397.525L433.774 397.923C434.018 398.078 434.115 398.127 434.105 398.136Z" fill="#FAFAFA"/>
</svg>
