<svg width="600" height="1020" viewBox="0 0 600 1020" fill="none" xmlns="http://www.w3.org/2000/svg">
<g clip-path="url(#clip0_344_1918)">
<rect width="600" height="1020" fill="white"/>
<rect width="600" height="60" fill="#0077B6"/>
<path d="M231.747 43L236.043 16.8182H239.622L235.327 43H231.747ZM219.947 36.25L220.548 32.6705H240.696L240.095 36.25H219.947ZM222.543 43L226.838 16.8182H230.418L226.122 43H222.543ZM221.469 27.1477L222.057 23.5682H242.205L241.616 27.1477H221.469ZM254.672 43.4986C252.567 43.4986 250.76 42.9659 249.252 41.9006C247.752 40.8267 246.597 39.2798 245.787 37.2599C244.986 35.2315 244.586 32.7898 244.586 29.9347C244.594 27.0795 244.999 24.6506 245.8 22.6477C246.61 20.6364 247.765 19.1023 249.265 18.0455C250.773 16.9886 252.576 16.4602 254.672 16.4602C256.769 16.4602 258.571 16.9886 260.08 18.0455C261.588 19.1023 262.743 20.6364 263.544 22.6477C264.354 24.6591 264.759 27.0881 264.759 29.9347C264.759 32.7983 264.354 35.2443 263.544 37.2727C262.743 39.2926 261.588 40.8352 260.08 41.9006C258.58 42.9659 256.777 43.4986 254.672 43.4986ZM254.672 39.4972C256.309 39.4972 257.6 38.6918 258.546 37.081C259.5 35.4616 259.978 33.0795 259.978 29.9347C259.978 27.8551 259.76 26.108 259.326 24.6932C258.891 23.2784 258.277 22.2131 257.485 21.4972C256.692 20.7727 255.755 20.4105 254.672 20.4105C253.044 20.4105 251.757 21.2202 250.811 22.8395C249.865 24.4503 249.388 26.8153 249.38 29.9347C249.371 32.0227 249.58 33.7784 250.006 35.2017C250.441 36.625 251.054 37.6989 251.847 38.4233C252.64 39.1392 253.581 39.4972 254.672 39.4972ZM278.684 43.4986C276.579 43.4986 274.772 42.9659 273.263 41.9006C271.763 40.8267 270.609 39.2798 269.799 37.2599C268.998 35.2315 268.597 32.7898 268.597 29.9347C268.606 27.0795 269.011 24.6506 269.812 22.6477C270.621 20.6364 271.776 19.1023 273.276 18.0455C274.785 16.9886 276.587 16.4602 278.684 16.4602C280.781 16.4602 282.583 16.9886 284.092 18.0455C285.6 19.1023 286.755 20.6364 287.556 22.6477C288.366 24.6591 288.771 27.0881 288.771 29.9347C288.771 32.7983 288.366 35.2443 287.556 37.2727C286.755 39.2926 285.6 40.8352 284.092 41.9006C282.592 42.9659 280.789 43.4986 278.684 43.4986ZM278.684 39.4972C280.32 39.4972 281.612 38.6918 282.558 37.081C283.512 35.4616 283.989 33.0795 283.989 29.9347C283.989 27.8551 283.772 26.108 283.337 24.6932C282.903 23.2784 282.289 22.2131 281.496 21.4972C280.704 20.7727 279.766 20.4105 278.684 20.4105C277.056 20.4105 275.769 21.2202 274.823 22.8395C273.877 24.4503 273.4 26.8153 273.391 29.9347C273.383 32.0227 273.592 33.7784 274.018 35.2017C274.452 36.625 275.066 37.6989 275.859 38.4233C276.651 39.1392 277.593 39.4972 278.684 39.4972ZM293.274 43L304.409 20.9602V20.7812H291.484V16.8182H309.318V20.8707L298.196 43H293.274ZM315.106 43L326.241 20.9602V20.7812H313.316V16.8182H331.15V20.8707L320.028 43H315.106ZM335.532 43V16.8182H345.554C347.446 16.8182 349.019 17.1165 350.272 17.7131C351.533 18.3011 352.475 19.1065 353.097 20.1293C353.728 21.152 354.043 22.3111 354.043 23.6065C354.043 24.6719 353.838 25.5838 353.429 26.3423C353.02 27.0923 352.471 27.7017 351.78 28.1705C351.09 28.6392 350.319 28.9759 349.466 29.1804V29.4361C350.395 29.4872 351.286 29.7727 352.138 30.2926C352.999 30.804 353.702 31.5284 354.248 32.4659C354.793 33.4034 355.066 34.5369 355.066 35.8665C355.066 37.2216 354.738 38.4403 354.081 39.5227C353.425 40.5966 352.436 41.4446 351.115 42.0668C349.794 42.6889 348.132 43 346.13 43H335.532ZM340.275 39.0369H345.375C347.097 39.0369 348.337 38.7088 349.096 38.0526C349.863 37.3878 350.246 36.5355 350.246 35.4957C350.246 34.7202 350.054 34.0213 349.671 33.3991C349.287 32.7685 348.742 32.2741 348.034 31.9162C347.327 31.5497 346.483 31.3665 345.503 31.3665H340.275V39.0369ZM340.275 27.9531H344.966C345.784 27.9531 346.522 27.804 347.178 27.5057C347.834 27.1989 348.35 26.7685 348.725 26.2145C349.108 25.652 349.3 24.9872 349.3 24.2202C349.3 23.206 348.942 22.3707 348.226 21.7145C347.519 21.0582 346.466 20.7301 345.069 20.7301H340.275V27.9531ZM368.524 43.358C367.271 43.3494 366.048 43.1321 364.855 42.706C363.662 42.2713 362.588 41.5682 361.634 40.5966C360.679 39.6165 359.92 38.3168 359.358 36.6974C358.795 35.0696 358.518 33.054 358.527 30.6506C358.527 28.4091 358.766 26.4105 359.243 24.6548C359.72 22.8991 360.406 21.4162 361.301 20.206C362.196 18.9872 363.274 18.0582 364.536 17.419C365.805 16.7798 367.224 16.4602 368.793 16.4602C370.438 16.4602 371.895 16.7841 373.165 17.4318C374.443 18.0795 375.474 18.9659 376.259 20.0909C377.043 21.2074 377.528 22.4688 377.716 23.875H373.05C372.811 22.8693 372.321 22.0682 371.58 21.4716C370.847 20.8665 369.918 20.5639 368.793 20.5639C366.977 20.5639 365.58 21.3523 364.599 22.929C363.628 24.5057 363.138 26.6705 363.129 29.4233H363.308C363.726 28.6733 364.267 28.0298 364.932 27.4929C365.597 26.956 366.347 26.5426 367.182 26.2528C368.026 25.9545 368.916 25.8054 369.854 25.8054C371.388 25.8054 372.764 26.1719 373.983 26.9048C375.21 27.6378 376.182 28.6477 376.898 29.9347C377.614 31.2131 377.967 32.679 377.959 34.3324C377.967 36.054 377.575 37.6009 376.783 38.973C375.99 40.3366 374.886 41.4105 373.472 42.1946C372.057 42.9787 370.408 43.3665 368.524 43.358ZM368.499 39.5227C369.428 39.5227 370.259 39.2969 370.991 38.8452C371.724 38.3935 372.304 37.7841 372.73 37.017C373.156 36.25 373.365 35.3892 373.357 34.4347C373.365 33.4972 373.161 32.6491 372.743 31.8906C372.334 31.1321 371.767 30.5312 371.043 30.0881C370.318 29.6449 369.491 29.4233 368.562 29.4233C367.872 29.4233 367.229 29.5554 366.632 29.8196C366.036 30.0838 365.516 30.4503 365.072 30.919C364.629 31.3793 364.28 31.9162 364.024 32.5298C363.777 33.1349 363.649 33.7827 363.641 34.473C363.649 35.3849 363.862 36.2244 364.28 36.9915C364.697 37.7585 365.273 38.3722 366.006 38.8324C366.739 39.2926 367.57 39.5227 368.499 39.5227Z" fill="#F8F9FA"/>
<rect width="600" height="60" transform="translate(0 60)" fill="#106D93"/>
<path d="M231.747 103L236.043 76.8182H239.622L235.327 103H231.747ZM219.947 96.25L220.548 92.6705H240.696L240.095 96.25H219.947ZM222.543 103L226.838 76.8182H230.418L226.122 103H222.543ZM221.469 87.1477L222.057 83.5682H242.205L241.616 87.1477H221.469ZM255.644 76.8182V103H250.901V81.4332H250.748L244.624 85.3452V80.9986L251.131 76.8182H255.644ZM271.969 103.499C269.864 103.499 268.057 102.966 266.549 101.901C265.049 100.827 263.894 99.2798 263.084 97.2599C262.283 95.2315 261.882 92.7898 261.882 89.9347C261.891 87.0795 262.296 84.6506 263.097 82.6477C263.907 80.6364 265.061 79.1023 266.561 78.0455C268.07 76.9886 269.873 76.4602 271.969 76.4602C274.066 76.4602 275.868 76.9886 277.377 78.0455C278.885 79.1023 280.04 80.6364 280.841 82.6477C281.651 84.6591 282.056 87.0881 282.056 89.9347C282.056 92.7983 281.651 95.2443 280.841 97.2727C280.04 99.2926 278.885 100.835 277.377 101.901C275.877 102.966 274.074 103.499 271.969 103.499ZM271.969 99.4972C273.605 99.4972 274.897 98.6918 275.843 97.081C276.797 95.4616 277.275 93.0795 277.275 89.9347C277.275 87.8551 277.057 86.108 276.623 84.6932C276.188 83.2784 275.574 82.2131 274.782 81.4972C273.989 80.7727 273.051 80.4105 271.969 80.4105C270.341 80.4105 269.054 81.2202 268.108 82.8395C267.162 84.4503 266.685 86.8153 266.676 89.9347C266.668 92.0227 266.877 93.7784 267.303 95.2017C267.738 96.625 268.351 97.6989 269.144 98.4233C269.936 99.1392 270.878 99.4972 271.969 99.4972ZM295.891 103.358C294.638 103.349 293.415 103.132 292.222 102.706C291.029 102.271 289.955 101.568 289.001 100.597C288.046 99.6165 287.288 98.3168 286.725 96.6974C286.163 95.0696 285.886 93.054 285.894 90.6506C285.894 88.4091 286.133 86.4105 286.61 84.6548C287.087 82.8991 287.773 81.4162 288.668 80.206C289.563 78.9872 290.641 78.0582 291.903 77.419C293.173 76.7798 294.592 76.4602 296.16 76.4602C297.805 76.4602 299.262 76.7841 300.532 77.4318C301.81 78.0795 302.842 78.9659 303.626 80.0909C304.41 81.2074 304.896 82.4688 305.083 83.875H300.417C300.178 82.8693 299.688 82.0682 298.947 81.4716C298.214 80.8665 297.285 80.5639 296.16 80.5639C294.344 80.5639 292.947 81.3523 291.967 82.929C290.995 84.5057 290.505 86.6705 290.496 89.4233H290.675C291.093 88.6733 291.634 88.0298 292.299 87.4929C292.964 86.956 293.714 86.5426 294.549 86.2528C295.393 85.9545 296.283 85.8054 297.221 85.8054C298.755 85.8054 300.131 86.1719 301.35 86.9048C302.577 87.6378 303.549 88.6477 304.265 89.9347C304.981 91.2131 305.335 92.679 305.326 94.3324C305.335 96.054 304.942 97.6009 304.15 98.973C303.357 100.337 302.254 101.411 300.839 102.195C299.424 102.979 297.775 103.366 295.891 103.358ZM295.866 99.5227C296.795 99.5227 297.626 99.2969 298.359 98.8452C299.092 98.3935 299.671 97.7841 300.097 97.017C300.523 96.25 300.732 95.3892 300.724 94.4347C300.732 93.4972 300.528 92.6491 300.11 91.8906C299.701 91.1321 299.134 90.5312 298.41 90.0881C297.685 89.6449 296.859 89.4233 295.93 89.4233C295.239 89.4233 294.596 89.5554 293.999 89.8196C293.403 90.0838 292.883 90.4503 292.44 90.919C291.996 91.3793 291.647 91.9162 291.391 92.5298C291.144 93.1349 291.016 93.7827 291.008 94.473C291.016 95.3849 291.229 96.2244 291.647 96.9915C292.065 97.7585 292.64 98.3722 293.373 98.8324C294.106 99.2926 294.937 99.5227 295.866 99.5227ZM318.775 103H309.903V76.8182H318.954C321.553 76.8182 323.786 77.3423 325.653 78.3906C327.528 79.4304 328.968 80.9261 329.974 82.8778C330.979 84.8295 331.482 87.1648 331.482 89.8835C331.482 92.6108 330.975 94.9545 329.961 96.9148C328.955 98.875 327.502 100.379 325.602 101.428C323.71 102.476 321.434 103 318.775 103ZM314.646 98.8963H318.545C320.369 98.8963 321.89 98.5639 323.109 97.8991C324.327 97.2259 325.244 96.2244 325.857 94.8949C326.471 93.5568 326.778 91.8864 326.778 89.8835C326.778 87.8807 326.471 86.2187 325.857 84.8977C325.244 83.5682 324.336 82.5753 323.134 81.919C321.941 81.2543 320.458 80.9219 318.685 80.9219H314.646V98.8963ZM344.822 76.4602C346.075 76.4687 347.294 76.6903 348.479 77.125C349.672 77.5511 350.746 78.25 351.7 79.2216C352.655 80.1847 353.413 81.4759 353.976 83.0952C354.538 84.7145 354.82 86.7173 354.82 89.1037C354.828 91.3537 354.589 93.3651 354.104 95.1378C353.626 96.902 352.94 98.3935 352.045 99.6122C351.151 100.831 350.072 101.76 348.811 102.399C347.55 103.038 346.131 103.358 344.554 103.358C342.901 103.358 341.435 103.034 340.156 102.386C338.886 101.739 337.859 100.852 337.075 99.7273C336.291 98.6023 335.81 97.3153 335.631 95.8665H340.297C340.536 96.9062 341.021 97.733 341.754 98.3466C342.496 98.9517 343.429 99.2543 344.554 99.2543C346.369 99.2543 347.767 98.4659 348.747 96.8892C349.727 95.3125 350.217 93.1222 350.217 90.3182H350.038C349.621 91.0682 349.08 91.7159 348.415 92.2614C347.75 92.7983 346.996 93.2116 346.152 93.5014C345.317 93.7912 344.43 93.9361 343.493 93.9361C341.959 93.9361 340.578 93.5696 339.351 92.8366C338.132 92.1037 337.165 91.098 336.449 89.8196C335.741 88.5412 335.384 87.0795 335.375 85.4347C335.375 83.7301 335.767 82.2003 336.551 80.8452C337.344 79.4815 338.447 78.4077 339.862 77.6236C341.277 76.831 342.93 76.4432 344.822 76.4602ZM344.835 80.2955C343.915 80.2955 343.084 80.5213 342.342 80.973C341.609 81.4162 341.03 82.0213 340.604 82.7884C340.186 83.5469 339.977 84.3949 339.977 85.3324C339.986 86.2614 340.195 87.1051 340.604 87.8636C341.021 88.6222 341.588 89.223 342.304 89.6662C343.028 90.1094 343.855 90.331 344.784 90.331C345.474 90.331 346.118 90.1989 346.714 89.9347C347.311 89.6705 347.831 89.304 348.274 88.8352C348.726 88.358 349.075 87.8168 349.322 87.2116C349.578 86.6065 349.702 85.9673 349.693 85.294C349.693 84.3991 349.48 83.5724 349.054 82.8139C348.636 82.0554 348.061 81.446 347.328 80.9858C346.604 80.5256 345.773 80.2955 344.835 80.2955ZM368.473 103.358C366.632 103.358 364.996 103.043 363.564 102.412C362.141 101.781 361.016 100.903 360.189 99.7784C359.362 98.6534 358.923 97.3537 358.872 95.8793H363.679C363.722 96.5866 363.956 97.2045 364.382 97.733C364.808 98.2528 365.375 98.6577 366.082 98.9474C366.79 99.2372 367.582 99.3821 368.46 99.3821C369.398 99.3821 370.229 99.2202 370.953 98.8963C371.678 98.5639 372.244 98.1037 372.653 97.5156C373.063 96.9276 373.263 96.25 373.254 95.483C373.263 94.6903 373.058 93.9915 372.641 93.3864C372.223 92.7812 371.618 92.3082 370.825 91.9673C370.041 91.6264 369.095 91.456 367.987 91.456H365.673V87.7997H367.987C368.899 87.7997 369.696 87.642 370.378 87.3267C371.068 87.0114 371.609 86.5682 372.001 85.9972C372.393 85.4176 372.585 84.7486 372.577 83.9901C372.585 83.2486 372.419 82.6051 372.078 82.0597C371.746 81.5057 371.273 81.0753 370.659 80.7685C370.054 80.4616 369.342 80.3082 368.524 80.3082C367.723 80.3082 366.982 80.4531 366.3 80.7429C365.618 81.0327 365.068 81.446 364.651 81.983C364.233 82.5114 364.011 83.142 363.986 83.875H359.422C359.456 82.4091 359.878 81.1222 360.688 80.0142C361.506 78.8977 362.597 78.0284 363.96 77.4062C365.324 76.7756 366.854 76.4602 368.55 76.4602C370.297 76.4602 371.814 76.7884 373.101 77.4446C374.396 78.0923 375.398 78.9659 376.105 80.0653C376.813 81.1648 377.166 82.3793 377.166 83.7088C377.175 85.1832 376.74 86.419 375.862 87.4162C374.993 88.4134 373.851 89.0653 372.436 89.3722V89.5767C374.277 89.8324 375.688 90.5142 376.668 91.6222C377.656 92.7216 378.146 94.0895 378.138 95.7259C378.138 97.1918 377.72 98.5043 376.885 99.6634C376.058 100.814 374.916 101.717 373.459 102.374C372.01 103.03 370.348 103.358 368.473 103.358Z" fill="#F8F9FA"/>
<rect width="600" height="60" transform="translate(0 120)" fill="#48CAE4"/>
<path d="M227.747 163L232.043 136.818H235.622L231.327 163H227.747ZM215.947 156.25L216.548 152.67H236.696L236.095 156.25H215.947ZM218.543 163L222.838 136.818H226.418L222.122 163H218.543ZM217.469 147.148L218.057 143.568H238.205L237.616 147.148H217.469ZM240.522 158.142V154.371L251.631 136.818H254.776V142.188H252.858L245.38 154.038V154.243H260.887V158.142H240.522ZM253.012 163V156.991L253.063 155.304V136.818H257.537V163H253.012ZM274.278 163.358C272.377 163.358 270.69 163.038 269.216 162.399C267.75 161.76 266.599 160.886 265.764 159.778C264.937 158.662 264.528 157.396 264.537 155.982C264.528 154.882 264.767 153.872 265.252 152.952C265.738 152.031 266.395 151.264 267.221 150.651C268.056 150.028 268.985 149.632 270.008 149.462V149.283C268.662 148.984 267.571 148.298 266.735 147.224C265.909 146.142 265.5 144.893 265.508 143.479C265.5 142.132 265.875 140.93 266.633 139.874C267.392 138.817 268.431 137.986 269.752 137.381C271.074 136.767 272.582 136.46 274.278 136.46C275.957 136.46 277.453 136.767 278.765 137.381C280.086 137.986 281.126 138.817 281.885 139.874C282.652 140.93 283.035 142.132 283.035 143.479C283.035 144.893 282.613 146.142 281.77 147.224C280.934 148.298 279.856 148.984 278.535 149.283V149.462C279.558 149.632 280.478 150.028 281.297 150.651C282.123 151.264 282.779 152.031 283.265 152.952C283.76 153.872 284.007 154.882 284.007 155.982C284.007 157.396 283.589 158.662 282.754 159.778C281.919 160.886 280.768 161.76 279.302 162.399C277.845 163.038 276.17 163.358 274.278 163.358ZM274.278 159.702C275.258 159.702 276.11 159.536 276.835 159.203C277.559 158.862 278.122 158.385 278.522 157.771C278.923 157.158 279.127 156.45 279.136 155.649C279.127 154.814 278.91 154.077 278.484 153.438C278.066 152.79 277.491 152.283 276.758 151.916C276.034 151.55 275.207 151.366 274.278 151.366C273.341 151.366 272.505 151.55 271.772 151.916C271.039 152.283 270.46 152.79 270.034 153.438C269.616 154.077 269.412 154.814 269.42 155.649C269.412 156.45 269.608 157.158 270.008 157.771C270.409 158.376 270.971 158.849 271.696 159.19C272.429 159.531 273.289 159.702 274.278 159.702ZM274.278 147.774C275.079 147.774 275.787 147.612 276.4 147.288C277.022 146.964 277.512 146.513 277.87 145.933C278.228 145.354 278.412 144.685 278.42 143.926C278.412 143.176 278.233 142.52 277.883 141.957C277.534 141.386 277.048 140.947 276.426 140.641C275.804 140.325 275.088 140.168 274.278 140.168C273.451 140.168 272.723 140.325 272.092 140.641C271.47 140.947 270.984 141.386 270.635 141.957C270.294 142.52 270.127 143.176 270.136 143.926C270.127 144.685 270.298 145.354 270.647 145.933C271.005 146.504 271.495 146.956 272.118 147.288C272.748 147.612 273.468 147.774 274.278 147.774ZM310.876 145.652H306.094C305.958 144.868 305.707 144.173 305.34 143.568C304.974 142.955 304.518 142.435 303.972 142.009C303.427 141.582 302.805 141.263 302.106 141.05C301.415 140.828 300.67 140.717 299.869 140.717C298.445 140.717 297.184 141.075 296.085 141.791C294.985 142.499 294.124 143.538 293.502 144.911C292.88 146.274 292.569 147.94 292.569 149.909C292.569 151.912 292.88 153.599 293.502 154.972C294.133 156.335 294.994 157.366 296.085 158.065C297.184 158.756 298.441 159.101 299.856 159.101C300.64 159.101 301.373 158.999 302.055 158.794C302.745 158.581 303.363 158.27 303.908 157.861C304.462 157.452 304.927 156.949 305.302 156.352C305.685 155.756 305.95 155.074 306.094 154.307L310.876 154.332C310.697 155.577 310.309 156.744 309.712 157.835C309.124 158.926 308.353 159.889 307.398 160.724C306.444 161.551 305.327 162.199 304.049 162.668C302.771 163.128 301.352 163.358 299.792 163.358C297.491 163.358 295.437 162.825 293.63 161.76C291.823 160.695 290.4 159.156 289.36 157.145C288.32 155.134 287.8 152.722 287.8 149.909C287.8 147.088 288.325 144.676 289.373 142.673C290.421 140.662 291.849 139.124 293.656 138.058C295.462 136.993 297.508 136.46 299.792 136.46C301.249 136.46 302.604 136.665 303.857 137.074C305.11 137.483 306.227 138.084 307.207 138.876C308.187 139.661 308.992 140.624 309.623 141.766C310.262 142.899 310.68 144.195 310.876 145.652ZM318.265 163H313.202L322.42 136.818H328.275L337.505 163H332.442L325.45 142.188H325.245L318.265 163ZM318.431 152.734H332.238V156.544H318.431V152.734ZM340.953 163V136.818H357.982V140.794H345.696V147.902H357.1V151.878H345.696V159.024H358.084V163H340.953ZM362.092 158.142V154.371L373.201 136.818H376.346V142.188H374.429L366.95 154.038V154.243H382.457V158.142H362.092ZM374.582 163V156.991L374.633 155.304V136.818H379.108V163H374.582Z" fill="#F8F9FA"/>
<rect width="600" height="60" transform="translate(0 180)" fill="#2CADC8"/>
<path d="M224.747 223L229.043 196.818H232.622L228.327 223H224.747ZM212.947 216.25L213.548 212.67H233.696L233.095 216.25H212.947ZM215.543 223L219.838 196.818H223.418L219.122 223H215.543ZM214.469 207.148L215.057 203.568H235.205L234.616 207.148H214.469ZM237.995 223V219.574L247.084 210.663C247.953 209.786 248.678 209.006 249.257 208.324C249.837 207.642 250.272 206.982 250.561 206.342C250.851 205.703 250.996 205.021 250.996 204.297C250.996 203.47 250.809 202.763 250.434 202.175C250.059 201.578 249.543 201.118 248.887 200.794C248.23 200.47 247.485 200.308 246.65 200.308C245.789 200.308 245.034 200.487 244.387 200.845C243.739 201.195 243.236 201.693 242.878 202.341C242.529 202.989 242.354 203.76 242.354 204.655H237.841C237.841 202.993 238.221 201.548 238.979 200.321C239.738 199.094 240.782 198.143 242.111 197.47C243.449 196.797 244.983 196.46 246.713 196.46C248.469 196.46 250.012 196.788 251.341 197.445C252.671 198.101 253.702 199 254.435 200.142C255.176 201.284 255.547 202.588 255.547 204.054C255.547 205.034 255.36 205.997 254.985 206.943C254.61 207.889 253.949 208.937 253.003 210.088C252.066 211.239 250.749 212.632 249.053 214.268L244.54 218.858V219.037H255.944V223H237.995ZM283.02 205.652H278.239C278.103 204.868 277.851 204.173 277.485 203.568C277.118 202.955 276.662 202.435 276.117 202.009C275.571 201.582 274.949 201.263 274.25 201.05C273.56 200.828 272.814 200.717 272.013 200.717C270.59 200.717 269.328 201.075 268.229 201.791C267.13 202.499 266.269 203.538 265.647 204.911C265.025 206.274 264.713 207.94 264.713 209.909C264.713 211.912 265.025 213.599 265.647 214.972C266.277 216.335 267.138 217.366 268.229 218.065C269.328 218.756 270.586 219.101 272 219.101C272.784 219.101 273.517 218.999 274.199 218.794C274.89 218.581 275.507 218.27 276.053 217.861C276.607 217.452 277.071 216.949 277.446 216.352C277.83 215.756 278.094 215.074 278.239 214.307L283.02 214.332C282.841 215.577 282.453 216.744 281.857 217.835C281.269 218.926 280.498 219.889 279.543 220.724C278.588 221.551 277.472 222.199 276.194 222.668C274.915 223.128 273.496 223.358 271.936 223.358C269.635 223.358 267.581 222.825 265.775 221.76C263.968 220.695 262.544 219.156 261.505 217.145C260.465 215.134 259.945 212.722 259.945 209.909C259.945 207.088 260.469 204.676 261.517 202.673C262.566 200.662 263.993 199.124 265.8 198.058C267.607 196.993 269.652 196.46 271.936 196.46C273.394 196.46 274.749 196.665 276.002 197.074C277.255 197.483 278.371 198.084 279.351 198.876C280.331 199.661 281.137 200.624 281.767 201.766C282.407 202.899 282.824 204.195 283.02 205.652ZM290.409 223H285.347L294.564 196.818H300.419L309.65 223H304.587L297.594 202.188H297.39L290.409 223ZM290.576 212.734H304.382V216.544H290.576V212.734ZM321.97 223H313.098V196.818H322.149C324.749 196.818 326.982 197.342 328.848 198.391C330.723 199.43 332.163 200.926 333.169 202.878C334.175 204.83 334.678 207.165 334.678 209.884C334.678 212.611 334.17 214.955 333.156 216.915C332.151 218.875 330.697 220.379 328.797 221.428C326.905 222.476 324.629 223 321.97 223ZM317.841 218.896H321.74C323.564 218.896 325.085 218.564 326.304 217.899C327.523 217.226 328.439 216.224 329.053 214.895C329.666 213.557 329.973 211.886 329.973 209.884C329.973 207.881 329.666 206.219 329.053 204.898C328.439 203.568 327.531 202.575 326.33 201.919C325.136 201.254 323.653 200.922 321.881 200.922H317.841V218.896ZM361.594 205.652H356.813C356.677 204.868 356.425 204.173 356.059 203.568C355.692 202.955 355.237 202.435 354.691 202.009C354.146 201.582 353.523 201.263 352.825 201.05C352.134 200.828 351.388 200.717 350.587 200.717C349.164 200.717 347.903 201.075 346.803 201.791C345.704 202.499 344.843 203.538 344.221 204.911C343.599 206.274 343.288 207.94 343.288 209.909C343.288 211.912 343.599 213.599 344.221 214.972C344.852 216.335 345.712 217.366 346.803 218.065C347.903 218.756 349.16 219.101 350.575 219.101C351.359 219.101 352.092 218.999 352.773 218.794C353.464 218.581 354.082 218.27 354.627 217.861C355.181 217.452 355.646 216.949 356.021 216.352C356.404 215.756 356.668 215.074 356.813 214.307L361.594 214.332C361.415 215.577 361.028 216.744 360.431 217.835C359.843 218.926 359.072 219.889 358.117 220.724C357.163 221.551 356.046 222.199 354.768 222.668C353.489 223.128 352.07 223.358 350.511 223.358C348.21 223.358 346.156 222.825 344.349 221.76C342.542 220.695 341.119 219.156 340.079 217.145C339.039 215.134 338.519 212.722 338.519 209.909C338.519 207.088 339.043 204.676 340.092 202.673C341.14 200.662 342.567 199.124 344.374 198.058C346.181 196.993 348.227 196.46 350.511 196.46C351.968 196.46 353.323 196.665 354.576 197.074C355.829 197.483 356.945 198.084 357.925 198.876C358.906 199.661 359.711 200.624 360.342 201.766C360.981 202.899 361.398 204.195 361.594 205.652ZM374.989 223.358C373.088 223.358 371.401 223.038 369.926 222.399C368.461 221.76 367.31 220.886 366.475 219.778C365.648 218.662 365.239 217.396 365.248 215.982C365.239 214.882 365.478 213.872 365.963 212.952C366.449 212.031 367.105 211.264 367.932 210.651C368.767 210.028 369.696 209.632 370.719 209.462V209.283C369.373 208.984 368.282 208.298 367.446 207.224C366.62 206.142 366.211 204.893 366.219 203.479C366.211 202.132 366.586 200.93 367.344 199.874C368.103 198.817 369.142 197.986 370.463 197.381C371.784 196.767 373.293 196.46 374.989 196.46C376.668 196.46 378.164 196.767 379.476 197.381C380.797 197.986 381.837 198.817 382.596 199.874C383.363 200.93 383.746 202.132 383.746 203.479C383.746 204.893 383.324 206.142 382.48 207.224C381.645 208.298 380.567 208.984 379.246 209.283V209.462C380.269 209.632 381.189 210.028 382.007 210.651C382.834 211.264 383.49 212.031 383.976 212.952C384.471 213.872 384.718 214.882 384.718 215.982C384.718 217.396 384.3 218.662 383.465 219.778C382.63 220.886 381.479 221.76 380.013 222.399C378.556 223.038 376.881 223.358 374.989 223.358ZM374.989 219.702C375.969 219.702 376.821 219.536 377.546 219.203C378.27 218.862 378.833 218.385 379.233 217.771C379.634 217.158 379.838 216.45 379.847 215.649C379.838 214.814 379.621 214.077 379.195 213.438C378.777 212.79 378.202 212.283 377.469 211.916C376.745 211.55 375.918 211.366 374.989 211.366C374.051 211.366 373.216 211.55 372.483 211.916C371.75 212.283 371.171 212.79 370.745 213.438C370.327 214.077 370.123 214.814 370.131 215.649C370.123 216.45 370.319 217.158 370.719 217.771C371.12 218.376 371.682 218.849 372.407 219.19C373.14 219.531 374 219.702 374.989 219.702ZM374.989 207.774C375.79 207.774 376.498 207.612 377.111 207.288C377.733 206.964 378.223 206.513 378.581 205.933C378.939 205.354 379.123 204.685 379.131 203.926C379.123 203.176 378.944 202.52 378.594 201.957C378.245 201.386 377.759 200.947 377.137 200.641C376.515 200.325 375.799 200.168 374.989 200.168C374.162 200.168 373.434 200.325 372.803 200.641C372.181 200.947 371.695 201.386 371.346 201.957C371.005 202.52 370.838 203.176 370.847 203.926C370.838 204.685 371.009 205.354 371.358 205.933C371.716 206.504 372.206 206.956 372.828 207.288C373.459 207.612 374.179 207.774 374.989 207.774Z" fill="#F8F9FA"/>
<rect width="600" height="60" transform="translate(0 240)" fill="#45A6D9"/>
<path d="M227.747 283L232.043 256.818H235.622L231.327 283H227.747ZM215.947 276.25L216.548 272.67H236.696L236.095 276.25H215.947ZM218.543 283L222.838 256.818H226.418L222.122 283H218.543ZM217.469 267.148L218.057 263.568H238.205L237.616 267.148H217.469ZM240.522 278.142V274.371L251.631 256.818H254.776V262.188H252.858L245.38 274.038V274.243H260.887V278.142H240.522ZM253.012 283V276.991L253.063 275.304V256.818H257.537V283H253.012ZM274.074 283.358C272.369 283.358 270.843 283.038 269.497 282.399C268.15 281.751 267.081 280.865 266.288 279.74C265.504 278.615 265.086 277.328 265.035 275.879H269.637C269.723 276.953 270.187 277.831 271.031 278.513C271.875 279.186 272.889 279.523 274.074 279.523C275.002 279.523 275.829 279.31 276.554 278.884C277.278 278.457 277.849 277.865 278.267 277.107C278.684 276.348 278.889 275.483 278.88 274.511C278.889 273.523 278.68 272.645 278.254 271.878C277.828 271.111 277.244 270.51 276.502 270.075C275.761 269.632 274.909 269.411 273.946 269.411C273.162 269.402 272.39 269.547 271.632 269.845C270.873 270.143 270.272 270.536 269.829 271.021L265.547 270.318L266.914 256.818H282.102V260.781H270.839L270.085 267.723H270.238C270.724 267.152 271.41 266.679 272.297 266.304C273.183 265.92 274.154 265.729 275.211 265.729C276.797 265.729 278.211 266.104 279.456 266.854C280.7 267.595 281.68 268.618 282.396 269.922C283.112 271.226 283.47 272.717 283.47 274.396C283.47 276.126 283.069 277.669 282.268 279.024C281.475 280.371 280.372 281.432 278.957 282.207C277.551 282.974 275.923 283.358 274.074 283.358ZM291.37 283H286.308L295.525 256.818H301.38L310.61 283H305.548L298.555 262.188H298.35L291.37 283ZM291.537 272.734H305.343V276.544H291.537V272.734ZM323.391 283.358C322.138 283.349 320.915 283.132 319.722 282.706C318.529 282.271 317.455 281.568 316.501 280.597C315.546 279.616 314.788 278.317 314.225 276.697C313.663 275.07 313.386 273.054 313.394 270.651C313.394 268.409 313.633 266.411 314.11 264.655C314.587 262.899 315.273 261.416 316.168 260.206C317.063 258.987 318.141 258.058 319.403 257.419C320.673 256.78 322.092 256.46 323.66 256.46C325.305 256.46 326.762 256.784 328.032 257.432C329.31 258.08 330.342 258.966 331.126 260.091C331.91 261.207 332.396 262.469 332.583 263.875H327.917C327.678 262.869 327.188 262.068 326.447 261.472C325.714 260.866 324.785 260.564 323.66 260.564C321.844 260.564 320.447 261.352 319.467 262.929C318.495 264.506 318.005 266.67 317.996 269.423H318.175C318.593 268.673 319.134 268.03 319.799 267.493C320.464 266.956 321.214 266.543 322.049 266.253C322.893 265.955 323.783 265.805 324.721 265.805C326.255 265.805 327.631 266.172 328.85 266.905C330.077 267.638 331.049 268.648 331.765 269.935C332.481 271.213 332.835 272.679 332.826 274.332C332.835 276.054 332.442 277.601 331.65 278.973C330.857 280.337 329.754 281.411 328.339 282.195C326.924 282.979 325.275 283.366 323.391 283.358ZM323.366 279.523C324.295 279.523 325.126 279.297 325.859 278.845C326.592 278.393 327.171 277.784 327.597 277.017C328.023 276.25 328.232 275.389 328.224 274.435C328.232 273.497 328.028 272.649 327.61 271.891C327.201 271.132 326.634 270.531 325.91 270.088C325.185 269.645 324.359 269.423 323.43 269.423C322.739 269.423 322.096 269.555 321.499 269.82C320.903 270.084 320.383 270.45 319.94 270.919C319.496 271.379 319.147 271.916 318.891 272.53C318.644 273.135 318.516 273.783 318.508 274.473C318.516 275.385 318.729 276.224 319.147 276.991C319.565 277.759 320.14 278.372 320.873 278.832C321.606 279.293 322.437 279.523 323.366 279.523ZM346.275 283H337.403V256.818H346.454C349.053 256.818 351.286 257.342 353.153 258.391C355.028 259.43 356.468 260.926 357.474 262.878C358.479 264.83 358.982 267.165 358.982 269.884C358.982 272.611 358.475 274.955 357.461 276.915C356.455 278.875 355.002 280.379 353.102 281.428C351.21 282.476 348.934 283 346.275 283ZM342.146 278.896H346.045C347.869 278.896 349.39 278.564 350.609 277.899C351.827 277.226 352.744 276.224 353.357 274.895C353.971 273.557 354.278 271.886 354.278 269.884C354.278 267.881 353.971 266.219 353.357 264.898C352.744 263.568 351.836 262.575 350.634 261.919C349.441 261.254 347.958 260.922 346.185 260.922H342.146V278.896ZM372.322 256.46C373.575 256.469 374.794 256.69 375.979 257.125C377.172 257.551 378.246 258.25 379.2 259.222C380.155 260.185 380.913 261.476 381.476 263.095C382.038 264.714 382.32 266.717 382.32 269.104C382.328 271.354 382.089 273.365 381.604 275.138C381.126 276.902 380.44 278.393 379.545 279.612C378.651 280.831 377.572 281.76 376.311 282.399C375.05 283.038 373.631 283.358 372.054 283.358C370.401 283.358 368.935 283.034 367.656 282.386C366.386 281.739 365.359 280.852 364.575 279.727C363.791 278.602 363.31 277.315 363.131 275.866H367.797C368.036 276.906 368.521 277.733 369.254 278.347C369.996 278.952 370.929 279.254 372.054 279.254C373.869 279.254 375.267 278.466 376.247 276.889C377.227 275.312 377.717 273.122 377.717 270.318H377.538C377.121 271.068 376.58 271.716 375.915 272.261C375.25 272.798 374.496 273.212 373.652 273.501C372.817 273.791 371.93 273.936 370.993 273.936C369.459 273.936 368.078 273.57 366.851 272.837C365.632 272.104 364.665 271.098 363.949 269.82C363.241 268.541 362.884 267.08 362.875 265.435C362.875 263.73 363.267 262.2 364.051 260.845C364.844 259.482 365.947 258.408 367.362 257.624C368.777 256.831 370.43 256.443 372.322 256.46ZM372.335 260.295C371.415 260.295 370.584 260.521 369.842 260.973C369.109 261.416 368.53 262.021 368.104 262.788C367.686 263.547 367.477 264.395 367.477 265.332C367.486 266.261 367.695 267.105 368.104 267.864C368.521 268.622 369.088 269.223 369.804 269.666C370.528 270.109 371.355 270.331 372.284 270.331C372.974 270.331 373.618 270.199 374.214 269.935C374.811 269.67 375.331 269.304 375.774 268.835C376.226 268.358 376.575 267.817 376.822 267.212C377.078 266.607 377.202 265.967 377.193 265.294C377.193 264.399 376.98 263.572 376.554 262.814C376.136 262.055 375.561 261.446 374.828 260.986C374.104 260.526 373.273 260.295 372.335 260.295Z" fill="#F8F9FA"/>
<rect width="600" height="60" transform="translate(0 300)" fill="#F8F9FA"/>
<path d="M234.247 343L238.543 316.818H242.122L237.827 343H234.247ZM222.447 336.25L223.048 332.67H243.196L242.595 336.25H222.447ZM225.043 343L229.338 316.818H232.918L228.622 343H225.043ZM223.969 327.148L224.557 323.568H244.705L244.116 327.148H223.969ZM247.75 343V316.818H264.523V320.794H252.493V327.902H263.373V331.878H252.493V343H247.75ZM277.895 343.358C275.995 343.358 274.307 343.038 272.833 342.399C271.367 341.76 270.216 340.886 269.381 339.778C268.554 338.662 268.145 337.396 268.154 335.982C268.145 334.882 268.384 333.872 268.87 332.952C269.355 332.031 270.012 331.264 270.838 330.651C271.674 330.028 272.603 329.632 273.625 329.462V329.283C272.279 328.984 271.188 328.298 270.353 327.224C269.526 326.142 269.117 324.893 269.125 323.479C269.117 322.132 269.492 320.93 270.25 319.874C271.009 318.817 272.049 317.986 273.37 317.381C274.691 316.767 276.199 316.46 277.895 316.46C279.574 316.46 281.07 316.767 282.382 317.381C283.703 317.986 284.743 318.817 285.502 319.874C286.269 320.93 286.652 322.132 286.652 323.479C286.652 324.893 286.23 326.142 285.387 327.224C284.551 328.298 283.473 328.984 282.152 329.283V329.462C283.175 329.632 284.096 330.028 284.914 330.651C285.74 331.264 286.397 332.031 286.882 332.952C287.377 333.872 287.624 334.882 287.624 335.982C287.624 337.396 287.206 338.662 286.371 339.778C285.536 340.886 284.385 341.76 282.919 342.399C281.462 343.038 279.787 343.358 277.895 343.358ZM277.895 339.702C278.875 339.702 279.728 339.536 280.452 339.203C281.176 338.862 281.739 338.385 282.14 337.771C282.54 337.158 282.745 336.45 282.753 335.649C282.745 334.814 282.527 334.077 282.101 333.438C281.684 332.79 281.108 332.283 280.375 331.916C279.651 331.55 278.824 331.366 277.895 331.366C276.958 331.366 276.123 331.55 275.39 331.916C274.657 332.283 274.077 332.79 273.651 333.438C273.233 334.077 273.029 334.814 273.037 335.649C273.029 336.45 273.225 337.158 273.625 337.771C274.026 338.376 274.588 338.849 275.313 339.19C276.046 339.531 276.907 339.702 277.895 339.702ZM277.895 327.774C278.696 327.774 279.404 327.612 280.017 327.288C280.64 326.964 281.13 326.513 281.488 325.933C281.846 325.354 282.029 324.685 282.037 323.926C282.029 323.176 281.85 322.52 281.5 321.957C281.151 321.386 280.665 320.947 280.043 320.641C279.421 320.325 278.705 320.168 277.895 320.168C277.069 320.168 276.34 320.325 275.709 320.641C275.087 320.947 274.601 321.386 274.252 321.957C273.911 322.52 273.745 323.176 273.753 323.926C273.745 324.685 273.915 325.354 274.265 325.933C274.623 326.504 275.113 326.956 275.735 327.288C276.365 327.612 277.086 327.774 277.895 327.774ZM292.082 343V316.818H308.855V320.794H296.825V327.902H307.705V331.878H296.825V343H292.082ZM322.01 316.46C323.263 316.469 324.482 316.69 325.666 317.125C326.859 317.551 327.933 318.25 328.888 319.222C329.842 320.185 330.601 321.476 331.163 323.095C331.726 324.714 332.007 326.717 332.007 329.104C332.016 331.354 331.777 333.365 331.291 335.138C330.814 336.902 330.128 338.393 329.233 339.612C328.338 340.831 327.26 341.76 325.999 342.399C324.737 343.038 323.318 343.358 321.741 343.358C320.088 343.358 318.622 343.034 317.344 342.386C316.074 341.739 315.047 340.852 314.263 339.727C313.479 338.602 312.997 337.315 312.818 335.866H317.484C317.723 336.906 318.209 337.733 318.942 338.347C319.683 338.952 320.616 339.254 321.741 339.254C323.557 339.254 324.955 338.466 325.935 336.889C326.915 335.312 327.405 333.122 327.405 330.318H327.226C326.808 331.068 326.267 331.716 325.602 332.261C324.938 332.798 324.183 333.212 323.339 333.501C322.504 333.791 321.618 333.936 320.68 333.936C319.146 333.936 317.766 333.57 316.538 332.837C315.32 332.104 314.352 331.098 313.636 329.82C312.929 328.541 312.571 327.08 312.562 325.435C312.562 323.73 312.955 322.2 313.739 320.845C314.531 319.482 315.635 318.408 317.05 317.624C318.464 316.831 320.118 316.443 322.01 316.46ZM322.023 320.295C321.102 320.295 320.271 320.521 319.53 320.973C318.797 321.416 318.217 322.021 317.791 322.788C317.374 323.547 317.165 324.395 317.165 325.332C317.173 326.261 317.382 327.105 317.791 327.864C318.209 328.622 318.776 329.223 319.491 329.666C320.216 330.109 321.043 330.331 321.972 330.331C322.662 330.331 323.305 330.199 323.902 329.935C324.499 329.67 325.018 329.304 325.462 328.835C325.913 328.358 326.263 327.817 326.51 327.212C326.766 326.607 326.889 325.967 326.881 325.294C326.881 324.399 326.668 323.572 326.241 322.814C325.824 322.055 325.249 321.446 324.516 320.986C323.791 320.526 322.96 320.295 322.023 320.295ZM336.52 343V316.818H353.293V320.794H341.263V327.902H352.142V331.878H341.263V343H336.52ZM357.706 343H352.644L361.861 316.818H367.716L376.946 343H371.884L364.891 322.188H364.686L357.706 343ZM357.873 332.734H371.679V336.544H357.873V332.734Z" fill="black"/>
<rect width="600" height="60" transform="translate(0 360)" fill="#E6EDF2"/>
<path d="M232.247 403L236.543 376.818H240.122L235.827 403H232.247ZM220.447 396.25L221.048 392.67H241.196L240.595 396.25H220.447ZM223.043 403L227.338 376.818H230.918L226.622 403H223.043ZM221.969 387.148L222.557 383.568H242.705L242.116 387.148H221.969ZM245.75 403V376.818H262.779V380.794H250.493V387.902H261.897V391.878H250.493V399.024H262.881V403H245.75ZM276.95 403.358C275.697 403.349 274.474 403.132 273.281 402.706C272.088 402.271 271.014 401.568 270.059 400.597C269.105 399.616 268.346 398.317 267.784 396.697C267.221 395.07 266.944 393.054 266.953 390.651C266.953 388.409 267.191 386.411 267.669 384.655C268.146 382.899 268.832 381.416 269.727 380.206C270.622 378.987 271.7 378.058 272.961 377.419C274.231 376.78 275.65 376.46 277.218 376.46C278.863 376.46 280.321 376.784 281.591 377.432C282.869 378.08 283.9 378.966 284.684 380.091C285.468 381.207 285.954 382.469 286.142 383.875H281.475C281.237 382.869 280.747 382.068 280.005 381.472C279.272 380.866 278.343 380.564 277.218 380.564C275.403 380.564 274.005 381.352 273.025 382.929C272.054 384.506 271.564 386.67 271.555 389.423H271.734C272.152 388.673 272.693 388.03 273.358 387.493C274.022 386.956 274.772 386.543 275.608 386.253C276.451 385.955 277.342 385.805 278.279 385.805C279.814 385.805 281.19 386.172 282.409 386.905C283.636 387.638 284.608 388.648 285.324 389.935C286.039 391.213 286.393 392.679 286.385 394.332C286.393 396.054 286.001 397.601 285.208 398.973C284.416 400.337 283.312 401.411 281.897 402.195C280.483 402.979 278.833 403.366 276.95 403.358ZM276.924 399.523C277.853 399.523 278.684 399.297 279.417 398.845C280.15 398.393 280.73 397.784 281.156 397.017C281.582 396.25 281.791 395.389 281.782 394.435C281.791 393.497 281.586 392.649 281.169 391.891C280.76 391.132 280.193 390.531 279.468 390.088C278.744 389.645 277.917 389.423 276.988 389.423C276.298 389.423 275.654 389.555 275.058 389.82C274.461 390.084 273.941 390.45 273.498 390.919C273.055 391.379 272.706 391.916 272.45 392.53C272.203 393.135 272.075 393.783 272.066 394.473C272.075 395.385 272.288 396.224 272.706 396.991C273.123 397.759 273.699 398.372 274.431 398.832C275.164 399.293 275.995 399.523 276.924 399.523ZM290.961 403V376.818H307.99V380.794H295.704V387.902H307.108V391.878H295.704V399.024H308.092V403H290.961ZM321.701 403H312.828V376.818H321.88C324.479 376.818 326.712 377.342 328.578 378.391C330.453 379.43 331.894 380.926 332.9 382.878C333.905 384.83 334.408 387.165 334.408 389.884C334.408 392.611 333.901 394.955 332.887 396.915C331.881 398.875 330.428 400.379 328.527 401.428C326.635 402.476 324.36 403 321.701 403ZM317.571 398.896H321.471C323.294 398.896 324.816 398.564 326.034 397.899C327.253 397.226 328.169 396.224 328.783 394.895C329.397 393.557 329.703 391.886 329.703 389.884C329.703 387.881 329.397 386.219 328.783 384.898C328.169 383.568 327.262 382.575 326.06 381.919C324.867 381.254 323.384 380.922 321.611 380.922H317.571V398.896ZM338.914 403V376.818H355.687V380.794H343.657V387.902H354.537V391.878H343.657V403H338.914ZM359.752 403V399.574L368.842 390.663C369.711 389.786 370.436 389.006 371.015 388.324C371.595 387.642 372.029 386.982 372.319 386.342C372.609 385.703 372.754 385.021 372.754 384.297C372.754 383.47 372.566 382.763 372.191 382.175C371.816 381.578 371.301 381.118 370.645 380.794C369.988 380.47 369.243 380.308 368.407 380.308C367.547 380.308 366.792 380.487 366.145 380.845C365.497 381.195 364.994 381.693 364.636 382.341C364.287 382.989 364.112 383.76 364.112 384.655H359.599C359.599 382.993 359.978 381.548 360.737 380.321C361.495 379.094 362.539 378.143 363.869 377.47C365.207 376.797 366.741 376.46 368.471 376.46C370.227 376.46 371.77 376.788 373.099 377.445C374.429 378.101 375.46 379 376.193 380.142C376.934 381.284 377.305 382.588 377.305 384.054C377.305 385.034 377.118 385.997 376.743 386.943C376.368 387.889 375.707 388.937 374.761 390.088C373.824 391.239 372.507 392.632 370.811 394.268L366.298 398.858V399.037H377.701V403H359.752Z" fill="black"/>
<rect width="600" height="60" transform="translate(0 420)" fill="#ACACB2"/>
<path d="M225.747 463L230.043 436.818H233.622L229.327 463H225.747ZM213.947 456.25L214.548 452.67H234.696L234.095 456.25H213.947ZM216.543 463L220.838 436.818H224.418L220.122 463H216.543ZM215.469 447.148L216.057 443.568H236.205L235.616 447.148H215.469ZM242.613 463H237.55L246.767 436.818H252.623L261.853 463H256.79L249.797 442.188H249.593L242.613 463ZM242.779 452.734H256.586V456.544H242.779V452.734ZM286.481 445.652H281.7C281.564 444.868 281.312 444.173 280.946 443.568C280.579 442.955 280.123 442.435 279.578 442.009C279.032 441.582 278.41 441.263 277.711 441.05C277.021 440.828 276.275 440.717 275.474 440.717C274.051 440.717 272.789 441.075 271.69 441.791C270.591 442.499 269.73 443.538 269.108 444.911C268.485 446.274 268.174 447.94 268.174 449.909C268.174 451.912 268.485 453.599 269.108 454.972C269.738 456.335 270.599 457.366 271.69 458.065C272.789 458.756 274.047 459.101 275.461 459.101C276.245 459.101 276.978 458.999 277.66 458.794C278.35 458.581 278.968 458.27 279.514 457.861C280.068 457.452 280.532 456.949 280.907 456.352C281.291 455.756 281.555 455.074 281.7 454.307L286.481 454.332C286.302 455.577 285.914 456.744 285.318 457.835C284.73 458.926 283.958 459.889 283.004 460.724C282.049 461.551 280.933 462.199 279.654 462.668C278.376 463.128 276.957 463.358 275.397 463.358C273.096 463.358 271.042 462.825 269.235 461.76C267.429 460.695 266.005 459.156 264.966 457.145C263.926 455.134 263.406 452.722 263.406 449.909C263.406 447.088 263.93 444.676 264.978 442.673C266.027 440.662 267.454 439.124 269.261 438.058C271.068 436.993 273.113 436.46 275.397 436.46C276.855 436.46 278.21 436.665 279.463 437.074C280.716 437.483 281.832 438.084 282.812 438.876C283.792 439.661 284.598 440.624 285.228 441.766C285.868 442.899 286.285 444.195 286.481 445.652ZM293.87 463H288.808L298.025 436.818H303.88L313.11 463H308.048L301.055 442.188H300.85L293.87 463ZM294.037 452.734H307.843V456.544H294.037V452.734ZM337.739 445.652H332.958C332.821 444.868 332.57 444.173 332.203 443.568C331.837 442.955 331.381 442.435 330.836 442.009C330.29 441.582 329.668 441.263 328.969 441.05C328.279 440.828 327.533 440.717 326.732 440.717C325.309 440.717 324.047 441.075 322.948 441.791C321.848 442.499 320.988 443.538 320.365 444.911C319.743 446.274 319.432 447.94 319.432 449.909C319.432 451.912 319.743 453.599 320.365 454.972C320.996 456.335 321.857 457.366 322.948 458.065C324.047 458.756 325.304 459.101 326.719 459.101C327.503 459.101 328.236 458.999 328.918 458.794C329.608 458.581 330.226 458.27 330.772 457.861C331.326 457.452 331.79 456.949 332.165 456.352C332.549 455.756 332.813 455.074 332.958 454.307L337.739 454.332C337.56 455.577 337.172 456.744 336.576 457.835C335.988 458.926 335.216 459.889 334.262 460.724C333.307 461.551 332.191 462.199 330.912 462.668C329.634 463.128 328.215 463.358 326.655 463.358C324.354 463.358 322.3 462.825 320.493 461.76C318.686 460.695 317.263 459.156 316.223 457.145C315.184 455.134 314.664 452.722 314.664 449.909C314.664 447.088 315.188 444.676 316.236 442.673C317.284 440.662 318.712 439.124 320.519 438.058C322.326 436.993 324.371 436.46 326.655 436.46C328.113 436.46 329.468 436.665 330.721 437.074C331.973 437.483 333.09 438.084 334.07 438.876C335.05 439.661 335.855 440.624 336.486 441.766C337.125 442.899 337.543 444.195 337.739 445.652ZM342.082 463V436.818H352.105C353.997 436.818 355.57 437.116 356.822 437.713C358.084 438.301 359.026 439.107 359.648 440.129C360.278 441.152 360.594 442.311 360.594 443.607C360.594 444.672 360.389 445.584 359.98 446.342C359.571 447.092 359.021 447.702 358.331 448.17C357.641 448.639 356.869 448.976 356.017 449.18V449.436C356.946 449.487 357.837 449.773 358.689 450.293C359.55 450.804 360.253 451.528 360.798 452.466C361.344 453.403 361.616 454.537 361.616 455.866C361.616 457.222 361.288 458.44 360.632 459.523C359.976 460.597 358.987 461.445 357.666 462.067C356.345 462.689 354.683 463 352.68 463H342.082ZM346.825 459.037H351.926C353.648 459.037 354.888 458.709 355.646 458.053C356.413 457.388 356.797 456.536 356.797 455.496C356.797 454.72 356.605 454.021 356.222 453.399C355.838 452.768 355.293 452.274 354.585 451.916C353.878 451.55 353.034 451.366 352.054 451.366H346.825V459.037ZM346.825 447.953H351.517C352.335 447.953 353.072 447.804 353.729 447.506C354.385 447.199 354.901 446.768 355.276 446.214C355.659 445.652 355.851 444.987 355.851 444.22C355.851 443.206 355.493 442.371 354.777 441.714C354.07 441.058 353.017 440.73 351.619 440.73H346.825V447.953ZM365.487 463V459.574L374.576 450.663C375.446 449.786 376.17 449.006 376.75 448.324C377.329 447.642 377.764 446.982 378.054 446.342C378.343 445.703 378.488 445.021 378.488 444.297C378.488 443.47 378.301 442.763 377.926 442.175C377.551 441.578 377.035 441.118 376.379 440.794C375.723 440.47 374.977 440.308 374.142 440.308C373.281 440.308 372.527 440.487 371.879 440.845C371.231 441.195 370.728 441.693 370.37 442.341C370.021 442.989 369.846 443.76 369.846 444.655H365.333C365.333 442.993 365.713 441.548 366.471 440.321C367.23 439.094 368.274 438.143 369.603 437.47C370.941 436.797 372.475 436.46 374.206 436.46C375.961 436.46 377.504 436.788 378.833 437.445C380.163 438.101 381.194 439 381.927 440.142C382.669 441.284 383.039 442.588 383.039 444.054C383.039 445.034 382.852 445.997 382.477 446.943C382.102 447.889 381.441 448.937 380.495 450.088C379.558 451.239 378.241 452.632 376.545 454.268L372.032 458.858V459.037H383.436V463H365.487Z" fill="black"/>
<rect width="600" height="60" transform="translate(0 480)" fill="#4A4A4F"/>
<path d="M227.747 523L232.043 496.818H235.622L231.327 523H227.747ZM215.947 516.25L216.548 512.67H236.696L236.095 516.25H215.947ZM218.543 523L222.838 496.818H226.418L222.122 523H218.543ZM217.469 507.148L218.057 503.568H238.205L237.616 507.148H217.469ZM240.522 518.142V514.371L251.631 496.818H254.776V502.188H252.858L245.38 514.038V514.243H260.887V518.142H240.522ZM253.012 523V516.991L253.063 515.304V496.818H257.537V523H253.012ZM268.589 523H263.527L272.744 496.818H278.599L287.829 523H282.767L275.774 502.188H275.569L268.589 523ZM268.755 512.734H282.562V516.544H268.755V512.734ZM290.549 518.142V514.371L301.658 496.818H304.803V502.188H302.886L295.407 514.038V514.243H310.914V518.142H290.549ZM303.039 523V516.991L303.09 515.304V496.818H307.565V523H303.039ZM318.616 523H313.554L322.771 496.818H328.626L337.857 523H332.794L325.801 502.188H325.597L318.616 523ZM318.783 512.734H332.589V516.544H318.783V512.734ZM340.576 518.142V514.371L351.686 496.818H354.831V502.188H352.913L345.434 514.038V514.243H360.941V518.142H340.576ZM353.066 523V516.991L353.118 515.304V496.818H357.592V523H353.066ZM365.282 523V496.818H382.054V500.794H370.025V507.902H380.904V511.878H370.025V523H365.282Z" fill="white"/>
<rect width="600" height="60" transform="translate(0 540)" fill="#1E1E2F"/>
<path d="M239.747 583L244.043 556.818H247.622L243.327 583H239.747ZM227.947 576.25L228.548 572.67H248.696L248.095 576.25H227.947ZM230.543 583L234.838 556.818H238.418L234.122 583H230.543ZM229.469 567.148L230.057 563.568H250.205L249.616 567.148H229.469ZM263.644 556.818V583H258.901V561.433H258.748L252.624 565.345V560.999L259.131 556.818H263.644ZM270.547 583V556.818H287.576V560.794H275.29V567.902H286.694V571.878H275.29V579.024H287.678V583H270.547ZM302.808 556.818V583H298.065V561.433H297.912L291.788 565.345V560.999L298.295 556.818H302.808ZM309.711 583V556.818H326.74V560.794H314.454V567.902H325.858V571.878H314.454V579.024H326.842V583H309.711ZM331.323 583V579.574L340.412 570.663C341.282 569.786 342.006 569.006 342.586 568.324C343.165 567.642 343.6 566.982 343.89 566.342C344.179 565.703 344.324 565.021 344.324 564.297C344.324 563.47 344.137 562.763 343.762 562.175C343.387 561.578 342.871 561.118 342.215 560.794C341.559 560.47 340.813 560.308 339.978 560.308C339.117 560.308 338.363 560.487 337.715 560.845C337.067 561.195 336.564 561.693 336.206 562.341C335.857 562.989 335.682 563.76 335.682 564.655H331.169C331.169 562.993 331.549 561.548 332.307 560.321C333.066 559.094 334.11 558.143 335.439 557.47C336.777 556.797 338.311 556.46 340.042 556.46C341.797 556.46 343.34 556.788 344.669 557.445C345.999 558.101 347.03 559 347.763 560.142C348.505 561.284 348.875 562.588 348.875 564.054C348.875 565.034 348.688 565.997 348.313 566.943C347.938 567.889 347.277 568.937 346.331 570.088C345.394 571.239 344.077 572.632 342.381 574.268L337.868 578.858V579.037H349.272V583H331.323ZM353.938 583V556.818H370.711V560.794H358.681V567.902H369.56V571.878H358.681V583H353.938Z" fill="white"/>
<rect width="600" height="60" transform="translate(0 600)" fill="#1A1A1B"/>
<path d="M237.747 643L242.043 616.818H245.622L241.327 643H237.747ZM225.947 636.25L226.548 632.67H246.696L246.095 636.25H225.947ZM228.543 643L232.838 616.818H236.418L232.122 643H228.543ZM227.469 627.148L228.057 623.568H248.205L247.616 627.148H227.469ZM261.644 616.818V643H256.901V621.433H256.748L250.624 625.345V620.999L257.131 616.818H261.644ZM271.909 643H266.847L276.064 616.818H281.919L291.15 643H286.087L279.094 622.188H278.89L271.909 643ZM272.076 632.734H285.882V636.544H272.076V632.734ZM303.761 616.818V643H299.018V621.433H298.865L292.741 625.345V620.999L299.248 616.818H303.761ZM314.027 643H308.964L318.181 616.818H324.037L333.267 643H328.204L321.211 622.188H321.007L314.027 643ZM314.193 632.734H328V636.544H314.193V632.734ZM345.878 616.818V643H341.135V621.433H340.982L334.858 625.345V620.999L341.365 616.818H345.878ZM352.782 643V616.818H362.804C364.696 616.818 366.269 617.116 367.522 617.713C368.783 618.301 369.725 619.107 370.347 620.129C370.978 621.152 371.293 622.311 371.293 623.607C371.293 624.672 371.088 625.584 370.679 626.342C370.27 627.092 369.721 627.702 369.03 628.17C368.34 628.639 367.569 628.976 366.716 629.18V629.436C367.645 629.487 368.536 629.773 369.388 630.293C370.249 630.804 370.952 631.528 371.498 632.466C372.043 633.403 372.316 634.537 372.316 635.866C372.316 637.222 371.988 638.44 371.331 639.523C370.675 640.597 369.686 641.445 368.365 642.067C367.044 642.689 365.382 643 363.38 643H352.782ZM357.525 639.037H362.625C364.347 639.037 365.587 638.709 366.346 638.053C367.113 637.388 367.496 636.536 367.496 635.496C367.496 634.72 367.304 634.021 366.921 633.399C366.537 632.768 365.992 632.274 365.284 631.916C364.577 631.55 363.733 631.366 362.753 631.366H357.525V639.037ZM357.525 627.953H362.216C363.034 627.953 363.772 627.804 364.428 627.506C365.084 627.199 365.6 626.768 365.975 626.214C366.358 625.652 366.55 624.987 366.55 624.22C366.55 623.206 366.192 622.371 365.476 621.714C364.769 621.058 363.716 620.73 362.319 620.73H357.525V627.953Z" fill="white"/>
<rect width="600" height="60" transform="translate(0 660)" fill="#E63946"/>
<path d="M230.747 703L235.043 676.818H238.622L234.327 703H230.747ZM218.947 696.25L219.548 692.67H239.696L239.095 696.25H218.947ZM221.543 703L225.838 676.818H229.418L225.122 703H221.543ZM220.469 687.148L221.057 683.568H241.205L240.616 687.148H220.469ZM244.25 703V676.818H261.279V680.794H248.993V687.902H260.397V691.878H248.993V699.024H261.381V703H244.25ZM275.45 703.358C274.197 703.349 272.974 703.132 271.781 702.706C270.588 702.271 269.514 701.568 268.559 700.597C267.605 699.616 266.846 698.317 266.284 696.697C265.721 695.07 265.444 693.054 265.453 690.651C265.453 688.409 265.691 686.411 266.169 684.655C266.646 682.899 267.332 681.416 268.227 680.206C269.122 678.987 270.2 678.058 271.461 677.419C272.731 676.78 274.15 676.46 275.718 676.46C277.363 676.46 278.821 676.784 280.091 677.432C281.369 678.08 282.4 678.966 283.184 680.091C283.968 681.207 284.454 682.469 284.642 683.875H279.975C279.737 682.869 279.247 682.068 278.505 681.472C277.772 680.866 276.843 680.564 275.718 680.564C273.903 680.564 272.505 681.352 271.525 682.929C270.554 684.506 270.064 686.67 270.055 689.423H270.234C270.652 688.673 271.193 688.03 271.858 687.493C272.522 686.956 273.272 686.543 274.108 686.253C274.951 685.955 275.842 685.805 276.779 685.805C278.314 685.805 279.69 686.172 280.909 686.905C282.136 687.638 283.108 688.648 283.824 689.935C284.539 691.213 284.893 692.679 284.885 694.332C284.893 696.054 284.501 697.601 283.708 698.973C282.916 700.337 281.812 701.411 280.397 702.195C278.983 702.979 277.333 703.366 275.45 703.358ZM275.424 699.523C276.353 699.523 277.184 699.297 277.917 698.845C278.65 698.393 279.23 697.784 279.656 697.017C280.082 696.25 280.291 695.389 280.282 694.435C280.291 693.497 280.086 692.649 279.669 691.891C279.26 691.132 278.693 690.531 277.968 690.088C277.244 689.645 276.417 689.423 275.488 689.423C274.798 689.423 274.154 689.555 273.558 689.82C272.961 690.084 272.441 690.45 271.998 690.919C271.555 691.379 271.206 691.916 270.95 692.53C270.703 693.135 270.575 693.783 270.566 694.473C270.575 695.385 270.788 696.224 271.206 696.991C271.623 697.759 272.199 698.372 272.931 698.832C273.664 699.293 274.495 699.523 275.424 699.523ZM298.602 703.358C296.761 703.358 295.125 703.043 293.693 702.412C292.27 701.781 291.145 700.903 290.318 699.778C289.491 698.653 289.052 697.354 289.001 695.879H293.808C293.85 696.587 294.085 697.205 294.511 697.733C294.937 698.253 295.504 698.658 296.211 698.947C296.919 699.237 297.711 699.382 298.589 699.382C299.527 699.382 300.358 699.22 301.082 698.896C301.806 698.564 302.373 698.104 302.782 697.516C303.191 696.928 303.392 696.25 303.383 695.483C303.392 694.69 303.187 693.991 302.77 693.386C302.352 692.781 301.747 692.308 300.954 691.967C300.17 691.626 299.224 691.456 298.116 691.456H295.802V687.8H298.116C299.028 687.8 299.825 687.642 300.507 687.327C301.197 687.011 301.738 686.568 302.13 685.997C302.522 685.418 302.714 684.749 302.706 683.99C302.714 683.249 302.548 682.605 302.207 682.06C301.875 681.506 301.402 681.075 300.788 680.768C300.183 680.462 299.471 680.308 298.653 680.308C297.852 680.308 297.11 680.453 296.429 680.743C295.747 681.033 295.197 681.446 294.779 681.983C294.362 682.511 294.14 683.142 294.115 683.875H289.551C289.585 682.409 290.007 681.122 290.816 680.014C291.635 678.898 292.725 678.028 294.089 677.406C295.453 676.776 296.983 676.46 298.679 676.46C300.426 676.46 301.943 676.788 303.23 677.445C304.525 678.092 305.527 678.966 306.234 680.065C306.941 681.165 307.295 682.379 307.295 683.709C307.304 685.183 306.869 686.419 305.991 687.416C305.122 688.413 303.98 689.065 302.565 689.372V689.577C304.406 689.832 305.816 690.514 306.797 691.622C307.785 692.722 308.275 694.089 308.267 695.726C308.267 697.192 307.849 698.504 307.014 699.663C306.187 700.814 305.045 701.717 303.588 702.374C302.139 703.03 300.477 703.358 298.602 703.358ZM321.744 676.46C322.997 676.469 324.216 676.69 325.401 677.125C326.594 677.551 327.668 678.25 328.622 679.222C329.577 680.185 330.335 681.476 330.898 683.095C331.46 684.714 331.741 686.717 331.741 689.104C331.75 691.354 331.511 693.365 331.026 695.138C330.548 696.902 329.862 698.393 328.967 699.612C328.072 700.831 326.994 701.76 325.733 702.399C324.472 703.038 323.053 703.358 321.476 703.358C319.822 703.358 318.357 703.034 317.078 702.386C315.808 701.739 314.781 700.852 313.997 699.727C313.213 698.602 312.732 697.315 312.553 695.866H317.219C317.457 696.906 317.943 697.733 318.676 698.347C319.418 698.952 320.351 699.254 321.476 699.254C323.291 699.254 324.689 698.466 325.669 696.889C326.649 695.312 327.139 693.122 327.139 690.318H326.96C326.543 691.068 326.001 691.716 325.337 692.261C324.672 692.798 323.918 693.212 323.074 693.501C322.239 693.791 321.352 693.936 320.415 693.936C318.881 693.936 317.5 693.57 316.273 692.837C315.054 692.104 314.087 691.098 313.371 689.82C312.663 688.541 312.305 687.08 312.297 685.435C312.297 683.73 312.689 682.2 313.473 680.845C314.266 679.482 315.369 678.408 316.784 677.624C318.199 676.831 319.852 676.443 321.744 676.46ZM321.757 680.295C320.837 680.295 320.006 680.521 319.264 680.973C318.531 681.416 317.952 682.021 317.526 682.788C317.108 683.547 316.899 684.395 316.899 685.332C316.908 686.261 317.116 687.105 317.526 687.864C317.943 688.622 318.51 689.223 319.226 689.666C319.95 690.109 320.777 690.331 321.706 690.331C322.396 690.331 323.04 690.199 323.636 689.935C324.233 689.67 324.753 689.304 325.196 688.835C325.648 688.358 325.997 687.817 326.244 687.212C326.5 686.607 326.624 685.967 326.615 685.294C326.615 684.399 326.402 683.572 325.976 682.814C325.558 682.055 324.983 681.446 324.25 680.986C323.526 680.526 322.695 680.295 321.757 680.295ZM335.526 698.142V694.371L346.635 676.818H349.78V682.188H347.862L340.384 694.038V694.243H355.891V698.142H335.526ZM348.016 703V696.991L348.067 695.304V676.818H352.541V703H348.016ZM369.563 703.358C368.31 703.349 367.087 703.132 365.894 702.706C364.701 702.271 363.627 701.568 362.673 700.597C361.718 699.616 360.96 698.317 360.397 696.697C359.835 695.07 359.558 693.054 359.566 690.651C359.566 688.409 359.805 686.411 360.282 684.655C360.759 682.899 361.445 681.416 362.34 680.206C363.235 678.987 364.313 678.058 365.575 677.419C366.844 676.78 368.263 676.46 369.832 676.46C371.477 676.46 372.934 676.784 374.204 677.432C375.482 678.08 376.513 678.966 377.298 680.091C378.082 681.207 378.567 682.469 378.755 683.875H374.089C373.85 682.869 373.36 682.068 372.619 681.472C371.886 680.866 370.957 680.564 369.832 680.564C368.016 680.564 366.619 681.352 365.638 682.929C364.667 684.506 364.177 686.67 364.168 689.423H364.347C364.765 688.673 365.306 688.03 365.971 687.493C366.636 686.956 367.386 686.543 368.221 686.253C369.065 685.955 369.955 685.805 370.893 685.805C372.427 685.805 373.803 686.172 375.022 686.905C376.249 687.638 377.221 688.648 377.937 689.935C378.653 691.213 379.006 692.679 378.998 694.332C379.006 696.054 378.614 697.601 377.822 698.973C377.029 700.337 375.925 701.411 374.511 702.195C373.096 702.979 371.447 703.366 369.563 703.358ZM369.538 699.523C370.467 699.523 371.298 699.297 372.031 698.845C372.763 698.393 373.343 697.784 373.769 697.017C374.195 696.25 374.404 695.389 374.396 694.435C374.404 693.497 374.2 692.649 373.782 691.891C373.373 691.132 372.806 690.531 372.082 690.088C371.357 689.645 370.531 689.423 369.602 689.423C368.911 689.423 368.268 689.555 367.671 689.82C367.075 690.084 366.555 690.45 366.112 690.919C365.668 691.379 365.319 691.916 365.063 692.53C364.816 693.135 364.688 693.783 364.68 694.473C364.688 695.385 364.901 696.224 365.319 696.991C365.737 697.759 366.312 698.372 367.045 698.832C367.778 699.293 368.609 699.523 369.538 699.523Z" fill="black"/>
<rect width="600" height="60" transform="translate(0 720)" fill="#2A9D7E"/>
<path d="M229.747 763L234.043 736.818H237.622L233.327 763H229.747ZM217.947 756.25L218.548 752.67H238.696L238.095 756.25H217.947ZM220.543 763L224.838 736.818H228.418L224.122 763H220.543ZM219.469 747.148L220.057 743.568H240.205L239.616 747.148H219.469ZM242.995 763V759.574L252.084 750.663C252.953 749.786 253.678 749.006 254.257 748.324C254.837 747.642 255.272 746.982 255.561 746.342C255.851 745.703 255.996 745.021 255.996 744.297C255.996 743.47 255.809 742.763 255.434 742.175C255.059 741.578 254.543 741.118 253.887 740.794C253.23 740.47 252.485 740.308 251.65 740.308C250.789 740.308 250.034 740.487 249.387 740.845C248.739 741.195 248.236 741.693 247.878 742.341C247.529 742.989 247.354 743.76 247.354 744.655H242.841C242.841 742.993 243.221 741.548 243.979 740.321C244.738 739.094 245.782 738.143 247.111 737.47C248.449 736.797 249.983 736.46 251.713 736.46C253.469 736.46 255.012 736.788 256.341 737.445C257.671 738.101 258.702 739 259.435 740.142C260.176 741.284 260.547 742.588 260.547 744.054C260.547 745.034 260.36 745.997 259.985 746.943C259.61 747.889 258.949 748.937 258.003 750.088C257.066 751.239 255.749 752.632 254.053 754.268L249.54 758.858V759.037H260.944V763H242.995ZM268.972 763H263.909L273.127 736.818H278.982L288.212 763H283.15L276.157 742.188H275.952L268.972 763ZM269.138 752.734H282.945V756.544H269.138V752.734ZM300.494 736.46C301.747 736.469 302.966 736.69 304.151 737.125C305.344 737.551 306.418 738.25 307.372 739.222C308.327 740.185 309.085 741.476 309.648 743.095C310.21 744.714 310.491 746.717 310.491 749.104C310.5 751.354 310.261 753.365 309.776 755.138C309.298 756.902 308.612 758.393 307.717 759.612C306.822 760.831 305.744 761.76 304.483 762.399C303.222 763.038 301.803 763.358 300.226 763.358C298.572 763.358 297.107 763.034 295.828 762.386C294.558 761.739 293.531 760.852 292.747 759.727C291.963 758.602 291.482 757.315 291.303 755.866H295.969C296.207 756.906 296.693 757.733 297.426 758.347C298.168 758.952 299.101 759.254 300.226 759.254C302.041 759.254 303.439 758.466 304.419 756.889C305.399 755.312 305.889 753.122 305.889 750.318H305.71C305.293 751.068 304.751 751.716 304.087 752.261C303.422 752.798 302.668 753.212 301.824 753.501C300.989 753.791 300.102 753.936 299.165 753.936C297.631 753.936 296.25 753.57 295.023 752.837C293.804 752.104 292.837 751.098 292.121 749.82C291.413 748.541 291.055 747.08 291.047 745.435C291.047 743.73 291.439 742.2 292.223 740.845C293.016 739.482 294.119 738.408 295.534 737.624C296.949 736.831 298.602 736.443 300.494 736.46ZM300.507 740.295C299.587 740.295 298.756 740.521 298.014 740.973C297.281 741.416 296.702 742.021 296.276 742.788C295.858 743.547 295.649 744.395 295.649 745.332C295.658 746.261 295.866 747.105 296.276 747.864C296.693 748.622 297.26 749.223 297.976 749.666C298.7 750.109 299.527 750.331 300.456 750.331C301.146 750.331 301.79 750.199 302.386 749.935C302.983 749.67 303.503 749.304 303.946 748.835C304.398 748.358 304.747 747.817 304.994 747.212C305.25 746.607 305.374 745.967 305.365 745.294C305.365 744.399 305.152 743.572 304.726 742.814C304.308 742.055 303.733 741.446 303 740.986C302.276 740.526 301.445 740.295 300.507 740.295ZM323.876 763H315.004V736.818H324.055C326.655 736.818 328.888 737.342 330.754 738.391C332.629 739.43 334.07 740.926 335.075 742.878C336.081 744.83 336.584 747.165 336.584 749.884C336.584 752.611 336.077 754.955 335.062 756.915C334.057 758.875 332.604 760.379 330.703 761.428C328.811 762.476 326.536 763 323.876 763ZM319.747 758.896H323.646C325.47 758.896 326.991 758.564 328.21 757.899C329.429 757.226 330.345 756.224 330.959 754.895C331.572 753.557 331.879 751.886 331.879 749.884C331.879 747.881 331.572 746.219 330.959 744.898C330.345 743.568 329.438 742.575 328.236 741.919C327.043 741.254 325.56 740.922 323.787 740.922H319.747V758.896ZM341.793 763L352.928 740.96V740.781H340.004V736.818H357.837V740.871L346.715 763H341.793ZM362.219 763V736.818H379.248V740.794H366.962V747.902H378.365V751.878H366.962V759.024H379.35V763H362.219Z" fill="black"/>
<rect width="600" height="60" transform="translate(0 780)" fill="#E9C46A"/>
<path d="M227.747 823L232.043 796.818H235.622L231.327 823H227.747ZM215.947 816.25L216.548 812.67H236.696L236.095 816.25H215.947ZM218.543 823L222.838 796.818H226.418L222.122 823H218.543ZM217.469 807.148L218.057 803.568H238.205L237.616 807.148H217.469ZM241.25 823V796.818H258.279V800.794H245.993V807.902H257.397V811.878H245.993V819.024H258.381V823H241.25ZM271.951 796.46C273.204 796.469 274.423 796.69 275.608 797.125C276.801 797.551 277.875 798.25 278.829 799.222C279.784 800.185 280.542 801.476 281.105 803.095C281.667 804.714 281.949 806.717 281.949 809.104C281.957 811.354 281.718 813.365 281.233 815.138C280.755 816.902 280.069 818.393 279.174 819.612C278.279 820.831 277.201 821.76 275.94 822.399C274.679 823.038 273.26 823.358 271.683 823.358C270.029 823.358 268.564 823.034 267.285 822.386C266.015 821.739 264.988 820.852 264.204 819.727C263.42 818.602 262.939 817.315 262.76 815.866H267.426C267.664 816.906 268.15 817.733 268.883 818.347C269.625 818.952 270.558 819.254 271.683 819.254C273.498 819.254 274.896 818.466 275.876 816.889C276.856 815.312 277.346 813.122 277.346 810.318H277.167C276.75 811.068 276.208 811.716 275.544 812.261C274.879 812.798 274.125 813.212 273.281 813.501C272.446 813.791 271.559 813.936 270.622 813.936C269.088 813.936 267.707 813.57 266.48 812.837C265.261 812.104 264.294 811.098 263.578 809.82C262.87 808.541 262.512 807.08 262.504 805.435C262.504 803.73 262.896 802.2 263.68 800.845C264.473 799.482 265.576 798.408 266.991 797.624C268.406 796.831 270.059 796.443 271.951 796.46ZM271.964 800.295C271.044 800.295 270.213 800.521 269.471 800.973C268.738 801.416 268.159 802.021 267.733 802.788C267.315 803.547 267.106 804.395 267.106 805.332C267.115 806.261 267.324 807.105 267.733 807.864C268.15 808.622 268.717 809.223 269.433 809.666C270.157 810.109 270.984 810.331 271.913 810.331C272.603 810.331 273.247 810.199 273.843 809.935C274.44 809.67 274.96 809.304 275.403 808.835C275.855 808.358 276.204 807.817 276.451 807.212C276.707 806.607 276.831 805.967 276.822 805.294C276.822 804.399 276.609 803.572 276.183 802.814C275.765 802.055 275.19 801.446 274.457 800.986C273.733 800.526 272.902 800.295 271.964 800.295ZM308.872 805.652H304.091C303.954 804.868 303.703 804.173 303.336 803.568C302.97 802.955 302.514 802.435 301.968 802.009C301.423 801.582 300.801 801.263 300.102 801.05C299.412 800.828 298.666 800.717 297.865 800.717C296.441 800.717 295.18 801.075 294.081 801.791C292.981 802.499 292.12 803.538 291.498 804.911C290.876 806.274 290.565 807.94 290.565 809.909C290.565 811.912 290.876 813.599 291.498 814.972C292.129 816.335 292.99 817.366 294.081 818.065C295.18 818.756 296.437 819.101 297.852 819.101C298.636 819.101 299.369 818.999 300.051 818.794C300.741 818.581 301.359 818.27 301.904 817.861C302.458 817.452 302.923 816.949 303.298 816.352C303.681 815.756 303.946 815.074 304.091 814.307L308.872 814.332C308.693 815.577 308.305 816.744 307.708 817.835C307.12 818.926 306.349 819.889 305.395 820.724C304.44 821.551 303.324 822.199 302.045 822.668C300.767 823.128 299.348 823.358 297.788 823.358C295.487 823.358 293.433 822.825 291.626 821.76C289.819 820.695 288.396 819.156 287.356 817.145C286.316 815.134 285.797 812.722 285.797 809.909C285.797 807.088 286.321 804.676 287.369 802.673C288.417 800.662 289.845 799.124 291.652 798.058C293.458 796.993 295.504 796.46 297.788 796.46C299.245 796.46 300.6 796.665 301.853 797.074C303.106 797.483 304.223 798.084 305.203 798.876C306.183 799.661 306.988 800.624 307.619 801.766C308.258 802.899 308.676 804.195 308.872 805.652ZM312.487 818.142V814.371L323.596 796.818H326.741V802.188H324.823L317.344 814.038V814.243H332.852V818.142H312.487ZM324.977 823V816.991L325.028 815.304V796.818H329.502V823H324.977ZM346.524 823.358C345.271 823.349 344.048 823.132 342.855 822.706C341.662 822.271 340.588 821.568 339.634 820.597C338.679 819.616 337.92 818.317 337.358 816.697C336.795 815.07 336.518 813.054 336.527 810.651C336.527 808.409 336.766 806.411 337.243 804.655C337.72 802.899 338.406 801.416 339.301 800.206C340.196 798.987 341.274 798.058 342.536 797.419C343.805 796.78 345.224 796.46 346.793 796.46C348.438 796.46 349.895 796.784 351.165 797.432C352.443 798.08 353.474 798.966 354.259 800.091C355.043 801.207 355.528 802.469 355.716 803.875H351.05C350.811 802.869 350.321 802.068 349.58 801.472C348.847 800.866 347.918 800.564 346.793 800.564C344.977 800.564 343.58 801.352 342.599 802.929C341.628 804.506 341.138 806.67 341.129 809.423H341.308C341.726 808.673 342.267 808.03 342.932 807.493C343.597 806.956 344.347 806.543 345.182 806.253C346.026 805.955 346.916 805.805 347.854 805.805C349.388 805.805 350.764 806.172 351.983 806.905C353.21 807.638 354.182 808.648 354.898 809.935C355.614 811.213 355.967 812.679 355.959 814.332C355.967 816.054 355.575 817.601 354.783 818.973C353.99 820.337 352.886 821.411 351.472 822.195C350.057 822.979 348.408 823.366 346.524 823.358ZM346.499 819.523C347.428 819.523 348.259 819.297 348.991 818.845C349.724 818.393 350.304 817.784 350.73 817.017C351.156 816.25 351.365 815.389 351.357 814.435C351.365 813.497 351.161 812.649 350.743 811.891C350.334 811.132 349.767 810.531 349.043 810.088C348.318 809.645 347.491 809.423 346.562 809.423C345.872 809.423 345.229 809.555 344.632 809.82C344.036 810.084 343.516 810.45 343.072 810.919C342.629 811.379 342.28 811.916 342.024 812.53C341.777 813.135 341.649 813.783 341.641 814.473C341.649 815.385 341.862 816.224 342.28 816.991C342.697 817.759 343.273 818.372 344.006 818.832C344.739 819.293 345.57 819.523 346.499 819.523ZM363.898 823H358.835L368.053 796.818H373.908L383.138 823H378.075L371.082 802.188H370.878L363.898 823ZM364.064 812.734H377.871V816.544H364.064V812.734Z" fill="black"/>
<rect width="600" height="60" transform="translate(0 840)" fill="#FFF5DE"/>
<path d="M233.247 883L237.543 856.818H241.122L236.827 883H233.247ZM221.447 876.25L222.048 872.67H242.196L241.595 876.25H221.447ZM224.043 883L228.338 856.818H231.918L227.622 883H224.043ZM222.969 867.148L223.557 863.568H243.705L243.116 867.148H222.969ZM246.75 883V856.818H263.523V860.794H251.493V867.902H262.373V871.878H251.493V883H246.75ZM267.844 883V856.818H284.617V860.794H272.587V867.902H283.466V871.878H272.587V883H267.844ZM288.938 883V856.818H305.711V860.794H293.681V867.902H304.56V871.878H293.681V883H288.938ZM318.878 883.358C317.174 883.358 315.648 883.038 314.301 882.399C312.955 881.751 311.885 880.865 311.093 879.74C310.309 878.615 309.891 877.328 309.84 875.879H314.442C314.527 876.953 314.992 877.831 315.836 878.513C316.679 879.186 317.694 879.523 318.878 879.523C319.807 879.523 320.634 879.31 321.358 878.884C322.083 878.457 322.654 877.865 323.071 877.107C323.489 876.348 323.694 875.483 323.685 874.511C323.694 873.523 323.485 872.645 323.059 871.878C322.632 871.111 322.049 870.51 321.307 870.075C320.566 869.632 319.713 869.411 318.75 869.411C317.966 869.402 317.195 869.547 316.436 869.845C315.678 870.143 315.077 870.536 314.634 871.021L310.351 870.318L311.719 856.818H326.907V860.781H315.644L314.89 867.723H315.043C315.529 867.152 316.215 866.679 317.101 866.304C317.988 865.92 318.959 865.729 320.016 865.729C321.601 865.729 323.016 866.104 324.26 866.854C325.505 867.595 326.485 868.618 327.201 869.922C327.917 871.226 328.275 872.717 328.275 874.396C328.275 876.126 327.874 877.669 327.073 879.024C326.28 880.371 325.176 881.432 323.762 882.207C322.355 882.974 320.728 883.358 318.878 883.358ZM341.685 883H332.813V856.818H341.864C344.463 856.818 346.696 857.342 348.563 858.391C350.438 859.43 351.878 860.926 352.884 862.878C353.89 864.83 354.392 867.165 354.392 869.884C354.392 872.611 353.885 874.955 352.871 876.915C351.865 878.875 350.412 880.379 348.512 881.428C346.62 882.476 344.344 883 341.685 883ZM337.556 878.896H341.455C343.279 878.896 344.8 878.564 346.019 877.899C347.238 877.226 348.154 876.224 348.767 874.895C349.381 873.557 349.688 871.886 349.688 869.884C349.688 867.881 349.381 866.219 348.767 864.898C348.154 863.568 347.246 862.575 346.044 861.919C344.851 861.254 343.368 860.922 341.596 860.922H337.556V878.896ZM358.899 883V856.818H375.927V860.794H363.642V867.902H375.045V871.878H363.642V879.024H376.029V883H358.899Z" fill="black"/>
<rect width="600" height="60" transform="translate(0 900)" fill="#DDFFF6"/>
<path d="M231.247 943L235.543 916.818H239.122L234.827 943H231.247ZM219.447 936.25L220.048 932.67H240.196L239.595 936.25H219.447ZM222.043 943L226.338 916.818H229.918L225.622 943H222.043ZM220.969 927.148L221.557 923.568H241.705L241.116 927.148H220.969ZM253.623 943H244.75V916.818H253.801C256.401 916.818 258.634 917.342 260.5 918.391C262.375 919.43 263.816 920.926 264.821 922.878C265.827 924.83 266.33 927.165 266.33 929.884C266.33 932.611 265.823 934.955 264.809 936.915C263.803 938.875 262.35 940.379 260.449 941.428C258.557 942.476 256.282 943 253.623 943ZM249.493 938.896H253.392C255.216 938.896 256.738 938.564 257.956 937.899C259.175 937.226 260.091 936.224 260.705 934.895C261.319 933.557 261.625 931.886 261.625 929.884C261.625 927.881 261.319 926.219 260.705 924.898C260.091 923.568 259.184 922.575 257.982 921.919C256.789 921.254 255.306 920.922 253.533 920.922H249.493V938.896ZM279.708 943H270.836V916.818H279.887C282.487 916.818 284.72 917.342 286.586 918.391C288.461 919.43 289.902 920.926 290.907 922.878C291.913 924.83 292.416 927.165 292.416 929.884C292.416 932.611 291.909 934.955 290.895 936.915C289.889 938.875 288.436 940.379 286.535 941.428C284.643 942.476 282.368 943 279.708 943ZM275.579 938.896H279.478C281.302 938.896 282.824 938.564 284.042 937.899C285.261 937.226 286.177 936.224 286.791 934.895C287.404 933.557 287.711 931.886 287.711 929.884C287.711 927.881 287.404 926.219 286.791 924.898C286.177 923.568 285.27 922.575 284.068 921.919C282.875 921.254 281.392 920.922 279.619 920.922H275.579V938.896ZM296.922 943V916.818H313.695V920.794H301.665V927.902H312.544V931.878H301.665V943H296.922ZM318.016 943V916.818H334.789V920.794H322.759V927.902H333.638V931.878H322.759V943H318.016ZM339.11 943V916.818H355.882V920.794H343.853V927.902H354.732V931.878H343.853V943H339.11ZM369.536 943.358C368.283 943.349 367.06 943.132 365.867 942.706C364.674 942.271 363.6 941.568 362.645 940.597C361.691 939.616 360.932 938.317 360.37 936.697C359.807 935.07 359.53 933.054 359.539 930.651C359.539 928.409 359.777 926.411 360.255 924.655C360.732 922.899 361.418 921.416 362.313 920.206C363.208 918.987 364.286 918.058 365.547 917.419C366.817 916.78 368.236 916.46 369.804 916.46C371.449 916.46 372.907 916.784 374.176 917.432C375.455 918.08 376.486 918.966 377.27 920.091C378.054 921.207 378.54 922.469 378.728 923.875H374.061C373.823 922.869 373.333 922.068 372.591 921.472C371.858 920.866 370.929 920.564 369.804 920.564C367.989 920.564 366.591 921.352 365.611 922.929C364.64 924.506 364.15 926.67 364.141 929.423H364.32C364.738 928.673 365.279 928.03 365.944 927.493C366.608 926.956 367.358 926.543 368.194 926.253C369.037 925.955 369.928 925.805 370.865 925.805C372.4 925.805 373.776 926.172 374.995 926.905C376.222 927.638 377.194 928.648 377.909 929.935C378.625 931.213 378.979 932.679 378.971 934.332C378.979 936.054 378.587 937.601 377.794 938.973C377.002 940.337 375.898 941.411 374.483 942.195C373.069 942.979 371.419 943.366 369.536 943.358ZM369.51 939.523C370.439 939.523 371.27 939.297 372.003 938.845C372.736 938.393 373.316 937.784 373.742 937.017C374.168 936.25 374.377 935.389 374.368 934.435C374.377 933.497 374.172 932.649 373.755 931.891C373.346 931.132 372.779 930.531 372.054 930.088C371.33 929.645 370.503 929.423 369.574 929.423C368.884 929.423 368.24 929.555 367.644 929.82C367.047 930.084 366.527 930.45 366.084 930.919C365.641 931.379 365.292 931.916 365.036 932.53C364.789 933.135 364.661 933.783 364.652 934.473C364.661 935.385 364.874 936.224 365.292 936.991C365.709 937.759 366.284 938.372 367.017 938.832C367.75 939.293 368.581 939.523 369.51 939.523Z" fill="black"/>
<rect width="600" height="60" transform="translate(0 960)" fill="#FFDFE1"/>
<path d="M236.247 1003L240.543 976.818H244.122L239.827 1003H236.247ZM224.447 996.25L225.048 992.67H245.196L244.595 996.25H224.447ZM227.043 1003L231.338 976.818H234.918L230.622 1003H227.043ZM225.969 987.148L226.557 983.568H246.705L246.116 987.148H225.969ZM249.75 1003V976.818H266.523V980.794H254.493V987.902H265.373V991.878H254.493V1003H249.75ZM270.844 1003V976.818H287.617V980.794H275.587V987.902H286.466V991.878H275.587V1003H270.844ZM300.81 1003H291.938V976.818H300.989C303.588 976.818 305.821 977.342 307.688 978.391C309.563 979.43 311.003 980.926 312.009 982.878C313.015 984.83 313.517 987.165 313.517 989.884C313.517 992.611 313.01 994.955 311.996 996.915C310.99 998.875 309.537 1000.38 307.637 1001.43C305.745 1002.48 303.469 1003 300.81 1003ZM296.681 998.896H300.58C302.404 998.896 303.925 998.564 305.144 997.899C306.363 997.226 307.279 996.224 307.892 994.895C308.506 993.557 308.813 991.886 308.813 989.884C308.813 987.881 308.506 986.219 307.892 984.898C307.279 983.568 306.371 982.575 305.169 981.919C303.976 981.254 302.493 980.922 300.721 980.922H296.681V998.896ZM318.024 1003V976.818H334.797V980.794H322.767V987.902H333.646V991.878H322.767V1003H318.024ZM339.118 1003V976.818H356.146V980.794H343.86V987.902H355.264V991.878H343.86V999.024H356.248V1003H339.118ZM371.378 976.818V1003H366.635V981.433H366.482L360.358 985.345V980.999L366.865 976.818H371.378Z" fill="black"/>
</g>
<defs>
<clipPath id="clip0_344_1918">
<rect width="600" height="1020" fill="white"/>
</clipPath>
</defs>
</svg>
